<?xml version="1.0" encoding="utf-8"?>
<!-- Generator: Adobe Illustrator 22.1.0, SVG Export Plug-In . SVG Version: 6.00 Build 0)  -->
<svg version="1.1" xmlns="http://www.w3.org/2000/svg" xmlns:xlink="http://www.w3.org/1999/xlink" x="0px" y="0px"
	 viewBox="0 0 307.4 178.1" style="enable-background:new 0 0 307.4 178.1;" xml:space="preserve">
<style type="text/css">
	.st0{fill:#FFFFFF;}
	.st1{fill:#99CA3C;}
	.st2{fill:#FFFFFF;stroke:#99CA3C;stroke-miterlimit:10;}
</style>
<g id="Layer_1">
</g>
<g id="class">
</g>
<g id="a2z">
	<g>
		<g>
			<path class="st0" d="M48.2,152.6H62c1.2,0,2.1,0.9,2.1,2.1V175c0,1.2-0.9,2.1-2.1,2.1H3.1c-1.2,0-2.1-0.9-2.1-2.1v-20.3
				c0-1.2,0.9-2.1,2.1-2.1h10.4c0.9,0,1.7-0.6,2-1.4l43-123c0.5-1.4-0.5-2.8-2-2.8h-14c-1.2,0-2.1-0.9-2.1-2.1V3.1
				c0-1.2,0.9-2.1,2.1-2.1h86c1.2,0,2.1,0.9,2.1,2.1v20.3c0,1.2-0.9,2.1-2.1,2.1h-15.3c-1.4,0-2.4,1.4-2,2.8l42.1,123
				c0.3,0.8,1.1,1.4,2,1.4h12.5c1.2,0,2.1,0.9,2.1,2.1V175c0,1.2-0.9,2.1-2.1,2.1h-62.6c-1.2,0-2.1-0.9-2.1-2.1v-20.3
				c0-1.2,0.9-2.1,2.1-2.1h13.9c1.4,0,2.4-1.4,2-2.8l-9.3-27.8c-0.3-0.8-1.1-1.4-2-1.4H57.5c-0.9,0-1.7,0.6-2,1.4l-9.3,27.8
				C45.8,151.2,46.8,152.6,48.2,152.6z M66.5,96.2h34.1c1.4,0,2.4-1.4,2-2.7l-16.9-51c-0.6-1.9-3.3-1.9-4,0l-17.1,51
				C64,94.8,65,96.2,66.5,96.2z"/>
			<path class="st1" d="M167.8,178.1h-62.6c-1.7,0-3.1-1.4-3.1-3.1v-20.3c0-1.7,1.4-3.1,3.1-3.1h13.9c0.4,0,0.7-0.2,0.9-0.5
				c0.2-0.3,0.3-0.6,0.1-1l-9.3-27.8c-0.1-0.4-0.6-0.7-1-0.7H57.5c-0.5,0-0.9,0.3-1,0.7l-9.3,27.8c-0.1,0.3-0.1,0.7,0.1,1
				c0.2,0.3,0.5,0.5,0.9,0.5H62c1.7,0,3.1,1.4,3.1,3.1V175c0,1.7-1.4,3.1-3.1,3.1H3.1c-1.7,0-3.1-1.4-3.1-3.1v-20.3
				c0-1.7,1.4-3.1,3.1-3.1h10.4c0.5,0,0.9-0.3,1-0.7l43-123c0.1-0.3,0.1-0.7-0.1-1s-0.5-0.5-0.9-0.5h-14c-1.7,0-3.1-1.4-3.1-3.1V3.1
				c0-1.7,1.4-3.1,3.1-3.1h86c1.7,0,3.1,1.4,3.1,3.1v20.3c0,1.7-1.4,3.1-3.1,3.1h-15.3c-0.4,0-0.7,0.2-0.9,0.5
				c-0.2,0.3-0.3,0.6-0.1,1l42.1,123c0.2,0.4,0.6,0.7,1,0.7h12.5c1.7,0,3.1,1.4,3.1,3.1V175C170.9,176.7,169.6,178.1,167.8,178.1z
				 M105.3,153.6c-0.6,0-1.1,0.5-1.1,1.1V175c0,0.6,0.5,1.1,1.1,1.1h62.6c0.6,0,1.1-0.5,1.1-1.1v-20.3c0-0.6-0.5-1.1-1.1-1.1h-12.5
				c-1.3,0-2.5-0.8-2.9-2.1l-42.1-123c-0.3-0.9-0.2-2,0.4-2.8c0.6-0.8,1.5-1.3,2.5-1.3h15.3c0.6,0,1.1-0.5,1.1-1.1V3.1
				c0-0.6-0.5-1.1-1.1-1.1h-86c-0.6,0-1.1,0.5-1.1,1.1v20.3c0,0.6,0.5,1.1,1.1,1.1h14c1,0,1.9,0.5,2.5,1.3c0.6,0.8,0.7,1.9,0.4,2.8
				l-43,123c-0.4,1.2-1.6,2.1-2.9,2.1H3.1c-0.6,0-1.1,0.5-1.1,1.1V175c0,0.6,0.5,1.1,1.1,1.1H62c0.6,0,1.1-0.5,1.1-1.1v-20.3
				c0-0.6-0.5-1.1-1.1-1.1H48.2c-1,0-1.9-0.5-2.5-1.3c-0.6-0.8-0.7-1.8-0.4-2.8l9.3-27.8c0.4-1.3,1.6-2.1,2.9-2.1h52.3
				c1.3,0,2.5,0.8,2.9,2.1l9.3,27.8c0.3,1,0.2,2-0.4,2.8c-0.6,0.8-1.5,1.3-2.5,1.3H105.3z M100.5,97.2H66.5c-1,0-1.9-0.5-2.5-1.3
				c-0.6-0.8-0.7-1.8-0.4-2.8l17.1-51c0.4-1.3,1.6-2.1,2.9-2.1c0,0,0,0,0,0c1.4,0,2.5,0.8,2.9,2.1l16.9,51c0.3,1,0.2,2-0.4,2.8
				C102.5,96.7,101.5,97.2,100.5,97.2z M83.6,42c-0.2,0-0.8,0.1-1,0.7l-17.1,51c-0.1,0.3-0.1,0.7,0.1,1c0.2,0.3,0.5,0.5,0.9,0.5
				h34.1c0.4,0,0.7-0.2,0.9-0.5c0.2-0.3,0.3-0.6,0.1-1l-16.9-51C84.4,42,83.8,42,83.6,42C83.6,42,83.6,42,83.6,42z"/>
		</g>
		<g>
			<path class="st0" d="M146.6,92.1v-21c0-1.2,0.9-2.1,2.1-2.1h56.5c1.2,0,2.1,0.9,2.1,2.1v21c0,1.2-0.9,2.1-2.1,2.1h-56.5
				C147.5,94.2,146.6,93.2,146.6,92.1z"/>
			<path class="st1" d="M205.1,95.2h-56.5c-1.7,0-3.1-1.4-3.1-3.1v-21c0-1.7,1.4-3.1,3.1-3.1h56.5c1.7,0,3.1,1.4,3.1,3.1v21
				C208.2,93.8,206.8,95.2,205.1,95.2z M148.6,70c-0.6,0-1.1,0.5-1.1,1.1v21c0,0.6,0.5,1.1,1.1,1.1h56.5c0.6,0,1.1-0.5,1.1-1.1v-21
				c0-0.6-0.5-1.1-1.1-1.1H148.6z"/>
		</g>
		<g>
			<path class="st0" d="M277.5,151v-25.1c0-1.2,0.9-2.1,2.1-2.1h24.7c1.2,0,2.1,0.9,2.1,2.1V175c0,1.2-0.9,2.1-2.1,2.1H179.9
				c-1.2,0-2.1-0.9-2.1-2.1v-20.7c0-0.4,0.1-0.8,0.4-1.2L265.8,29c1-1.4,0-3.3-1.7-3.3h-51.9c-1.2,0-2.1,0.9-2.1,2.1v19.8
				c0,1.2-0.9,2.1-2.1,2.1h-24.6c-1.2,0-2.1-0.9-2.1-2.1V3.7c0-1.2,0.9-2.1,2.1-2.1h120.9c1.2,0,2.1,0.9,2.1,2.1v18.7
				c0,0.4-0.1,0.8-0.4,1.2L218,149.8c-1,1.4,0,3.3,1.7,3.3h55.8C276.6,153.1,277.5,152.2,277.5,151z"/>
			<path class="st1" d="M304.3,178.1H179.9c-1.7,0-3.1-1.4-3.1-3.1v-20.7c0-0.6,0.2-1.2,0.6-1.8L265,28.4c0.2-0.3,0.3-0.8,0.1-1.1
				c-0.2-0.4-0.6-0.6-1-0.6h-51.9c-0.6,0-1.1,0.5-1.1,1.1v19.8c0,1.7-1.4,3.1-3.1,3.1h-24.6c-1.7,0-3.1-1.4-3.1-3.1V3.7
				c0-1.7,1.4-3.1,3.1-3.1h120.9c1.7,0,3.1,1.4,3.1,3.1v18.7c0,0.6-0.2,1.2-0.6,1.8l-88.1,126.2c-0.2,0.3-0.3,0.8-0.1,1.1
				c0.2,0.4,0.6,0.6,1,0.6h55.8c0.6,0,1.1-0.5,1.1-1.1v-25.1c0-1.7,1.4-3.1,3.1-3.1h24.7c1.7,0,3.1,1.4,3.1,3.1V175
				C307.4,176.7,306,178.1,304.3,178.1z M212.2,24.7h51.9c1.2,0,2.2,0.6,2.7,1.7c0.5,1,0.5,2.2-0.2,3.2L179,153.7
				c-0.1,0.2-0.2,0.4-0.2,0.6V175c0,0.6,0.5,1.1,1.1,1.1h124.4c0.6,0,1.1-0.5,1.1-1.1v-49.1c0-0.6-0.5-1.1-1.1-1.1h-24.7
				c-0.6,0-1.1,0.5-1.1,1.1V151c0,1.7-1.4,3.1-3.1,3.1h-55.8c-1.2,0-2.2-0.6-2.7-1.7c-0.5-1-0.5-2.2,0.2-3.2l88.1-126.2
				c0.1-0.2,0.2-0.4,0.2-0.6V3.7c0-0.6-0.5-1.1-1.1-1.1H183.4c-0.6,0-1.1,0.5-1.1,1.1v43.9c0,0.6,0.5,1.1,1.1,1.1H208
				c0.6,0,1.1-0.5,1.1-1.1V27.8C209.1,26.1,210.5,24.7,212.2,24.7z"/>
		</g>
	</g>
</g>
<g id="habitat">
</g>
<g id="email">
</g>
<g id="stroller">
</g>
<g id="camera">
</g>
<g id="eat">
</g>
<g id="discount">
</g>
<g id="arrow">
</g>
<g id="save">
</g>
<g id="social">
</g>
<g id="hotels">
</g>
<g id="checklist">
</g>
<g id="calendar">
</g>
<g id="download">
</g>
<g id="tickets">
</g>
<g id="directions">
</g>
<g id="people">
</g>
<g id="train">
</g>
<g id="keepers">
</g>
<g id="lion">
</g>
</svg>
