<?xml version="1.0" encoding="utf-8"?>
<!-- Generator: Adobe Illustrator 22.1.0, SVG Export Plug-In . SVG Version: 6.00 Build 0)  -->
<svg version="1.1" xmlns="http://www.w3.org/2000/svg" xmlns:xlink="http://www.w3.org/1999/xlink" x="0px" y="0px"
	 viewBox="0 0 225.9 225.5" style="enable-background:new 0 0 225.9 225.5;" xml:space="preserve">
<style type="text/css">
	.st0{fill:#FFFFFF;}
	.st1{fill:#99CA3C;}
	.st2{fill:#FFFFFF;stroke:#99CA3C;stroke-miterlimit:10;}
</style>
<g id="Layer_1">
</g>
<g id="class">
</g>
<g id="a2z">
</g>
<g id="habitat">
</g>
<g id="email">
</g>
<g id="stroller">
</g>
<g id="camera">
</g>
<g id="eat">
</g>
<g id="discount">
</g>
<g id="arrow">
	<g>
		<g>
			<g>
				<path class="st0" d="M208.8,1.1L106.6,105.7l33.5,11.5c-2.9,9.9-4.8,14.8-13.1,20c-8.9,5.6-14.3,4.7-26.2,2.7
					c-15.5-2.6-36.7-6.2-62.3,9.9c-25.6,16.1-31.6,36.8-36,51.8c-0.7,2.4-1.3,4.6-1.9,6.5l8.3,2.8l30.8,10.5l9.9,3.4
					c1-3.1,1.9-6,2.7-8.8c3.3-11.5,4.8-16.8,13.8-22.4c8.9-5.6,14.3-4.7,26.2-2.7c15.5,2.6,36.7,6.2,62.3-9.9
					c23-14.5,30.2-32.6,34.5-47l36.2,12.4L208.8,1.1z"/>
				<path class="st1" d="M49.9,225.5L0,208.6l0.2-0.5c0.6-1.9,1.2-3.9,1.9-6.5c4.4-15.1,10.4-35.9,36.2-52.1
					c25.8-16.2,47.1-12.6,62.6-10c11.7,2,17.1,2.9,25.9-2.6c7.8-4.9,9.9-9.5,12.8-19.3L105.7,106L209.2,0l0.1,1l16.6,146.1
					l-36.4-12.5c-5,16.2-12.7,33-34.6,46.8c-25.8,16.2-47.1,12.6-62.7,10c-11.7-2-17.1-2.9-25.8,2.6c-8.8,5.5-10.3,10.7-13.6,22.1
					c-0.8,2.8-1.7,5.8-2.7,8.9L49.9,225.5z M1.3,207.9l48,16.3c1-2.9,1.8-5.7,2.5-8.3c3.4-11.7,4.9-17,14-22.7
					c9.1-5.7,14.6-4.8,26.5-2.8c15.4,2.6,36.5,6.1,62-9.9c21.9-13.8,29.4-30.6,34.3-46.7l0.2-0.5l35.9,12.3L208.4,2.2L107.6,105.5
					l33.2,11.4l-0.1,0.5c-2.8,9.6-4.7,14.9-13.3,20.3c-9.1,5.7-14.6,4.8-26.5,2.8c-15.4-2.6-36.5-6.1-62,9.9
					c-25.5,16-31.4,36.6-35.7,51.6C2.4,204.3,1.8,206.2,1.3,207.9z"/>
			</g>
		</g>
	</g>
	<g>
		<g>
			<path class="st0" d="M11,204c4.2-14.4,9.3-32.2,31.8-46.4c22.5-14.2,40.9-11.1,55.6-8.6c12.6,2.1,20.9,3.5,32.9-4.1
				c12-7.6,14.4-15.6,17.9-27.9c0.6-2,1.2-4.2,1.9-6.3l-27.8-9.5l77.5-79.4L213.3,132L182,121.3c-0.5,1.5-0.9,3.1-1.4,4.8
				c-4.1,14.4-9.3,32.2-31.8,46.4c-22.5,14.2-40.9,11.1-55.6,8.6c-12.6-2.1-20.8-3.5-32.9,4.1c-12,7.6-14.4,15.6-17.9,27.9L11,204z"
				/>
			<path class="st1" d="M42.7,213.6l-0.5-0.1l-31.8-9.2l0.1-0.5L11,204l-0.5-0.2c4.2-14.4,9.4-32.4,32.1-46.7
				c22.7-14.3,41.2-11.2,56-8.7c12.4,2.1,20.7,3.5,32.5-4c11.9-7.5,14.2-15.5,17.7-27.6l0.5-1.6c0.4-1.4,0.8-2.8,1.3-4.3l-28.1-9.6
				l78.8-80.7l0.1,1l12.6,111l-31.6-10.8c-0.3,0.9-0.5,1.7-0.8,2.6l-0.5,1.7c-4.2,14.4-9.4,32.4-32.1,46.7
				c-22.7,14.3-41.2,11.2-56,8.7c-12.5-2.1-20.7-3.5-32.5,4C48.6,193,46.3,201,42.8,213.1L42.7,213.6z M11.7,203.6l30.3,8.8
				c3.5-12.1,6-20.1,18-27.7c12.2-7.7,20.5-6.3,33.2-4.1c14.7,2.5,32.9,5.5,55.3-8.5c22.4-14.1,27.5-31.8,31.6-46.1l0.5-1.7
				c0.3-1.1,0.6-2.1,0.9-3.2l0.2-0.5l31,10.7L200.4,22.9l-76.2,78l27.5,9.4l-0.1,0.5c-0.5,1.6-1,3.2-1.4,4.8l-0.5,1.6
				c-3.6,12.3-5.9,20.5-18.1,28.2c-12.2,7.7-20.6,6.3-33.2,4.1c-14.6-2.5-32.9-5.6-55.3,8.5C21,171.9,15.8,189.4,11.7,203.6z"/>
		</g>
	</g>
</g>
<g id="save">
</g>
<g id="social">
</g>
<g id="hotels">
</g>
<g id="checklist">
</g>
<g id="calendar">
</g>
<g id="download">
</g>
<g id="tickets">
</g>
<g id="directions">
</g>
<g id="people">
</g>
<g id="train">
</g>
<g id="keepers">
</g>
<g id="lion">
</g>
</svg>
