<?xml version="1.0" encoding="utf-8"?>
<!-- Generator: Adobe Illustrator 22.1.0, SVG Export Plug-In . SVG Version: 6.00 Build 0)  -->
<svg version="1.1" xmlns="http://www.w3.org/2000/svg" xmlns:xlink="http://www.w3.org/1999/xlink" x="0px" y="0px"
	 viewBox="0 0 207.3 219.7" style="enable-background:new 0 0 207.3 219.7;" xml:space="preserve">
<style type="text/css">
	.st0{fill:#FFFFFF;}
	.st1{fill:#99CA3C;}
	.st2{fill:#FFFFFF;stroke:#99CA3C;stroke-miterlimit:10;}
</style>
<g id="calendar">
	<g>
		<path class="st0" d="M206.8,34.8v170.1c0,7.9-6.4,14.3-14.3,14.3H14.8c-7.9,0-14.3-6.4-14.3-14.3V34.8c0-7.9,6.4-14.3,14.3-14.3
			h9.6v16.5c0,7,6.8,12.8,13.8,12.8c7,0,13.8-5.8,13.8-12.8V20.5h103.9v16.5c0,7,6.8,12.8,13.8,12.8c7,0,13.8-5.8,13.8-12.8V20.5h9
			C200.4,20.5,206.8,27,206.8,34.8z"/>
		<path class="st1" d="M192.5,219.7H14.8c-8.2,0-14.8-6.6-14.8-14.8V34.8C0,26.7,6.6,20,14.8,20h10.1v17c0,6.5,6.2,12.3,13.3,12.3
			c7.1,0,13.3-5.7,13.3-12.3V20h104.9v17c0,6.5,6.2,12.3,13.3,12.3c7.1,0,13.3-5.7,13.3-12.3V20h9.5c8.2,0,14.8,6.6,14.8,14.8v170.1
			C207.3,213.1,200.7,219.7,192.5,219.7z M14.8,21C7.2,21,1,27.2,1,34.8v170.1c0,7.6,6.2,13.8,13.8,13.8h177.7
			c7.6,0,13.8-6.2,13.8-13.8V34.8c0-7.6-6.2-13.8-13.8-13.8H184v16c0,7.1-6.7,13.3-14.3,13.3c-7.6,0-14.3-6.2-14.3-13.3V21H52.5v16
			c0,7.1-6.7,13.3-14.3,13.3c-7.6,0-14.3-6.2-14.3-13.3V21H14.8z"/>
	</g>
	<g>
		<path class="st0" d="M185.2,206.1H22.1c-6.8,0-12.4-5.6-12.4-12.4v-112c0-6.8,5.6-12.4,12.4-12.4h163.1c6.8,0,12.4,5.6,12.4,12.4
			v112C197.7,200.5,192.1,206.1,185.2,206.1z"/>
		<path class="st1" d="M185.2,206.6H22.1c-7.1,0-12.9-5.8-12.9-12.9v-112c0-7.1,5.8-12.9,12.9-12.9h163.1c7.1,0,12.9,5.8,12.9,12.9
			v112C198.2,200.8,192.4,206.6,185.2,206.6z M22.1,69.7c-6.6,0-11.9,5.4-11.9,11.9v112c0,6.6,5.4,11.9,11.9,11.9h163.1
			c6.6,0,11.9-5.4,11.9-11.9v-112c0-6.6-5.4-11.9-11.9-11.9H22.1z"/>
	</g>
	<g>
		<rect x="61.1" y="78.2" class="st0" width="32.9" height="34.5"/>
		<path class="st1" d="M94.4,113.2H60.6V77.7h33.9V113.2z M61.6,112.2h31.9V78.7H61.6V112.2z"/>
	</g>
	<g>
		<rect x="102.1" y="78.2" class="st0" width="32.9" height="34.5"/>
		<path class="st1" d="M135.4,113.2h-33.9V77.7h33.9V113.2z M102.6,112.2h31.9V78.7h-31.9V112.2z"/>
	</g>
	<g>
		<rect x="143.1" y="78.2" class="st0" width="32.9" height="34.5"/>
		<path class="st1" d="M176.4,113.2h-33.9V77.7h33.9V113.2z M143.6,112.2h31.9V78.7h-31.9V112.2z"/>
	</g>
	<g>
		<rect x="61.1" y="119" class="st0" width="32.9" height="34.5"/>
		<path class="st1" d="M94.4,154H60.6v-35.5h33.9V154z M61.6,153h31.9v-33.5H61.6V153z"/>
	</g>
	<g>
		<rect x="20" y="119" class="st0" width="32.9" height="34.5"/>
		<path class="st1" d="M53.4,154H19.5v-35.5h33.9V154z M20.5,153h31.9v-33.5H20.5V153z"/>
	</g>
	<g>
		<rect x="102.1" y="119" class="st0" width="32.9" height="34.5"/>
		<path class="st1" d="M135.4,154h-33.9v-35.5h33.9V154z M102.6,153h31.9v-33.5h-31.9V153z"/>
	</g>
	<g>
		<rect x="143.1" y="119" class="st0" width="32.9" height="34.5"/>
		<path class="st1" d="M176.4,154h-33.9v-35.5h33.9V154z M143.6,153h31.9v-33.5h-31.9V153z"/>
	</g>
	<g>
		<rect x="61.1" y="159.5" class="st0" width="32.9" height="34.5"/>
		<path class="st1" d="M94.4,194.4H60.6V159h33.9V194.4z M61.6,193.4h31.9V160H61.6V193.4z"/>
	</g>
	<g>
		<rect x="20" y="159.5" class="st0" width="32.9" height="34.5"/>
		<path class="st1" d="M53.4,194.4H19.5V159h33.9V194.4z M20.5,193.4h31.9V160H20.5V193.4z"/>
	</g>
	<g>
		<rect x="102.1" y="159.5" class="st0" width="32.9" height="34.5"/>
		<path class="st1" d="M135.4,194.4h-33.9V159h33.9V194.4z M102.6,193.4h31.9V160h-31.9V193.4z"/>
	</g>
	<g>
		<rect x="143.1" y="159.5" class="st0" width="32.9" height="34.5"/>
		<path class="st1" d="M176.4,194.4h-33.9V159h33.9V194.4z M143.6,193.4h31.9V160h-31.9V193.4z"/>
	</g>
	<g>
		<g>
			<path class="st0" d="M38.3,42.7L38.3,42.7c-4.6,0-8.3-3.7-8.3-8.3V8.8c0-4.6,3.7-8.3,8.3-8.3h0c4.6,0,8.3,3.7,8.3,8.3v25.6
				C46.6,38.9,42.8,42.7,38.3,42.7z"/>
			<path class="st1" d="M38.3,43.2c-4.8,0-8.8-3.9-8.8-8.8V8.8c0-4.8,3.9-8.8,8.8-8.8s8.8,3.9,8.8,8.8v25.6
				C47.1,39.2,43.1,43.2,38.3,43.2z M38.3,1c-4.3,0-7.8,3.5-7.8,7.8v25.6c0,4.3,3.5,7.8,7.8,7.8s7.8-3.5,7.8-7.8V8.8
				C46.1,4.5,42.6,1,38.3,1z"/>
		</g>
		<g>
			<path class="st0" d="M169.7,42.7L169.7,42.7c-4.6,0-8.3-3.7-8.3-8.3V8.8c0-4.6,3.7-8.3,8.3-8.3h0c4.6,0,8.3,3.7,8.3,8.3v25.6
				C178,38.9,174.3,42.7,169.7,42.7z"/>
			<path class="st1" d="M169.7,43.2c-4.8,0-8.8-3.9-8.8-8.8V8.8c0-4.8,3.9-8.8,8.8-8.8s8.8,3.9,8.8,8.8v25.6
				C178.5,39.2,174.5,43.2,169.7,43.2z M169.7,1c-4.3,0-7.8,3.5-7.8,7.8v25.6c0,4.3,3.5,7.8,7.8,7.8s7.8-3.5,7.8-7.8V8.8
				C177.5,4.5,174,1,169.7,1z"/>
		</g>
	</g>
</g>
</svg>
