<?xml version="1.0" encoding="utf-8"?>
<!-- Generator: Adobe Illustrator 22.1.0, SVG Export Plug-In . SVG Version: 6.00 Build 0)  -->
<svg version="1.1" xmlns="http://www.w3.org/2000/svg" xmlns:xlink="http://www.w3.org/1999/xlink" x="0px" y="0px"
	 viewBox="0 0 234.1 173.9" style="enable-background:new 0 0 234.1 173.9;" xml:space="preserve">
<style type="text/css">
	.st0{fill:#FFFFFF;}
	.st1{fill:#99CA3C;}
	.st2{fill:#FFFFFF;stroke:#99CA3C;stroke-miterlimit:10;}
</style>
</g>
<g id="camera">
	<g>
		<path class="st0" d="M233.6,46.4v105.3c0,12-9.8,21.8-21.8,21.8H22.3c-12,0-21.8-9.8-21.8-21.8V46.4c0-12,9.8-21.8,21.8-21.8h2.7
			v-3.8c0-2.5,2.1-4.6,4.6-4.6H62c2.5,0,4.6,2.1,4.6,4.6v3.8h29.3l2-10.9c1.5-8.4,5.9-13.1,13.1-13.1h73.3c7.2,0,11.3,4.4,13.1,13.1
			l2.1,10.9h12.3C223.9,24.6,233.6,34.3,233.6,46.4z"/>
		<path class="st1" d="M211.8,173.9H22.3C10,173.9,0,163.9,0,151.6V46.4c0-12.3,10-22.3,22.3-22.3h2.2v-3.3c0-2.8,2.3-5.1,5.1-5.1
			H62c2.8,0,5.1,2.3,5.1,5.1v3.3h28.4l2-10.5C99,4.7,103.7,0,111,0h73.3c7.4,0,11.7,4.3,13.6,13.5l2,10.5h11.9
			c12.3,0,22.3,10,22.3,22.3v105.3C234.1,163.9,224.1,173.9,211.8,173.9z M22.3,25.1C10.5,25.1,1,34.6,1,46.4v105.3
			c0,11.7,9.5,21.3,21.3,21.3h189.6c11.7,0,21.3-9.5,21.3-21.3V46.4c0-11.7-9.5-21.3-21.3-21.3h-12.7L197,13.7
			C195.2,5,191.2,1,184.4,1H111c-6.8,0-11.2,4.4-12.6,12.7l-2.1,11.4H66v-4.3c0-2.2-1.8-4.1-4.1-4.1H29.5c-2.2,0-4.1,1.8-4.1,4.1
			v4.3H22.3z"/>
	</g>
	<g>
		<rect x="0.5" y="52.7" class="st0" width="233.1" height="81.7"/>
		<path class="st1" d="M234.1,134.9H0V52.2h234.1V134.9z M1,133.9h232.1V53.2H1V133.9z"/>
	</g>
	<g>
		<circle class="st0" cx="150.4" cy="92.7" r="51.4"/>
		<path class="st1" d="M150.4,144.7c-28.6,0-51.9-23.3-51.9-51.9s23.3-51.9,51.9-51.9s51.9,23.3,51.9,51.9S179,144.7,150.4,144.7z
			 M150.4,41.8c-28.1,0-50.9,22.9-50.9,50.9s22.9,50.9,50.9,50.9s50.9-22.9,50.9-50.9S178.5,41.8,150.4,41.8z"/>
	</g>
	<g>
		<circle class="st0" cx="150.4" cy="92.7" r="40.3"/>
		<path class="st1" d="M150.4,133.5c-22.5,0-40.8-18.3-40.8-40.8s18.3-40.8,40.8-40.8s40.8,18.3,40.8,40.8S172.9,133.5,150.4,133.5z
			 M150.4,52.9c-22,0-39.8,17.9-39.8,39.8s17.9,39.8,39.8,39.8c22,0,39.8-17.9,39.8-39.8S172.3,52.9,150.4,52.9z"/>
	</g>
	<g>
		<circle class="st0" cx="27.1" cy="38.4" r="5.8"/>
		<path class="st1" d="M27.1,44.8c-3.5,0-6.3-2.8-6.3-6.3c0-3.5,2.8-6.3,6.3-6.3s6.3,2.8,6.3,6.3C33.5,41.9,30.6,44.8,27.1,44.8z
			 M27.1,33.1c-2.9,0-5.3,2.4-5.3,5.3s2.4,5.3,5.3,5.3s5.3-2.4,5.3-5.3S30.1,33.1,27.1,33.1z"/>
	</g>
	<g>
		<path class="st0" d="M166.6,20.6h-32.4c-2.1,0-3.9-1.7-3.9-3.9v-5c0-2.1,1.7-3.9,3.9-3.9h32.4c2.1,0,3.9,1.7,3.9,3.9v5
			C170.4,18.8,168.7,20.6,166.6,20.6z"/>
		<path class="st1" d="M166.6,21.1h-32.4c-2.4,0-4.4-2-4.4-4.4v-5c0-2.4,2-4.4,4.4-4.4h32.4c2.4,0,4.4,2,4.4,4.4v5
			C170.9,19.1,169,21.1,166.6,21.1z M134.2,8.3c-1.9,0-3.4,1.5-3.4,3.4v5c0,1.9,1.5,3.4,3.4,3.4h32.4c1.9,0,3.4-1.5,3.4-3.4v-5
			c0-1.9-1.5-3.4-3.4-3.4H134.2z"/>
	</g>
</g>
</svg>
