<?xml version="1.0" encoding="utf-8"?>
<!-- Generator: Adobe Illustrator 22.1.0, SVG Export Plug-In . SVG Version: 6.00 Build 0)  -->
<svg version="1.1" xmlns="http://www.w3.org/2000/svg" xmlns:xlink="http://www.w3.org/1999/xlink" x="0px" y="0px"
	 viewBox="0 0 178.5 228.2" style="enable-background:new 0 0 178.5 228.2;" xml:space="preserve">
<style type="text/css">
	.st0{fill:#FFFFFF;}
	.st1{fill:#99CA3C;}
	.st2{fill:#FFFFFF;stroke:#99CA3C;stroke-miterlimit:10;}
</style>
<g id="checklist">
	<g>
		
			<rect x="13.5" y="9.5" transform="matrix(0.9916 0.1295 -0.1295 0.9916 15.5222 -10.5959)" class="st0" width="151.6" height="209.2"/>
		<path class="st1" d="M151.3,228.2l-0.5-0.1L0,208.4l0.1-0.5L27.2,0l0.5,0.1l150.8,19.7l-0.1,0.5L151.3,228.2z M1.1,207.5
			L150.4,227l27-206.4L28.1,1.1L1.1,207.5z"/>
	</g>
	<g>
		<path class="st0" d="M73.3,41.3l-4.3,33l-35.1-4.6L40,22.6l34.6,4.5C68.2,34.4,62,42,56,49.8c-2.4-2.1-4.7-4.2-7.1-6.2
			c-3.9-3.5-9.8,2.2-5.9,5.7c3.5,3.1,7.1,6.3,10.6,9.4c2.1,1.9,4.8,1.5,6.4-0.7C64.4,52.3,68.7,46.7,73.3,41.3z"/>
		<path class="st1" d="M69.4,74.8l-36.1-4.7L39.6,22l36,4.7L75,27.4c-6.4,7.3-12.7,14.9-18.6,22.7l-0.3,0.4l-3.5-3
			c-1.3-1.2-2.7-2.4-4-3.6c-1.4-1.2-2.9-1-3.6-0.8c-1.4,0.5-2.4,1.6-2.7,2.9c-0.1,0.7-0.1,1.8,1.1,2.8c3.5,3.1,7,6.2,10.4,9.2
			l0.2,0.2c0.9,0.8,1.9,1.2,3,1.1c1-0.1,2-0.7,2.8-1.7c4.2-5.6,8.6-11.3,13.1-16.7l1.1-1.3L69.4,74.8z M34.5,69.2l34.1,4.4l4-30.8
			c-4.1,5-8.2,10.2-12,15.3c-0.9,1.2-2.1,2-3.5,2.1c-1.3,0.1-2.6-0.3-3.7-1.3l-0.2-0.2c-3.5-3.1-7-6.1-10.4-9.2
			c-1.2-1-1.7-2.4-1.4-3.8c0.3-1.6,1.7-3,3.3-3.6c1.6-0.5,3.3-0.2,4.6,1c1.3,1.2,2.7,2.4,4,3.6l2.6,2.3c5.6-7.4,11.6-14.7,17.7-21.7
			l-33.2-4.3L34.5,69.2z"/>
	</g>
	<g>
		
			<rect x="29.1" y="83.4" transform="matrix(0.9916 0.1295 -0.1295 0.9916 14.268 -5.1619)" class="st0" width="35.4" height="47.5"/>
		<path class="st1" d="M61.7,133.5l-36.1-4.7l6.3-48.1L68,85.5L61.7,133.5z M26.8,128l34.1,4.4l6-46.1l-34.1-4.4L26.8,128z"/>
	</g>
	<g>
		
			<rect x="20.6" y="149.1" transform="matrix(0.9916 0.1295 -0.1295 0.9916 22.7072 -3.4972)" class="st0" width="35.4" height="47.5"/>
		<path class="st1" d="M53.1,199.3l-36.1-4.7l6.3-48.1l36.1,4.7L53.1,199.3z M18.2,193.7l34.1,4.4l6-46.1l-34.1-4.4L18.2,193.7z"/>
	</g>
	<g>
		<line class="st0" x1="82.5" y1="37.3" x2="132.6" y2="43.8"/>
		<rect x="107" y="15.3" transform="matrix(0.1295 -0.9916 0.9916 0.1295 53.385 141.8924)" class="st1" width="1" height="50.5"/>
	</g>
	<g>
		<line class="st0" x1="80.8" y1="49.8" x2="150.5" y2="58.9"/>
		
			<rect x="115.1" y="19.2" transform="matrix(0.1295 -0.9916 0.9916 0.1295 46.7821 161.9722)" class="st1" width="1" height="70.2"/>
	</g>
	<g>
		<line class="st0" x1="79.7" y1="58.1" x2="149.4" y2="67.2"/>
		
			<rect x="114.1" y="27.5" transform="matrix(0.1295 -0.9916 0.9916 0.1295 37.6441 168.0964)" class="st1" width="1" height="70.2"/>
	</g>
	<g>
		<line class="st0" x1="78.7" y1="66.3" x2="148.3" y2="75.4"/>
		<rect x="113" y="35.8" transform="matrix(0.1295 -0.9916 0.9916 0.1295 28.5075 174.2222)" class="st1" width="1" height="70.2"/>
	</g>
	<g>
		<line class="st0" x1="74.7" y1="96.4" x2="124.8" y2="102.9"/>
		
			<rect x="99.3" y="74.4" transform="matrix(0.1295 -0.9916 0.9916 0.1295 -11.9566 185.7019)" class="st1" width="1" height="50.5"/>
	</g>
	<g>
		<line class="st0" x1="73.1" y1="108.9" x2="142.7" y2="118"/>
		
			<rect x="107.4" y="78.3" transform="matrix(0.1295 -0.9916 0.9916 0.1295 -18.5597 205.7822)" class="st1" width="1" height="70.2"/>
	</g>
	<g>
		<line class="st0" x1="72" y1="117.2" x2="141.7" y2="126.3"/>
		
			<rect x="106.3" y="86.6" transform="matrix(0.1295 -0.9916 0.9916 0.1295 -27.6974 211.9055)" class="st1" width="1" height="70.2"/>
	</g>
	<g>
		<line class="st0" x1="70.9" y1="125.4" x2="140.6" y2="134.5"/>
		
			<rect x="105.3" y="94.9" transform="matrix(0.1295 -0.9916 0.9916 0.1295 -36.8341 218.0314)" class="st1" width="1" height="70.2"/>
	</g>
	<g>
		<line class="st0" x1="66.3" y1="161" x2="116.4" y2="167.6"/>
		
			<rect x="90.8" y="139" transform="matrix(0.1295 -0.9916 0.9916 0.1295 -83.3891 233.5949)" class="st1" width="1" height="50.5"/>
	</g>
	<g>
		<line class="st0" x1="64.7" y1="173.5" x2="134.3" y2="182.6"/>
		<rect x="99" y="143" transform="matrix(0.1295 -0.9916 0.9916 0.1295 -89.9923 253.6758)" class="st1" width="1" height="70.2"/>
	</g>
	<g>
		<line class="st0" x1="63.6" y1="181.8" x2="133.2" y2="190.9"/>
		
			<rect x="97.9" y="151.2" transform="matrix(0.1295 -0.9916 0.9916 0.1295 -99.1298 259.7981)" class="st1" width="1" height="70.2"/>
	</g>
	<g>
		<line class="st0" x1="62.5" y1="190.1" x2="132.1" y2="199.2"/>
		
			<rect x="96.8" y="159.5" transform="matrix(0.1295 -0.9916 0.9916 0.1295 -108.2665 265.9242)" class="st1" width="1" height="70.2"/>
	</g>
	<g>
		<g>
			<path class="st0" d="M86.5,26.2c-4.5,4.9-8.9,10-13.2,15.1c-4.5,5.4-8.9,11-13.1,16.7c-1.6,2.2-4.4,2.6-6.4,0.7
				c-3.6-3.1-7.1-6.2-10.6-9.4c-4-3.5,1.9-9.2,5.9-5.7c2.4,2.1,4.7,4.2,7.1,6.2C62,42,68.2,34.4,74.6,27.1c2-2.3,4.1-4.6,6.1-6.8
				C84.3,16.4,90,22.3,86.5,26.2z"/>
			<path class="st1" d="M56.7,60.4c-1.2,0-2.3-0.5-3.3-1.3l-0.2-0.2c-3.5-3.1-7-6.1-10.4-9.2c-1.2-1-1.7-2.4-1.4-3.8
				c0.3-1.6,1.7-3,3.3-3.6c1.6-0.5,3.3-0.2,4.6,1c1.3,1.2,2.7,2.4,4,3.6l2.6,2.3c5.8-7.7,12-15.2,18.3-22.4c1.9-2.1,3.9-4.4,6.1-6.8
				c1.1-1.2,2.5-1.7,3.9-1.3c1.6,0.4,3.1,1.7,3.6,3.4c0.5,1.6,0.1,3.2-1,4.5c-4.6,5-9,10.1-13.2,15.1c-4.5,5.5-8.9,11.1-13.1,16.7
				c-0.9,1.2-2.1,2-3.5,2.1C57,60.4,56.8,60.4,56.7,60.4z M46.2,43c-0.5,0-0.9,0.1-1.2,0.2c-1.4,0.5-2.4,1.6-2.7,2.9
				c-0.1,0.7-0.1,1.8,1.1,2.8c3.5,3.1,7,6.2,10.4,9.2l0.2,0.2c0.9,0.8,1.9,1.2,3,1.1c1-0.1,2-0.7,2.8-1.7
				c4.2-5.6,8.6-11.3,13.1-16.7c4.1-5,8.6-10.1,13.2-15.1h0c0.9-1,1.2-2.2,0.8-3.5c-0.4-1.4-1.6-2.5-2.9-2.7c-0.8-0.2-1.9-0.1-3,1
				c-2.2,2.4-4.2,4.7-6.1,6.8c-6.4,7.3-12.7,14.9-18.6,22.7l-0.3,0.4l-3.5-3c-1.3-1.2-2.7-2.4-4-3.6C47.8,43.2,46.9,43,46.2,43z"/>
		</g>
	</g>
</g>
</svg>
