<?xml version="1.0" encoding="utf-8"?>
<!-- Generator: Adobe Illustrator 22.1.0, SVG Export Plug-In . SVG Version: 6.00 Build 0)  -->
<svg version="1.1" xmlns="http://www.w3.org/2000/svg" xmlns:xlink="http://www.w3.org/1999/xlink" x="0px" y="0px"
	 viewBox="0 0 305.2 127" style="enable-background:new 0 0 305.2 127;" xml:space="preserve">
<style type="text/css">
	.st0{fill:#FFFFFF;}
	.st1{fill:#99CA3C;}
	.st2{fill:#FFFFFF;stroke:#99CA3C;stroke-miterlimit:10;}
</style>
<g id="class">
	<g>
		<g>
			<path class="st0" d="M194.1,33.1h-84.1c-1.3,0-2.3-1-2.3-2.3V3.3c0-1.3,1-2.3,2.3-2.3h84.1c1.3,0,2.3,1,2.3,2.3v27.4
				C196.4,32,195.4,33.1,194.1,33.1z"/>
			<path class="st1" d="M194.1,34.1h-84.1c-1.8,0-3.3-1.5-3.3-3.3V3.3c0-1.8,1.5-3.3,3.3-3.3h84.1c1.8,0,3.3,1.5,3.3,3.3v27.4
				C197.4,32.6,195.9,34.1,194.1,34.1z M110.1,2c-0.7,0-1.3,0.6-1.3,1.3v27.4c0,0.7,0.6,1.3,1.3,1.3h84.1c0.7,0,1.3-0.6,1.3-1.3V3.3
				c0-0.7-0.6-1.3-1.3-1.3H110.1z"/>
		</g>
		<g>
			<g>
				<path class="st0" d="M136.8,79.5H52.8c-1.3,0-2.3-1-2.3-2.3V49.8c0-1.3,1-2.3,2.3-2.3h84.1c1.3,0,2.3,1,2.3,2.3v27.4
					C139.1,78.5,138.1,79.5,136.8,79.5z"/>
				<path class="st1" d="M136.8,80.5H52.8c-1.8,0-3.3-1.5-3.3-3.3V49.8c0-1.8,1.5-3.3,3.3-3.3h84.1c1.8,0,3.3,1.5,3.3,3.3v27.4
					C140.1,79,138.6,80.5,136.8,80.5z M52.8,48.5c-0.7,0-1.3,0.6-1.3,1.3v27.4c0,0.7,0.6,1.3,1.3,1.3h84.1c0.7,0,1.3-0.6,1.3-1.3
					V49.8c0-0.7-0.6-1.3-1.3-1.3H52.8z"/>
			</g>
			<g>
				<path class="st0" d="M251.4,79.5h-84.1c-1.3,0-2.3-1-2.3-2.3V49.8c0-1.3,1-2.3,2.3-2.3h84.1c1.3,0,2.3,1,2.3,2.3v27.4
					C253.7,78.5,252.7,79.5,251.4,79.5z"/>
				<path class="st1" d="M251.4,80.5h-84.1c-1.8,0-3.3-1.5-3.3-3.3V49.8c0-1.8,1.5-3.3,3.3-3.3h84.1c1.8,0,3.3,1.5,3.3,3.3v27.4
					C254.7,79,253.3,80.5,251.4,80.5z M167.4,48.5c-0.7,0-1.3,0.6-1.3,1.3v27.4c0,0.7,0.6,1.3,1.3,1.3h84.1c0.7,0,1.3-0.6,1.3-1.3
					V49.8c0-0.7-0.6-1.3-1.3-1.3H167.4z"/>
			</g>
		</g>
		<g>
			<g>
				<path class="st0" d="M87.4,126H3.3C2,126,1,125,1,123.7V96.3c0-1.3,1-2.3,2.3-2.3h84.1c1.3,0,2.3,1,2.3,2.3v27.4
					C89.7,125,88.6,126,87.4,126z"/>
				<path class="st1" d="M87.4,127H3.3c-1.8,0-3.3-1.5-3.3-3.3V96.3c0-1.8,1.5-3.3,3.3-3.3h84.1c1.8,0,3.3,1.5,3.3,3.3v27.4
					C90.7,125.5,89.2,127,87.4,127z M3.3,94.9c-0.7,0-1.3,0.6-1.3,1.3v27.4c0,0.7,0.6,1.3,1.3,1.3h84.1c0.7,0,1.3-0.6,1.3-1.3V96.3
					c0-0.7-0.6-1.3-1.3-1.3H3.3z"/>
			</g>
			<g>
				<path class="st0" d="M301.9,126h-84.1c-1.3,0-2.3-1-2.3-2.3V96.3c0-1.3,1-2.3,2.3-2.3h84.1c1.3,0,2.3,1,2.3,2.3v27.4
					C304.2,125,303.2,126,301.9,126z"/>
				<path class="st1" d="M301.9,127h-84.1c-1.8,0-3.3-1.5-3.3-3.3V96.3c0-1.8,1.5-3.3,3.3-3.3h84.1c1.8,0,3.3,1.5,3.3,3.3v27.4
					C305.2,125.5,303.7,127,301.9,127z M217.8,94.9c-0.7,0-1.3,0.6-1.3,1.3v27.4c0,0.7,0.6,1.3,1.3,1.3h84.1c0.7,0,1.3-0.6,1.3-1.3
					V96.3c0-0.7-0.6-1.3-1.3-1.3H217.8z"/>
			</g>
			<g>
				<path class="st0" d="M201,126h-84.1c-1.3,0-2.3-1-2.3-2.3V96.3c0-1.3,1-2.3,2.3-2.3H201c1.3,0,2.3,1,2.3,2.3v27.4
					C203.3,125,202.3,126,201,126z"/>
				<path class="st1" d="M201,127h-84.1c-1.8,0-3.3-1.5-3.3-3.3V96.3c0-1.8,1.5-3.3,3.3-3.3H201c1.8,0,3.3,1.5,3.3,3.3v27.4
					C204.3,125.5,202.8,127,201,127z M116.9,94.9c-0.7,0-1.3,0.6-1.3,1.3v27.4c0,0.7,0.6,1.3,1.3,1.3H201c0.7,0,1.3-0.6,1.3-1.3
					V96.3c0-0.7-0.6-1.3-1.3-1.3H116.9z"/>
			</g>
		</g>
		<g>
			<polyline class="st0" points="86.4,46.9 86.4,16 107.6,16 			"/>
			<polygon class="st1" points="87.4,46.9 85.4,46.9 85.4,15 107.6,15 107.6,17 87.4,17 			"/>
		</g>
		<g>
			<polyline class="st0" points="196.8,16 217.8,16 217.8,46.9 			"/>
			<polygon class="st1" points="218.8,46.9 216.8,46.9 216.8,17 196.8,17 196.8,15 218.8,15 			"/>
		</g>
		<g>
			<polyline class="st0" points="29.9,93.7 29.9,65.4 50.5,65.4 			"/>
			<polygon class="st1" points="30.9,93.7 28.9,93.7 28.9,64.4 50.5,64.4 50.5,66.4 30.9,66.4 			"/>
		</g>
		<g>
			<polyline class="st0" points="254,65.4 274.3,65.4 274.3,93.9 			"/>
			<polygon class="st1" points="275.3,93.9 273.3,93.9 273.3,66.4 254,66.4 254,64.4 275.3,64.4 			"/>
		</g>
		<g>
			<rect x="176.1" y="79" class="st1" width="2" height="15"/>
		</g>
	</g>
</g>
</svg>
