<?xml version="1.0" encoding="utf-8"?>
<!-- Generator: Adobe Illustrator 22.1.0, SVG Export Plug-In . SVG Version: 6.00 Build 0)  -->
<svg version="1.1" xmlns="http://www.w3.org/2000/svg" xmlns:xlink="http://www.w3.org/1999/xlink" x="0px" y="0px"
	 viewBox="0 0 239.7 212.4" style="enable-background:new 0 0 239.7 212.4;" xml:space="preserve">
<style type="text/css">
	.st0{fill:#FFFFFF;}
	.st1{fill:#99CA3C;}
	.st2{fill:#FFFFFF;stroke:#99CA3C;stroke-miterlimit:10;}
</style>
<g id="Layer_1">
</g>
<g id="class">
</g>
<g id="a2z">
</g>
<g id="habitat">
</g>
<g id="email">
</g>
<g id="stroller">
</g>
<g id="camera">
</g>
<g id="eat">
</g>
<g id="discount">
	<g>
		<rect x="42" y="74.4" class="st0" width="197.2" height="137.5"/>
		<path class="st1" d="M239.7,212.4H41.5V73.9h198.2V212.4z M42.5,211.4h196.2V74.9H42.5V211.4z"/>
	</g>
	<g>
		<rect x="49.9" y="81.4" class="st0" width="182.7" height="123.3"/>
		<path class="st1" d="M233.1,205.2H49.4V80.9h183.7V205.2z M50.4,204.2h181.7V81.9H50.4V204.2z"/>
	</g>
	<g>
		<g>
			<path class="st0" d="M73.9,172.5c0.5-3.5,1-8,1.3-13.6H78l0.1,5.8c0,0.7,0.1,1.6,0.1,2.6c2.2,2.1,4.3,3.6,6.3,4.4
				c2,0.8,4.3,1.2,6.9,1.2v-25.3c-4.6-0.6-7.8-1.2-9.6-1.9c-2.4-0.9-4.3-2.4-5.7-4.4c-1.4-2-2.2-4.7-2.2-8.2c0-5.1,1.5-9.4,4.4-12.8
				c3-3.4,7.3-5.5,13-6.5c0-2.8-0.1-4.9-0.2-6.1h4.1c-0.1,0.8-0.1,2.7-0.2,5.9c4,0.4,7.2,0.9,9.5,1.5c2.3,0.6,4.1,1.4,5.4,2.2
				l0.2,0.6c-0.4,1.3-0.6,2.6-0.8,3.9l-0.6,7.3h-2.5c-0.1-2.9-0.3-5.5-0.8-7.8c-1.3-1.4-2.8-2.4-4.4-3.1c-1.7-0.7-3.7-1.1-6.1-1.2
				v23.7c5.5,0.7,9.4,1.5,11.8,2.5c2.3,1,4.2,2.5,5.4,4.6c1.3,2.1,1.9,4.7,1.9,7.8c0,3.4-0.8,6.7-2.3,9.7s-3.6,5.4-6.2,7.1
				c-2.6,1.7-6.2,3-10.6,3.9c0.1,4.3,0.1,7.4,0.3,9.3h-4.2c0.1-0.8,0.1-3.8,0.2-9.1c-3.6-0.1-6.7-0.5-9.3-1.1
				C79.5,174.7,76.7,173.8,73.9,172.5z M91.4,117.1c-2.8,0.3-4.9,1.2-6.6,2.7c-2.6,2.3-3.9,5.6-3.9,10c0,3.5,1,6.1,3,7.7
				c2,1.6,4.5,2.5,7.5,2.7V117.1z M95.1,172.6c2.2-0.1,4-0.6,5.6-1.6c2.2-1.3,3.7-3,4.8-5.2c1-2.2,1.5-4.5,1.5-7
				c0-3.6-1.1-6.2-3.4-8c-1.6-1.3-4.5-2.2-8.5-2.9V172.6z"/>
			<path class="st1" d="M95.9,186h-5.3l0-0.5c0.1-0.8,0.1-3.7,0.2-8.6c-3.4-0.1-6.4-0.5-8.9-1c-2.6-0.6-5.4-1.5-8.3-2.8l-0.3-0.2
				l0.1-0.4c0.5-3.4,1-8,1.3-13.5l0-0.5h3.7l0.1,6.3c0,0.7,0.1,1.5,0.1,2.4c2.1,2,4.1,3.4,6,4.2c1.8,0.8,3.9,1.1,6.2,1.2V148
				c-4.4-0.6-7.5-1.2-9.3-1.9c-2.5-1-4.5-2.5-6-4.6c-1.5-2.1-2.2-4.9-2.2-8.5c0-5.2,1.5-9.7,4.6-13.1c3-3.4,7.3-5.6,12.9-6.5
				c0-2.6-0.1-4.5-0.2-5.6l0-0.5h5.2l-0.1,0.6c-0.1,0.7-0.1,2.5-0.2,5.4c3.8,0.4,6.9,0.8,9.1,1.5c2.4,0.6,4.2,1.4,5.6,2.3l0.1,0.1
				l0.3,0.9l0,0.2c-0.4,1.3-0.6,2.6-0.7,3.8l-0.6,7.7h-3.5l0-0.5c-0.1-2.8-0.3-5.3-0.7-7.5c-1.2-1.3-2.6-2.2-4.1-2.9
				c-1.5-0.6-3.3-1-5.4-1.1v22.7c5.3,0.7,9.1,1.5,11.5,2.5c2.4,1,4.3,2.6,5.7,4.8c1.3,2.1,2,4.9,2,8c0,3.5-0.8,6.8-2.3,9.9
				c-1.6,3.1-3.7,5.6-6.4,7.3c-2.6,1.7-6.1,3-10.4,3.9c0.1,4,0.1,7,0.3,8.8L95.9,186z M91.7,185h3.2c-0.1-1.9-0.2-4.9-0.2-8.8l0-0.4
				l0.4-0.1c4.4-0.9,7.9-2.2,10.5-3.9c2.5-1.7,4.6-4,6.1-6.9c1.5-2.9,2.2-6.1,2.2-9.5c0-3-0.6-5.5-1.9-7.5c-1.2-2-3-3.4-5.2-4.4
				c-2.3-1-6.2-1.8-11.6-2.5l-0.4-0.1v-24.6l0.5,0c2.5,0.1,4.6,0.5,6.3,1.2c1.7,0.7,3.3,1.8,4.6,3.3l0.1,0.1l0,0.1
				c0.4,2.2,0.7,4.6,0.8,7.3h1.6l0.5-6.8c0.1-1.2,0.4-2.5,0.7-3.8l-0.1-0.3c-1.2-0.8-3-1.5-5.1-2c-2.3-0.6-5.5-1.1-9.4-1.5l-0.5,0
				l0-0.5c0-2.6,0.1-4.4,0.1-5.4h-3c0.1,1.2,0.1,3.1,0.1,5.5l0,0.4l-0.4,0.1c-5.6,0.9-9.9,3-12.8,6.3c-2.9,3.3-4.3,7.5-4.3,12.4
				c0,3.3,0.7,6,2.1,7.9c1.4,1.9,3.2,3.3,5.5,4.2c1.8,0.7,5,1.3,9.5,1.9l0.4,0.1v26.3l-0.5,0c-2.6,0-5-0.4-7.1-1.3
				c-2-0.9-4.2-2.4-6.4-4.5l-0.1-0.1l0-0.2c-0.1-1-0.1-1.9-0.1-2.6l-0.1-5.3h-1.8c-0.4,5.2-0.8,9.5-1.3,12.8
				c2.7,1.2,5.3,2.1,7.7,2.6c2.5,0.6,5.6,0.9,9.2,1l0.5,0l0,0.5C91.8,180.8,91.8,183.7,91.7,185z M94.6,173.2v-25.7l0.6,0.1
				c4.2,0.7,7,1.7,8.7,3c2.4,1.9,3.6,4.7,3.6,8.4c0,2.5-0.5,5-1.6,7.2c-1.1,2.3-2.7,4.1-5,5.4c-1.6,1-3.6,1.5-5.8,1.6L94.6,173.2z
				 M95.6,148.6v23.5c1.8-0.1,3.5-0.6,4.8-1.5c2.1-1.2,3.6-2.9,4.6-5c1-2.1,1.5-4.4,1.5-6.8c0-3.4-1.1-6-3.2-7.6
				C101.8,150.2,99.3,149.3,95.6,148.6z M91.9,140.6l-0.5,0c-3.1-0.2-5.7-1.1-7.8-2.8c-2.1-1.7-3.1-4.4-3.1-8.1
				c0-4.4,1.4-7.9,4-10.3c1.7-1.6,4-2.5,6.9-2.8l0.6-0.1V140.6z M90.9,117.7c-2.4,0.3-4.3,1.2-5.8,2.5c-2.5,2.2-3.7,5.4-3.7,9.6
				c0,3.4,0.9,5.8,2.8,7.3c1.8,1.4,4,2.3,6.7,2.5V117.7z"/>
		</g>
	</g>
	<g>
		<rect x="119.8" y="125.7" class="st1" width="92.4" height="1"/>
	</g>
	<g>
		<rect x="119.8" y="137.2" class="st1" width="92.4" height="1"/>
	</g>
	<g>
		<rect x="119.8" y="148.6" class="st1" width="92.4" height="1"/>
	</g>
	<g>
		<rect x="119.8" y="160.1" class="st1" width="92.4" height="1"/>
	</g>
	<g>
		<g>
			<g>
				<path class="st0" d="M69.4,15.5l-17-11.1c-11-7.2-25.9-4.1-33.1,6.9L16,16.4c-7.2,11-4.1,25.9,6.9,33.1l17.9,11.7l30.3-0.7
					l-2.7-1.7c1.7-1.4,3.2-3.1,4.5-5.1l3.4-5.1C83.5,37.6,80.4,22.7,69.4,15.5z M66.9,45.6c-4.9,7.6-15.2,9.7-22.8,4.8l-12.2-8
					c-4.8-3.1-7.4-8.4-7.4-13.8c0-3.1,0.9-6.2,2.7-9c5-7.6,15.2-9.7,22.8-4.8l12.2,8c4.8,3.1,7.4,8.4,7.4,13.8
					C69.6,39.8,68.7,42.9,66.9,45.6z"/>
				<path class="st1" d="M40.7,61.7l-0.1-0.1L22.7,49.9c-11.3-7.4-14.4-22.5-7.1-33.8l3.4-5.1C26.3-0.2,41.5-3.4,52.7,4l17,11.1
					c11.3,7.4,14.4,22.5,7.1,33.8L73.4,54c-1.2,1.8-2.5,3.4-4.1,4.8l3.5,2.2L40.7,61.7z M39.4,1c-7.6,0-15.1,3.7-19.6,10.6l-3.4,5.1
					c-7.1,10.8-4,25.3,6.8,32.4L41,60.7L69.5,60l-1.8-1.2l0.5-0.4c1.7-1.4,3.2-3.1,4.4-5l3.4-5.1c7.1-10.8,4-25.3-6.8-32.4l-17-11.1
					C48.2,2.2,43.8,1,39.4,1z M53.1,53.6c-3.2,0-6.4-0.9-9.2-2.8l-12.2-8c-4.8-3.1-7.7-8.5-7.7-14.2c0-3.3,1-6.5,2.7-9.2
					c5.1-7.8,15.6-10,23.5-4.9l12.2,8c4.8,3.1,7.7,8.5,7.7,14.2c0,3.3-1,6.5-2.7,9.2l0,0C64.1,50.9,58.7,53.6,53.1,53.6z M41.1,12.8
					c-1.1,0-2.2,0.1-3.3,0.3C33.5,14,30,16.4,27.6,20c-1.7,2.6-2.6,5.6-2.6,8.7c0,5.4,2.7,10.4,7.2,13.4l12.2,8
					c7.4,4.8,17.3,2.7,22.1-4.6l0,0c1.7-2.6,2.6-5.6,2.6-8.7c0-5.4-2.7-10.4-7.2-13.4l-12.2-8C47.1,13.6,44.1,12.8,41.1,12.8z"/>
			</g>
			<g>
				<path class="st0" d="M81.7,89.4l88,56.8c7.9,5.2,18.6,2.9,23.7-5l-80.3-51.7L81.7,89.4z"/>
				<path class="st1" d="M179.1,149.5c-3.4,0-6.7-1-9.6-2.9L80,88.9l33.3,0.1l0.1,0.1l80.7,52l-0.3,0.4c-2.6,3.9-6.5,6.6-11.2,7.6
					C181.5,149.4,180.3,149.5,179.1,149.5z M83.4,89.9l86.6,55.9c3.7,2.4,8.2,3.3,12.5,2.3c4.2-0.9,7.8-3.3,10.3-6.8L113.1,90
					L83.4,89.9z"/>
			</g>
		</g>
		<g>
			<path class="st0" d="M214.7,83.3c0-9.4-7.7-17.2-17.2-17.1L24.4,66.3c-13.1,0-23.9,10.8-23.9,23.9v6.1
				c0,13.1,10.8,23.9,23.9,23.9l20.3,0c13.1,0,23.9-10.8,23.9-23.9v-6.1c0-2.3-0.3-4.6-1-6.7L214.7,83.3z M59.1,93.6
				c0,9-7.4,16.4-16.4,16.4l-14.5,0c-9.1,0-16.5-7.4-16.5-16.4c0,0,0,0,0,0c0-9,7.4-16.4,16.4-16.4l14.5,0
				C51.7,77.1,59.1,84.5,59.1,93.6C59.1,93.6,59.1,93.6,59.1,93.6z"/>
			<path class="st1" d="M24.4,120.7c-6.5,0-12.6-2.5-17.2-7.1C2.6,108.9,0,102.8,0,96.3v-6.1C0,83.7,2.5,77.6,7.1,73
				c4.6-4.6,10.7-7.2,17.2-7.2l173.2-0.2c0,0,0,0,0,0c4.7,0,9.1,1.8,12.5,5.2c3.3,3.3,5.2,7.8,5.2,12.5v0.5h-0.5L68.2,83.9
				c0.5,2,0.8,4.1,0.8,6.2v6.1c0,6.5-2.5,12.6-7.1,17.2c-4.6,4.6-10.7,7.2-17.2,7.2L24.4,120.7C24.4,120.7,24.4,120.7,24.4,120.7z
				 M197.6,66.6C197.6,66.6,197.6,66.6,197.6,66.6L24.4,66.8c-6.2,0-12.1,2.5-16.5,6.9C3.4,78.1,1,84,1,90.2v6.1
				c0,6.2,2.5,12.1,6.9,16.5c4.4,4.4,10.3,6.9,16.5,6.9c0,0,0,0,0,0l20.3,0c6.2,0,12.1-2.5,16.5-6.9c4.4-4.4,6.9-10.3,6.9-16.5v-6.1
				c0-2.2-0.3-4.5-1-6.6l-0.2-0.6l0.7,0l146.7-0.1c-0.1-4.2-1.9-8.2-4.9-11.3C206.2,68.4,202,66.6,197.6,66.6z M28.1,110.5
				c-9.4,0-17-7.6-17-16.9c0-9.3,7.6-16.9,16.9-17l14.5,0c0,0,0,0,0,0c4.5,0,8.8,1.8,12,5c3.2,3.2,5,7.5,5,12v0
				c0,9.3-7.6,16.9-16.9,16.9L28.1,110.5z M42.6,77.6C42.6,77.6,42.6,77.6,42.6,77.6l-14.6,0c-8.8,0-15.9,7.2-15.9,15.9
				c0,8.8,7.2,16,16,16l14.5,0c8.8,0,15.9-7.1,15.9-15.9v0c0-4.2-1.7-8.2-4.7-11.2C50.9,79.3,46.9,77.6,42.6,77.6z"/>
		</g>
		<g>
			<circle class="st0" cx="75.7" cy="74.3" r="4.6"/>
			<path class="st1" d="M75.7,79.4c-0.3,0-0.7,0-1.1-0.1c-2.7-0.6-4.5-3.3-3.9-6c0.6-2.7,3.3-4.5,6-3.9c2.7,0.6,4.5,3.3,3.9,6l0,0
				C80.2,77.7,78,79.4,75.7,79.4z M75.7,70.2c-1.9,0-3.6,1.3-4,3.2c-0.5,2.2,1,4.4,3.2,4.8c2.2,0.5,4.4-1,4.8-3.2l0,0
				c0.5-2.2-1-4.4-3.2-4.8C76.2,70.2,76,70.2,75.7,70.2z"/>
		</g>
	</g>
</g>
<g id="arrow">
</g>
<g id="save">
</g>
<g id="social">
</g>
<g id="hotels">
</g>
<g id="checklist">
</g>
<g id="calendar">
</g>
<g id="download">
</g>
<g id="tickets">
</g>
<g id="directions">
</g>
<g id="people">
</g>
<g id="train">
</g>
<g id="keepers">
</g>
<g id="lion">
</g>
</svg>
