<?xml version="1.0" encoding="utf-8"?>
<!-- Generator: Adobe Illustrator 22.1.0, SVG Export Plug-In . SVG Version: 6.00 Build 0)  -->
<svg version="1.1" xmlns="http://www.w3.org/2000/svg" xmlns:xlink="http://www.w3.org/1999/xlink" x="0px" y="0px"
	 viewBox="0 0 178.9 221.5" style="enable-background:new 0 0 178.9 221.5;" xml:space="preserve">
<style type="text/css">
	.st0{fill:#FFFFFF;}
	.st1{fill:#99CA3C;}
	.st2{fill:#FFFFFF;stroke:#99CA3C;stroke-miterlimit:10;}
</style>
<g id="Layer_1">
</g>
<g id="class">
</g>
<g id="a2z">
</g>
<g id="habitat">
</g>
<g id="email">
</g>
<g id="stroller">
</g>
<g id="camera">
</g>
<g id="eat">
</g>
<g id="discount">
</g>
<g id="arrow">
</g>
<g id="save">
</g>
<g id="social">
</g>
<g id="hotels">
</g>
<g id="checklist">
</g>
<g id="calendar">
</g>
<g id="download">
	<g>
		<path class="st0" d="M178.4,43.3v167.8c0,5.4-4.4,9.8-9.8,9.8H10.3c-5.4,0-9.8-4.4-9.8-9.8V10.3c0-5.4,4.4-9.8,9.8-9.8h125.9
			L178.4,43.3z"/>
		<path class="st1" d="M168.5,221.5H10.3c-5.7,0-10.3-4.6-10.3-10.3V10.3C0,4.6,4.6,0,10.3,0h126.1l42.4,43.1v168
			C178.9,216.9,174.2,221.5,168.5,221.5z M10.3,1C5.2,1,1,5.2,1,10.3v200.8c0,5.1,4.2,9.3,9.3,9.3h158.2c5.1,0,9.3-4.2,9.3-9.3V43.5
			L136,1H10.3z"/>
	</g>
	<g>
		<rect x="36.3" y="23.5" class="st0" width="106.3" height="58.2"/>
		<path class="st1" d="M143.1,82.1H35.8V23h107.3V82.1z M36.8,81.1h105.3V24H36.8V81.1z"/>
	</g>
	<g>
		<g>
			<path class="st0" d="M53,36.3c2.1-0.4,4.9-0.6,9-0.6c4.1,0,7,0.8,9,2.4c1.9,1.5,3.1,3.9,3.1,6.8c0,2.9-1,5.3-2.7,7
				C69.1,54,65.8,55,61.8,55c-0.9,0-1.7,0-2.3-0.1v10.6H53V36.3z M59.6,49.7c0.6,0.1,1.3,0.2,2.2,0.2c3.5,0,5.7-1.8,5.7-4.8
				c0-2.7-1.9-4.3-5.2-4.3c-1.4,0-2.3,0.1-2.7,0.3V49.7z"/>
			<path class="st1" d="M60.1,65.9h-7.6V35.8l0.4-0.1c2.4-0.4,5.5-0.6,9.1-0.6c4.2,0,7.2,0.8,9.3,2.5c2.1,1.7,3.3,4.3,3.3,7.2
				c0,3-1,5.6-2.9,7.4c-2.2,2.1-5.7,3.2-9.9,3.2c-0.7,0-1.3,0-1.8-0.1V65.9z M53.5,64.9h5.6V54.3l0.6,0.1c0.6,0.1,1.3,0.1,2.2,0.1
				c4,0,7.2-1,9.2-3c1.6-1.6,2.5-3.9,2.5-6.6c0-2.6-1.1-5-3-6.4c-1.9-1.5-4.7-2.3-8.7-2.3c-3.4,0-6.2,0.2-8.5,0.5V64.9z M61.8,50.4
				c-1.1,0-1.8-0.1-2.3-0.2l-0.4-0.1v-9.5l0.4-0.1c0.7-0.2,1.7-0.3,2.9-0.3c3.6,0,5.7,1.8,5.7,4.8C68,48.3,65.6,50.4,61.8,50.4z
				 M60.1,49.3c0.4,0.1,1,0.1,1.7,0.1c3.3,0,5.2-1.6,5.2-4.3c0-2.5-1.7-3.8-4.7-3.8c-1.1,0-1.8,0.1-2.2,0.2V49.3z"/>
		</g>
		<g>
			<path class="st0" d="M78.3,36.3c2.4-0.4,5.6-0.6,9-0.6c5.6,0,9.2,1,12,3.2c3.1,2.3,5,5.9,5,11.1c0,5.7-2.1,9.6-4.9,12
				c-3.1,2.6-7.8,3.8-13.6,3.8c-3.4,0-5.9-0.2-7.5-0.4V36.3z M85,60.4c0.6,0.1,1.5,0.1,2.3,0.1c6,0,9.9-3.3,9.9-10.3
				c0-6.1-3.5-9.4-9.2-9.4c-1.5,0-2.4,0.1-3,0.3V60.4z"/>
			<path class="st1" d="M85.9,66.2c-2.8,0-5.4-0.1-7.6-0.4l-0.4-0.1V35.8l0.4-0.1c2.5-0.4,5.7-0.6,9.1-0.6c5.6,0,9.4,1,12.3,3.3
				c3.4,2.5,5.2,6.5,5.2,11.5c0,6.6-2.8,10.4-5.1,12.3C96.6,64.9,91.9,66.2,85.9,66.2z M78.8,64.8c2.1,0.3,4.4,0.4,7,0.4
				c5.8,0,10.3-1.3,13.2-3.7c2.1-1.8,4.7-5.3,4.7-11.6c0-4.8-1.6-8.4-4.8-10.7c-2.8-2.1-6.4-3.1-11.7-3.1c-3.1,0-6.1,0.2-8.5,0.5
				V64.8z M87.4,61c0,0-0.1,0-0.1,0c-0.9,0-1.8,0-2.4-0.1l-0.4-0.1V40.6l0.4-0.1c0.5-0.1,1.5-0.3,3.1-0.3c3,0,5.5,0.9,7.2,2.6
				c1.7,1.7,2.6,4.2,2.5,7.3c0,3.5-1,6.3-2.8,8.2C93.1,60.1,90.6,61,87.4,61z M85.5,59.9C86,60,86.8,60,87.4,60
				c2.9,0,5.2-0.8,6.8-2.4c1.7-1.7,2.5-4.2,2.5-7.5c0-2.8-0.7-5-2.3-6.6c-1.5-1.5-3.7-2.3-6.5-2.3c-1.2,0-2,0.1-2.5,0.2V59.9z"/>
		</g>
		<g>
			<path class="st0" d="M108.7,35.9h18v5.5h-11.3v6.7h10.6v5.4h-10.6v11.9h-6.7V35.9z"/>
			<path class="st1" d="M115.8,65.9h-7.7V35.4h19v6.5h-11.3v5.7h10.6V54h-10.6V65.9z M109.2,64.9h5.7V53h10.6v-4.4h-10.6v-7.7h11.3
				v-4.5h-17V64.9z"/>
		</g>
	</g>
	<g>
		<polygon class="st0" points="118,141.7 89.4,191.2 60.8,141.7 75.1,141.7 75.1,97.6 103.8,97.6 103.8,141.7 		"/>
		<path class="st1" d="M89.4,192.2l-29.5-51h14.6V97.1h29.7v44.1h14.6L89.4,192.2z M61.7,142.2l27.7,48l27.7-48h-13.9V98.1H75.6
			v44.1H61.7z"/>
	</g>
</g>
<g id="tickets">
</g>
<g id="directions">
</g>
<g id="people">
</g>
<g id="train">
</g>
<g id="keepers">
</g>
<g id="lion">
</g>
</svg>
