<?xml version="1.0" encoding="utf-8"?>
<!-- Generator: Adobe Illustrator 22.1.0, SVG Export Plug-In . SVG Version: 6.00 Build 0)  -->
<svg version="1.1" xmlns="http://www.w3.org/2000/svg" xmlns:xlink="http://www.w3.org/1999/xlink" x="0px" y="0px"
	 viewBox="0 0 215 243.6" style="enable-background:new 0 0 215 243.6;" xml:space="preserve">
<style type="text/css">
	.st0{fill:#FFFFFF;}
	.st1{fill:#99CA3C;}
	.st2{fill:#FFFFFF;stroke:#99CA3C;stroke-miterlimit:10;}
</style>
<g id="people">
	<g>
		<path class="st0" d="M214.5,128.7v114.4H111V128.7c0-8.2,1.9-15.9,5.3-22.8c4.6-9.2,11.8-16.9,20.7-22.1
			c7.6-4.4,16.4-6.9,25.7-6.9c8.8,0,17.1,2.2,24.4,6.1C203.4,91.8,214.5,109.1,214.5,128.7z"/>
		<path class="st1" d="M215,243.6H110.5V128.7c0-8.1,1.8-15.8,5.4-23c4.6-9.3,11.9-17.1,20.9-22.3c7.9-4.5,16.9-6.9,26-6.9
			c8.6,0,17.1,2.1,24.6,6.2c17.1,9.2,27.7,26.8,27.7,46.1V243.6z M111.5,242.6H214V128.7c0-18.9-10.4-36.2-27.2-45.2
			c-7.4-4-15.7-6.1-24.1-6.1c-8.9,0-17.7,2.4-25.5,6.8c-8.9,5.1-16,12.7-20.5,21.9c-3.5,7.1-5.3,14.7-5.3,22.6V242.6z"/>
	</g>
	<g>
		<path class="st0" d="M110,160.5v82.6H0.5v-82.6c0-19.5,10.4-36.8,25.9-46.4c5.4-3.4,11.5-5.9,18-7.2c3.5-0.7,7.1-1.1,10.8-1.1
			c2.8,0,5.6,0.2,8.3,0.6c5.7,0.9,11.1,2.6,16,5.1c0.8,0.4,1.6,0.8,2.4,1.3c11.9,6.7,21.1,17.8,25.4,31
			C109,149.1,110,154.7,110,160.5z"/>
		<path class="st1" d="M110.5,243.6H0v-83.1c0-19.1,9.8-36.7,26.1-46.9c5.6-3.5,11.7-6,18.2-7.3c6.3-1.3,12.8-1.4,19.3-0.5
			c5.6,0.9,11.1,2.6,16.2,5.2c0.8,0.4,1.6,0.8,2.4,1.3c12.2,6.9,21.3,18,25.6,31.3c1.8,5.4,2.6,11.1,2.6,16.9V243.6z M1,242.6h108.5
			v-82.1c0-5.6-0.9-11.2-2.6-16.5c-4.2-13-13.1-24-25.1-30.7c-0.9-0.5-1.6-0.9-2.4-1.3c-5-2.5-10.4-4.2-15.9-5.1
			c-6.4-1-12.8-0.8-19,0.5c-6.4,1.3-12.4,3.7-17.9,7.1c-16.1,10-25.6,27.2-25.6,46V242.6z"/>
	</g>
	<g>
		<path class="st0" d="M205.7,180.4v62.7h-82.6v-62.7c0-4.7,0.8-9.3,2.3-13.5c4.2-12.2,14-21.8,26.3-25.8h0c4-1.3,8.2-2,12.7-2
			c2.8,0,5.5,0.3,8.1,0.8C191.4,143.7,205.7,160.5,205.7,180.4z"/>
		<path class="st1" d="M206.2,243.6h-83.6v-63.2c0-4.7,0.8-9.3,2.3-13.7c4.3-12.3,14.2-22.1,26.6-26.1l0.1,0c4.1-1.3,8.4-2,12.7-2
			c2.8,0,5.5,0.3,8.2,0.8c19.4,3.9,33.6,21.1,33.6,41V243.6z M123.6,242.6h81.6v-62.2c0-19.3-13.8-36.2-32.8-40
			c-6.8-1.4-14-1-20.5,1.2l-0.1,0c-12.1,3.9-21.8,13.5-25.9,25.5c-1.5,4.3-2.3,8.8-2.3,13.3V242.6z"/>
	</g>
	<g>
		<circle class="st0" cx="51.3" cy="78.2" r="43.7"/>
		<path class="st1" d="M51.3,122.4c-24.4,0-44.2-19.8-44.2-44.2C7.1,53.9,27,34,51.3,34s44.2,19.8,44.2,44.2
			C95.5,102.6,75.7,122.4,51.3,122.4z M51.3,35C27.5,35,8.1,54.4,8.1,78.2s19.4,43.2,43.2,43.2S94.5,102,94.5,78.2S75.1,35,51.3,35z
			"/>
	</g>
	<g>
		<circle class="st0" cx="161.5" cy="45.8" r="45.3"/>
		<path class="st1" d="M161.5,91.5c-25.2,0-45.8-20.5-45.8-45.8c0-25.2,20.5-45.8,45.8-45.8s45.8,20.5,45.8,45.8
			C207.3,71,186.7,91.5,161.5,91.5z M161.5,1c-24.7,0-44.8,20.1-44.8,44.8s20.1,44.8,44.8,44.8s44.8-20.1,44.8-44.8S186.2,1,161.5,1
			z"/>
	</g>
	<g>
		<circle class="st0" cx="160.5" cy="112.5" r="29.9"/>
		<path class="st1" d="M160.5,142.9c-16.7,0-30.4-13.6-30.4-30.4c0-16.7,13.6-30.4,30.4-30.4s30.4,13.6,30.4,30.4
			C190.9,129.3,177.3,142.9,160.5,142.9z M160.5,83.2c-16.2,0-29.4,13.2-29.4,29.4c0,16.2,13.2,29.4,29.4,29.4
			c16.2,0,29.4-13.2,29.4-29.4C189.9,96.4,176.7,83.2,160.5,83.2z"/>
	</g>
	<g>
		<path class="st0" d="M72.8,90c0,10.6-8.6,19.2-19.2,19.2S34.4,100.6,34.4,90H72.8z"/>
		<path class="st1" d="M53.6,109.7c-10.9,0-19.7-8.8-19.7-19.7v-0.5h39.4V90C73.3,100.9,64.4,109.7,53.6,109.7z M34.9,90.5
			c0.3,10.1,8.5,18.2,18.7,18.2c10.1,0,18.4-8.1,18.7-18.2H34.9z"/>
	</g>
	<g>
		<path class="st0" d="M170.5,57.6c-3.4,5.8-9.6,9.7-16.8,9.7c-7.2,0-13.4-3.9-16.8-9.7"/>
		<path class="st1" d="M153.7,67.8c-7.1,0-13.7-3.8-17.2-9.9l0.9-0.5c3.4,5.8,9.6,9.4,16.3,9.4c6.7,0,13-3.6,16.4-9.5l0.9,0.5
			C167.4,64,160.8,67.8,153.7,67.8z"/>
	</g>
	<g>
		<path class="st0" d="M169.1,121.2c-0.8,3.3-3.2,6-6.6,7.1c-3.4,1-7,0.1-9.4-2.2"/>
		<path class="st1" d="M159.7,129.2c-2.6,0-5.1-1-7-2.8l0.7-0.7c2.4,2.2,5.8,3,8.9,2.1c3.1-0.9,5.6-3.5,6.3-6.7l1,0.2
			c-0.8,3.5-3.5,6.4-7,7.4C161.7,129,160.7,129.2,159.7,129.2z"/>
	</g>
	<g>
		<path class="st0" d="M143.8,201.2v41.9H61.3v-41.9c0-19.5,13.7-36,32-40.2c3-0.7,6.1-1.1,9.3-1.1c2.5,0,5,0.2,7.4,0.7
			c0.3,0.1,0.7,0.1,1,0.2c0.8,0.2,1.7,0.4,2.5,0.6c0,0,0,0,0,0c4.3,1.2,8.3,3.1,12,5.5C136.5,174.3,143.8,187,143.8,201.2z"/>
		<path class="st1" d="M144.3,243.6H60.8v-42.4c0-19.2,13.6-36.3,32.4-40.7c5.4-1.3,11.3-1.4,16.9-0.4c0.3,0.1,0.7,0.1,1,0.2
			c0.6,0.1,1.3,0.3,1.9,0.4v0l0.6,0.2c4.3,1.2,8.4,3.1,12.1,5.6c11.7,7.8,18.6,20.8,18.6,34.7V243.6z M61.8,242.6h81.5v-41.4
			c0-13.6-6.8-26.3-18.2-33.9c-3.6-2.4-7.5-4.2-11.6-5.4l-0.1,0.1l-0.2-0.1c-0.8-0.2-1.6-0.4-2.3-0.6c-0.3-0.1-0.7-0.1-1-0.2
			c-5.5-1-11.2-0.9-16.5,0.4c-18.3,4.3-31.6,21-31.6,39.7V242.6z"/>
	</g>
	<g>
		<circle class="st0" cx="103.9" cy="133.1" r="29.9"/>
		<path class="st1" d="M103.9,163.5c-16.7,0-30.4-13.6-30.4-30.4c0-16.7,13.6-30.4,30.4-30.4s30.4,13.6,30.4,30.4
			C134.3,149.8,120.7,163.5,103.9,163.5z M103.9,103.7c-16.2,0-29.4,13.2-29.4,29.4c0,16.2,13.2,29.4,29.4,29.4s29.4-13.2,29.4-29.4
			C133.3,116.9,120.1,103.7,103.9,103.7z"/>
	</g>
	<g>
		<path class="st0" d="M109.4,141.3c-1.7,2.9-4.8,4.9-8.4,4.9c-3.6,0-6.7-1.9-8.4-4.8"/>
		<path class="st1" d="M101,146.7c-3.6,0-7-1.9-8.8-5.1l0.9-0.5c1.6,2.8,4.7,4.6,7.9,4.6c3.3,0,6.3-1.8,8-4.6l0.9,0.5
			C108.1,144.7,104.7,146.7,101,146.7z"/>
	</g>
</g>
</svg>
