<?xml version="1.0" encoding="utf-8"?>
<!-- Generator: Adobe Illustrator 22.1.0, SVG Export Plug-In . SVG Version: 6.00 Build 0)  -->
<svg version="1.1" xmlns="http://www.w3.org/2000/svg" xmlns:xlink="http://www.w3.org/1999/xlink" x="0px" y="0px"
	 viewBox="0 0 234.7 260.8" style="enable-background:new 0 0 234.7 260.8;" xml:space="preserve">
<style type="text/css">
	.st0{fill:#FFFFFF;}
	.st1{fill:#99CA3C;}
	.st2{fill:#FFFFFF;stroke:#99CA3C;stroke-miterlimit:10;}
</style>
<g id="eat">
	<g>
		<g>
			<circle class="st0" cx="117.3" cy="131.4" r="116.8"/>
			<path class="st1" d="M117.3,248.7C52.6,248.7,0,196.1,0,131.4S52.6,14.1,117.3,14.1s117.3,52.6,117.3,117.3
				S182.1,248.7,117.3,248.7z M117.3,15.1C53.2,15.1,1,67.2,1,131.4s52.2,116.3,116.3,116.3c64.2,0,116.3-52.2,116.3-116.3
				S181.5,15.1,117.3,15.1z"/>
		</g>
		<g>
			<circle class="st0" cx="117.3" cy="131.4" r="102.1"/>
			<path class="st1" d="M117.3,234c-56.6,0-102.6-46-102.6-102.6s46-102.6,102.6-102.6S220,74.8,220,131.4S173.9,234,117.3,234z
				 M117.3,29.8c-56,0-101.6,45.6-101.6,101.6S61.3,233,117.3,233S219,187.4,219,131.4S173.4,29.8,117.3,29.8z"/>
		</g>
	</g>
	<g>
		<path class="st0" d="M79,39.7c0,8.9,0,17.7,0,26.6c0,1.9,0,3.5-2.7,3.6c-2.6,0.1-3.1-1.1-3.1-3.3c-0.3-17.5-0.6-35-0.9-52.6
			c-0.1-4-0.1-4-4-4c-3,0-2.4,2.2-2.5,3.7c-0.8,16.4-1.6,32.8-2.3,49.1c-0.3,6.6-0.1,13.2-0.1,19.9c0,2.7,0.6,5.1,3.1,6.7
			c4.8,3.1,9.4,6.4,14.2,9.4c1.3,0.8,1.6,1.4,1.5,2.8c-0.8,8.4-1.5,16.9-2,25.3c-0.7,11.1-1.1,22.1-1.9,33.2
			c-0.7,9.6-1.7,19.1-2.5,28.6c-0.9,9.8-1.8,19.6-2.5,29.5c-0.6,8-1.2,16-1.3,24c-0.2,7.9,5.5,15.2,12.9,17.4
			c11.8,3.4,23.2-6.2,22.5-19.1c-0.4-7.8-0.8-15.6-1.4-23.4c-0.5-7-1.3-14.1-1.9-21.1c-0.8-8.6-1.8-17.2-2.4-25.8
			c-0.8-10.5-1.1-21-1.8-31.5c-0.8-12.3-1.7-24.7-2.7-37c-0.1-1.6,0.5-2.2,1.8-3c4.6-2.9,9-6,13.5-8.9c2.5-1.6,3.5-3.8,3.4-6.9
			c-0.8-23.5-1.6-46.9-2.3-70.4c-0.1-2.3-1.4-2.4-3.2-2.4c-1.8,0-3.4,0-3.4,2.5c0,2.5-0.1,5-0.1,7.5c-0.2,15.6-0.4,31.1-0.6,46.7
			c0,1.8-0.4,3-2.6,3.1c-2.3,0.1-3.1-0.6-3.1-3c0.1-17.5,0.1-35.1,0.1-52.6c0-4.2,0-4.1-4.4-4.3c-2.6-0.1-3.5,0.6-3.5,3.4
			c0.1,17.6,0,35.2,0.1,52.9c0,2.1-0.1,3.6-2.9,3.6c-2.7,0-3-1.3-3-3.5c0-14.7,0-29.5,0-44.2c0-3.1-0.1-6.2,0-9.2
			c0.1-2.1-0.5-3.2-2.8-2.9c-0.6,0.1-1.3,0.1-2,0c-2.2-0.3-2.9,0.6-2.9,2.8C79,21.8,79,30.8,79,39.7z"/>
		<path class="st1" d="M89.5,260.8c-1.7,0-3.3-0.2-5-0.7c-7.7-2.3-13.4-9.9-13.2-17.9c0.2-8,0.7-15.9,1.3-24
			c0.6-7.5,1.3-15.2,1.9-22.6l0.6-6.9c0.3-3.3,0.6-6.5,0.9-9.7c0.6-6.2,1.2-12.6,1.6-18.9c0.4-6.1,0.8-12.2,1.1-18.2
			c0.3-4.9,0.5-10,0.9-15c0.6-8.8,1.4-17.7,2-25.3c0.1-1.2-0.1-1.6-1.2-2.3c-2.8-1.8-5.6-3.7-8.3-5.5c-1.9-1.3-3.9-2.6-5.8-3.9
			c-2.9-1.9-3.3-4.8-3.3-7.2c0-1.8,0-3.6,0-5.3c0-4.8-0.1-9.7,0.1-14.5c0.6-16.5,1.5-33.1,2.3-49.1c0-0.2,0-0.5,0-0.7
			c0-0.9,0-2,0.7-2.7c0.5-0.5,1.2-0.7,2.3-0.7l0.2,0c4.1,0,4.3,0.2,4.4,4.4c0.1,6,0.2,12.1,0.3,18.1c0.2,11.5,0.4,23,0.6,34.4
			c0,1.3,0.2,2,0.6,2.4c0.4,0.4,1,0.5,2,0.5c2.1-0.1,2.2-1.1,2.2-3.1c0-6.5,0-13.1,0-19.6l0-7c0-2.4,0-4.8,0-7.2
			c0-6.4,0-13.1-0.1-19.6c0-1.4,0.2-2.3,0.9-2.8c0.6-0.5,1.4-0.7,2.6-0.5c0.6,0.1,1.2,0.1,1.8,0c1.2-0.2,2,0,2.6,0.6
			c0.6,0.6,0.9,1.5,0.8,2.9c-0.1,2.2-0.1,4.4,0,6.5c0,0.9,0,1.8,0,2.7l0,10.8c0,11.1,0,22.2,0,33.4c0,1.2,0.1,2,0.5,2.5
			c0.4,0.4,1,0.5,1.9,0.5c2.3,0,2.4-1,2.4-3.1c0-6.3,0-12.6,0-18.9c0-11.1,0-22.6-0.1-34c0-1.6,0.3-2.5,0.9-3.1
			c0.6-0.6,1.6-0.8,3.1-0.8l0.4,0c4.2,0.2,4.4,0.4,4.4,4.8l0,12.2c0,13.2,0,26.9-0.1,40.4c0,1.1,0.2,1.7,0.5,2.1
			c0.4,0.3,1,0.5,2,0.4c1.8-0.1,2.1-0.9,2.1-2.6c0.1-12.7,0.3-25.3,0.5-38l0.1-8.7c0-0.9,0-1.7,0-2.6c0-1.6,0.1-3.3,0.1-4.9
			c0-1,0.2-1.7,0.7-2.2c0.8-0.8,1.9-0.8,3.2-0.8c1.6,0,3.6,0,3.7,2.9c0.6,20.9,1.4,45.5,2.3,70.4c0.1,3.3-1,5.6-3.6,7.3
			c-1.5,1-3,2-4.5,3c-2.9,2-6,4-9,6c-1.2,0.8-1.6,1.2-1.5,2.5c1.1,14.2,2,26,2.7,37c0.3,4.7,0.6,9.6,0.8,14.2
			c0.3,5.7,0.6,11.5,1,17.3c0.4,5.9,1,11.9,1.6,17.7c0.3,2.7,0.5,5.4,0.8,8.2c0.2,2,0.4,4.1,0.6,6.1c0.5,4.9,1,10,1.4,15
			c0.6,7.5,1,15.1,1.4,23.4c0.3,6.5-2.4,12.6-7.2,16.5C97.2,259.5,93.4,260.8,89.5,260.8z M68.9,10.5c-0.2,0-0.3,0-0.5,0l-0.2,0
			c-0.7,0-1.3,0.2-1.6,0.4c-0.4,0.4-0.4,1.2-0.4,2c0,0.3,0,0.5,0,0.8c-0.8,16-1.6,32.6-2.3,49.1c-0.2,4.8-0.1,9.7-0.1,14.5
			c0,1.8,0,3.6,0,5.3c0,3.1,0.9,5,2.9,6.3c2,1.3,3.9,2.6,5.9,3.9c2.7,1.8,5.5,3.7,8.3,5.5c1.4,0.9,1.8,1.7,1.7,3.3
			c-0.7,7.6-1.5,16.5-2,25.3c-0.3,5-0.6,10.1-0.9,15c-0.3,6-0.6,12.1-1.1,18.2c-0.4,6.3-1.1,12.7-1.6,18.9c-0.3,3.2-0.6,6.5-0.9,9.7
			l-0.6,6.9c-0.7,7.4-1.4,15.1-1.9,22.6c-0.6,8.1-1.2,16-1.3,24c-0.2,7.5,5.2,14.8,12.5,16.9c5.2,1.5,10.7,0.4,15-3
			c4.6-3.7,7.2-9.5,6.9-15.6c-0.4-8.4-0.9-15.9-1.4-23.4c-0.4-5-0.9-10.1-1.4-15c-0.2-2-0.4-4.1-0.6-6.1c-0.3-2.7-0.5-5.4-0.8-8.2
			c-0.6-5.8-1.2-11.8-1.6-17.7c-0.4-5.8-0.7-11.6-1-17.3c-0.2-4.7-0.5-9.5-0.8-14.2c-0.7-11-1.6-22.8-2.7-37c-0.2-1.9,0.7-2.6,2-3.4
			c3-1.9,6.1-4,9-5.9c1.5-1,3-2,4.5-3c2.3-1.5,3.2-3.5,3.1-6.4c-0.9-24.8-1.7-49.5-2.3-70.4c-0.1-1.8-0.8-1.9-2.7-1.9
			c-1,0-2,0-2.5,0.5c-0.3,0.3-0.4,0.8-0.4,1.5c0,1.7,0,3.3-0.1,5c0,0.9,0,1.7,0,2.6l-0.1,8.7c-0.2,12.7-0.3,25.3-0.5,38
			c0,1.7-0.3,3.5-3.1,3.6c-1.3,0-2.2-0.2-2.8-0.7c-0.6-0.6-0.8-1.4-0.8-2.8c0.1-13.5,0.1-27.1,0.1-40.4l0-12.2c0-1.8,0-2.9-0.4-3.3
			c-0.4-0.4-1.3-0.4-3.1-0.5l-0.4,0c-1.3,0-2,0.1-2.4,0.5c-0.4,0.4-0.6,1.2-0.6,2.4c0.1,11.3,0.1,22.8,0.1,34c0,6.3,0,12.6,0,18.9
			c0,1.8,0,4.1-3.4,4.1c-1.2,0-2.1-0.2-2.6-0.8c-0.8-0.8-0.8-2-0.8-3.2c0-11.1,0-22.2,0-33.4l0-10.8c0-0.9,0-1.8,0-2.7
			c0-2.1,0-4.3,0-6.5c0-1.1-0.1-1.8-0.5-2.1c-0.3-0.3-0.9-0.4-1.8-0.3c-0.7,0.1-1.4,0.1-2.1,0c-0.9-0.1-1.5,0-1.8,0.3
			c-0.4,0.3-0.5,1-0.5,2c0.1,6.5,0.1,13.2,0.1,19.6c0,2.4,0,4.8,0,7.2H79h0.5l0,7c0,6.5,0,13.1,0,19.6c0,1.9,0,4-3.1,4.1
			c-1.3,0-2.1-0.2-2.7-0.7c-0.8-0.7-0.9-1.9-0.9-3.1c-0.2-11.5-0.4-23-0.6-34.4C72,26.1,71.9,20,71.8,14c0-1.7,0-2.8-0.4-3.1
			C71.1,10.5,70.2,10.5,68.9,10.5z"/>
	</g>
	<g>
		<path class="st0" d="M134.7,133.9c-0.4,4.7-0.8,9.1-1.2,13.5c-0.7,7.8-1.4,15.5-2.1,23.3c-0.8,8.5-1.7,17.1-2.5,25.6
			c-0.7,7.7-1.4,15.4-1.9,23.1c-0.5,7.7-1.1,15.4-1,23.1c0.1,8.9,7.8,16.6,16,17.4c10.9,1.1,18.9-7,19.8-15
			c0.7-6.4,0.4-12.9-0.1-19.3c-0.9-12.4-2.1-24.8-3.3-37.2c-1-11.1-2.2-22.2-3.2-33.4c-0.8-8.5-2-17.1-2-25.6
			c-0.2-41.7-0.1-83.5-0.1-125.2c0-1.1,0-2.2,0-3.5c-3.8-0.6-5.5,2-7.4,3.8c-13.2,13.3-19.2,29.9-19.8,48.3
			c-0.6,22.2-0.2,44.4-0.2,66.7c0,3.6-0.1,7.1,0.1,10.7c0.1,2.5,1.4,3.9,4,3.8C131.4,133.8,133,133.9,134.7,133.9z"/>
		<path class="st1" d="M144,260.4c-0.7,0-1.3,0-2-0.1c-8.8-0.8-16.4-9-16.5-17.8c-0.1-6.5,0.4-13.1,0.8-19.6l0.2-3.6
			c0.5-8,1.2-16.1,1.9-23.1c0.5-5,1-10.1,1.4-15c0.4-3.5,0.7-7.1,1-10.7c0.6-6.2,1.1-12.4,1.7-18.6l0.4-4.8c0.3-3,0.5-6,0.8-9.1
			l0.3-3.8c-0.4,0-0.7,0-1.1,0c-1.1,0-2.1,0-3.2,0c-1.4,0-2.5-0.3-3.3-1c-0.8-0.7-1.2-1.8-1.3-3.3c-0.1-2.7-0.1-5.4-0.1-8
			c0-0.9,0-1.8,0-2.8c0-6.7,0-13.3-0.1-20c-0.1-15.3-0.2-31.1,0.2-46.6c0.6-19.5,7.3-35.8,19.9-48.6c0.2-0.2,0.5-0.5,0.7-0.7
			c1.7-1.8,3.6-3.8,7.1-3.2l0.4,0.1v3.9c0,10.9,0,21.8,0,32.8c0,30.3,0,61.6,0.1,92.4c0,6.3,0.7,12.7,1.3,18.9
			c0.2,2.2,0.5,4.5,0.7,6.7c0.6,6,1.2,12.1,1.7,18c0.5,5.1,1,10.2,1.5,15.3c0.2,2.5,0.5,5,0.7,7.5c0.9,9.7,1.9,19.7,2.6,29.6
			c0.4,5.9,0.8,12.8,0.1,19.4C161.5,252.6,154.3,260.4,144,260.4z M131.7,133.3c0.5,0,0.9,0,1.4,0c0.5,0,1.1,0,1.6,0h0.5l-0.4,4.9
			c-0.3,3.1-0.5,6.1-0.8,9.1l-0.4,4.8c-0.6,6.2-1.1,12.4-1.7,18.6c-0.3,3.6-0.7,7.1-1,10.7c-0.5,4.9-1,10-1.4,14.9
			c-0.6,7-1.3,15.1-1.9,23.1l-0.2,3.6c-0.4,6.4-0.9,13-0.8,19.5c0.1,8.3,7.2,16.1,15.6,16.9c8.4,0.8,18.2-4.9,19.2-14.6
			c0.7-6.5,0.3-13.3-0.1-19.2c-0.7-9.9-1.7-19.9-2.6-29.6c-0.2-2.5-0.5-5-0.7-7.5c-0.5-5.1-1-10.2-1.5-15.3
			c-0.6-5.9-1.2-12-1.7-18.1c-0.2-2.2-0.4-4.5-0.7-6.7c-0.6-6.2-1.3-12.6-1.3-19c-0.2-30.8-0.1-62.1-0.1-92.4c0-10.9,0-21.8,0-32.8
			V1c-2.7-0.3-4.3,1.4-5.8,3c-0.2,0.3-0.5,0.5-0.7,0.8c-12.5,12.6-19.1,28.7-19.6,47.9c-0.4,15.5-0.3,31.3-0.2,46.6
			c0,6.7,0.1,13.4,0.1,20c0,0.9,0,1.8,0,2.8c0,2.6,0,5.3,0.1,7.9c0,1.2,0.4,2,1,2.6c0.6,0.5,1.4,0.8,2.6,0.7
			C130.5,133.3,131.1,133.3,131.7,133.3z"/>
	</g>
</g>
</svg>
