<?xml version="1.0" encoding="utf-8"?>
<!-- Generator: Adobe Illustrator 22.1.0, SVG Export Plug-In . SVG Version: 6.00 Build 0)  -->
<svg version="1.1" xmlns="http://www.w3.org/2000/svg" xmlns:xlink="http://www.w3.org/1999/xlink" x="0px" y="0px"
	 viewBox="0 0 249.4 199" style="enable-background:new 0 0 249.4 199;" xml:space="preserve">
<style type="text/css">
	.st0{fill:#FFFFFF;}
	.st1{fill:#99CA3C;}
	.st2{fill:#FFFFFF;stroke:#99CA3C;stroke-miterlimit:10;}
</style>
<g id="Layer_1">
</g>
<g id="class">
</g>
<g id="a2z">
</g>
<g id="habitat">
	<g>
		<g>
			<path class="st0" d="M248.4,116.9v3c0,0.4-0.3,0.7-0.7,0.7h-2.5c-0.4,0-0.7,0.3-0.7,0.7v76c0,0.4-0.3,0.7-0.7,0.7H5.6
				c-0.4,0-0.7-0.3-0.7-0.7v-76c0-0.4-0.3-0.7-0.7-0.7H1.7c-0.4,0-0.7-0.3-0.7-0.7v-3c0-0.4,0.3-0.7,0.7-0.7h9.5c0,0,0.1,0,0.1,0
				l29.8-5.7c0.3,0,0.6-0.3,0.6-0.7v-9c0-0.3,0.2-0.5,0.4-0.6l5.9-2.7c0.2-0.1,0.4-0.3,0.4-0.5l4.2-29.2c0.1-0.4-0.3-0.8-0.7-0.8
				h-1.7c-0.2,0-0.4-0.1-0.6-0.3l-0.5-0.7c-0.3-0.5,0-1.1,0.6-1.1h0c0.5,0,0.8-0.5,0.6-1c-0.3-0.6-0.4-1.2-0.4-1.9
				c0-2.9,2.8-5.2,6.2-5.2c3.4,0,6.2,2.3,6.2,5.2c0,0.7-0.2,1.3-0.4,1.9c-0.2,0.5,0.1,1,0.6,1l0,0c0.6,0,0.9,0.6,0.6,1.1l-0.5,0.7
				c-0.1,0.2-0.3,0.3-0.6,0.3h-1.8c-0.4,0-0.7,0.4-0.7,0.8l0.9,7.6c0.1,0.5,0.7,0.8,1.1,0.5c6.1-4.9,13.9-7.8,22.3-7.8
				c0.1,0,0.2,0,0.3,0v-4.8c0-0.4,0.3-0.7,0.7-0.7h3.6c0.4,0,0.7-0.3,0.7-0.7l-0.2-15.5c-0.1-18.9,11.3-28.4,23.9-34.5
				c4.3-2.1,9.3-6,11.9-10.8h0c2.5,4.9,7.6,8.8,11.9,10.8c12.5,6.1,24,15.6,23.9,34.5l-0.2,15.5c0,0.4,0.3,0.7,0.7,0.7h3.6
				c0.4,0,0.7,0.3,0.7,0.7V68c0.1,0,0.2,0,0.3,0c8.4,0,16.2,2.9,22.3,7.8c0.4,0.3,1.1,0.1,1.1-0.5l0.9-7.6c0-0.4-0.3-0.8-0.7-0.8
				h-1.8c-0.2,0-0.4-0.1-0.6-0.3l-0.5-0.7c-0.3-0.5,0-1.1,0.6-1.1h0c0.5,0,0.8-0.5,0.6-1c-0.3-0.6-0.4-1.2-0.4-1.9
				c0-2.9,2.8-5.2,6.2-5.2c3.4,0,6.2,2.3,6.2,5.2c0,0.7-0.2,1.3-0.4,1.9c-0.2,0.5,0.1,1,0.6,1l0,0c0.6,0,0.9,0.6,0.6,1.1l-0.5,0.7
				c-0.1,0.2-0.3,0.3-0.6,0.3h-1.7c-0.4,0-0.7,0.4-0.7,0.8L201,97c0,0.2,0.2,0.4,0.4,0.5l5.9,2.7c0.2,0.1,0.4,0.4,0.4,0.6v8.9
				c0,0.3,0.3,0.6,0.6,0.7l29.8,5.7c0,0,0.1,0,0.1,0h9.4C248.1,116.2,248.4,116.5,248.4,116.9z"/>
			<path class="st1" d="M243.8,199H5.6c-0.9,0-1.7-0.8-1.7-1.7v-75.7H1.7c-0.9,0-1.7-0.8-1.7-1.7v-3c0-0.9,0.8-1.7,1.7-1.7h9.4
				l29.5-5.6v-8.8c0-0.7,0.4-1.3,1-1.5l5.8-2.6l4.2-28.7h-1.3c-0.5,0-1-0.3-1.4-0.7l-0.5-0.7c-0.4-0.5-0.4-1.2-0.1-1.8
				c0.2-0.4,0.6-0.7,1.1-0.9c-0.2-0.6-0.4-1.3-0.4-1.9c0-3.4,3.2-6.2,7.2-6.2s7.2,2.8,7.2,6.2c0,0.7-0.1,1.3-0.4,1.9
				c0.5,0.1,0.8,0.4,1.1,0.9c0.3,0.6,0.2,1.2-0.1,1.8l-0.5,0.7c-0.3,0.4-0.8,0.7-1.4,0.7h-1.4l0.8,6.7c6.3-4.9,13.8-7.5,21.8-7.7
				v-3.8c0-0.9,0.8-1.7,1.7-1.7h3.2l-0.2-15.2c-0.1-21,13.9-30.3,24.4-35.4c3.9-1.9,8.9-5.6,11.4-10.4l0.3-0.5h1.2l0.3,0.5
				c2.5,4.8,7.5,8.5,11.4,10.4c10.6,5.1,24.6,14.3,24.4,35.4l-0.2,15.2h3.2c0.9,0,1.7,0.8,1.7,1.7V67c7.9,0.2,15.6,2.9,21.8,7.7
				l0.8-6.7h-1.4c-0.5,0-1-0.3-1.4-0.7l-0.5-0.7c-0.4-0.5-0.4-1.2-0.1-1.8c0.2-0.4,0.6-0.7,1.1-0.9c-0.2-0.6-0.4-1.3-0.4-1.9
				c0-3.4,3.2-6.2,7.2-6.2s7.2,2.8,7.2,6.2c0,0.7-0.1,1.3-0.4,1.9c0.5,0.1,0.8,0.4,1.1,0.9c0.3,0.6,0.2,1.2-0.1,1.8l-0.5,0.7
				c-0.3,0.4-0.8,0.7-1.4,0.7h-1.3l4.2,28.7l5.8,2.6c0.6,0.3,1,0.9,1,1.5v8.7l29.6,5.7h9.4c0.9,0,1.7,0.8,1.7,1.7v3
				c0,0.9-0.8,1.7-1.7,1.7h-2.2v75.7C245.5,198.2,244.7,199,243.8,199z M5.9,197h237.6v-75.7c0-0.9,0.8-1.7,1.7-1.7h2.2v-2.4l-9.3,0
				l-29.9-5.8c-0.8-0.1-1.4-0.8-1.4-1.7V101l-5.8-2.6c-0.5-0.2-0.9-0.7-1-1.3l-4.2-29.2c-0.1-0.5,0.1-1,0.4-1.4s0.8-0.6,1.3-0.6h1.5
				l0.2-0.2c-0.4-0.1-0.7-0.4-0.9-0.7c-0.3-0.5-0.4-1.1-0.1-1.6c0.2-0.5,0.3-1,0.3-1.5c0-2.3-2.3-4.2-5.2-4.2
				c-2.9,0-5.2,1.9-5.2,4.2c0,0.5,0.1,1,0.3,1.5c0.2,0.5,0.2,1.1-0.1,1.6c-0.2,0.3-0.5,0.6-0.9,0.7l0.2,0.2h1.6
				c0.5,0,0.9,0.2,1.3,0.6s0.5,0.8,0.4,1.3l-0.9,7.6c-0.1,0.6-0.5,1.1-1,1.4c-0.6,0.2-1.2,0.1-1.7-0.2c-6.2-5-13.7-7.6-21.7-7.6
				c-0.1,0-0.2,0-0.2,0l-1.1,0.1v-5.6H161c-0.5,0-0.9-0.2-1.2-0.5c-0.3-0.3-0.5-0.8-0.5-1.2l0.2-15.5c0.1-19.9-13.2-28.7-23.3-33.5
				c-3.8-1.8-8.5-5.3-11.5-9.8c-2.9,4.5-7.7,8-11.4,9.8c-21,10.2-23.4,24-23.3,33.6l0.2,15.5c0,0.5-0.2,0.9-0.5,1.2
				c-0.3,0.3-0.7,0.5-1.2,0.5h-3.2V69L84.1,69c-0.1,0-0.1,0-0.2,0c-8,0-15.5,2.6-21.7,7.6c-0.5,0.4-1.1,0.5-1.7,0.2
				c-0.6-0.2-1-0.8-1-1.4l-0.9-7.6c-0.1-0.5,0.1-1,0.4-1.3c0.3-0.4,0.8-0.6,1.3-0.6h1.6l0.2-0.2c-0.4-0.1-0.7-0.4-0.9-0.7
				c-0.3-0.5-0.4-1.1-0.1-1.6c0.2-0.5,0.3-1,0.3-1.5c0-2.3-2.3-4.2-5.2-4.2c-2.9,0-5.2,1.9-5.2,4.2c0,0.5,0.1,1,0.3,1.5
				c0.2,0.5,0.2,1.1-0.1,1.6c-0.2,0.3-0.5,0.6-0.9,0.7l0.2,0.2h1.5c0.5,0,1,0.2,1.3,0.6s0.5,0.9,0.4,1.4l-4.2,29.2
				c-0.1,0.6-0.5,1.1-1,1.3l-5.8,2.6v8.8c0,0.9-0.6,1.6-1.5,1.7l-30,5.7H2v2.4h2.2c0.9,0,1.7,0.8,1.7,1.7V197z M40.8,109.5
				C40.8,109.5,40.8,109.5,40.8,109.5L40.8,109.5z M208.5,109.4L208.5,109.4C208.5,109.4,208.5,109.4,208.5,109.4z"/>
		</g>
		<g>
			<g>
				<path class="st0" d="M106.1,62.6h-9.8V41.5c0-2.7,2.2-4.9,4.9-4.9h0c2.7,0,4.9,2.2,4.9,4.9V62.6z"/>
				<path class="st1" d="M107.1,63.6H95.2V41.5c0-3.3,2.7-5.9,5.9-5.9s5.9,2.7,5.9,5.9V63.6z M97.2,61.6h7.8V41.5
					c0-2.2-1.8-3.9-3.9-3.9c-2.2,0-3.9,1.8-3.9,3.9V61.6z"/>
			</g>
			<g>
				<path class="st0" d="M121.9,62.6h-9.8V41.5c0-2.7,2.2-4.9,4.9-4.9h0c2.7,0,4.9,2.2,4.9,4.9V62.6z"/>
				<path class="st1" d="M122.9,63.6h-11.8V41.5c0-3.3,2.7-5.9,5.9-5.9s5.9,2.7,5.9,5.9V63.6z M113.1,61.6h7.8V41.5
					c0-2.2-1.8-3.9-3.9-3.9c-2.2,0-3.9,1.8-3.9,3.9V61.6z"/>
			</g>
			<g>
				<path class="st0" d="M137.8,62.6h-9.8V41.5c0-2.7,2.2-4.9,4.9-4.9h0c2.7,0,4.9,2.2,4.9,4.9V62.6z"/>
				<path class="st1" d="M138.8,63.6h-11.8V41.5c0-3.3,2.7-5.9,5.9-5.9s5.9,2.7,5.9,5.9V63.6z M128.9,61.6h7.8V41.5
					c0-2.2-1.8-3.9-3.9-3.9c-2.2,0-3.9,1.8-3.9,3.9V61.6z"/>
			</g>
			<g>
				<path class="st0" d="M153.6,62.6h-9.8V41.5c0-2.7,2.2-4.9,4.9-4.9h0c2.7,0,4.9,2.2,4.9,4.9V62.6z"/>
				<path class="st1" d="M154.6,63.6h-11.8V41.5c0-3.3,2.7-5.9,5.9-5.9s5.9,2.7,5.9,5.9V63.6z M144.7,61.6h7.8V41.5
					c0-2.2-1.8-3.9-3.9-3.9c-2.2,0-3.9,1.8-3.9,3.9V61.6z"/>
			</g>
		</g>
		<g>
			<polyline class="st0" points="39.3,110.8 84.4,102.2 164,102.2 212.3,111.2 			"/>
			<polygon class="st1" points="212.1,112.2 164,103.2 84.5,103.2 39.5,111.8 39.2,109.9 84.4,101.2 164.1,101.2 164.2,101.2 
				212.5,110.2 			"/>
		</g>
	</g>
</g>
<g id="email">
</g>
<g id="stroller">
</g>
<g id="camera">
</g>
<g id="eat">
</g>
<g id="discount">
</g>
<g id="arrow">
</g>
<g id="save">
</g>
<g id="social">
</g>
<g id="hotels">
</g>
<g id="checklist">
</g>
<g id="calendar">
</g>
<g id="download">
</g>
<g id="tickets">
</g>
<g id="directions">
</g>
<g id="people">
</g>
<g id="train">
</g>
<g id="keepers">
</g>
<g id="lion">
</g>
</svg>
