<?xml version="1.0" encoding="utf-8"?>
<!-- Generator: Adobe Illustrator 22.1.0, SVG Export Plug-In . SVG Version: 6.00 Build 0)  -->
<svg version="1.1" xmlns="http://www.w3.org/2000/svg" xmlns:xlink="http://www.w3.org/1999/xlink" x="0px" y="0px"
	 viewBox="0 0 136.1 240.8" style="enable-background:new 0 0 136.1 240.8;" xml:space="preserve">
<style type="text/css">
	.st0{fill:#FFFFFF;}
	.st1{fill:#99CA3C;}
	.st2{fill:#FFFFFF;stroke:#99CA3C;stroke-miterlimit:10;}
</style>
<g id="Layer_1">
</g>
<g id="class">
</g>
<g id="a2z">
</g>
<g id="habitat">
</g>
<g id="email">
</g>
<g id="stroller">
</g>
<g id="camera">
</g>
<g id="eat">
</g>
<g id="discount">
</g>
<g id="arrow">
</g>
<g id="save">
</g>
<g id="social">
</g>
<g id="hotels">
	<g>
		<rect x="9.5" y="69" class="st0" width="117.1" height="171.3"/>
		<path class="st1" d="M127.1,240.8H9V68.5h118.1V240.8z M10,239.8h116.1V69.5H10V239.8z"/>
	</g>
	<g>
		<g>
			<rect x="18" y="89.8" class="st0" width="27.9" height="22"/>
			<path class="st1" d="M46.5,112.3H17.5v-23h28.9V112.3z M18.5,111.3h26.9v-21H18.5V111.3z"/>
		</g>
		<g>
			<rect x="54.1" y="89.8" class="st0" width="27.9" height="22"/>
			<path class="st1" d="M82.5,112.3H53.6v-23h28.9V112.3z M54.6,111.3h26.9v-21H54.6V111.3z"/>
		</g>
		<g>
			<rect x="90.1" y="89.8" class="st0" width="27.9" height="22"/>
			<path class="st1" d="M118.6,112.3H89.6v-23h28.9V112.3z M90.6,111.3h26.9v-21H90.6V111.3z"/>
		</g>
	</g>
	<g>
		<g>
			<rect x="18" y="116.9" class="st0" width="27.9" height="22"/>
			<path class="st1" d="M46.5,139.4H17.5v-23h28.9V139.4z M18.5,138.4h26.9v-21H18.5V138.4z"/>
		</g>
		<g>
			<rect x="54.1" y="116.9" class="st0" width="27.9" height="22"/>
			<path class="st1" d="M82.5,139.4H53.6v-23h28.9V139.4z M54.6,138.4h26.9v-21H54.6V138.4z"/>
		</g>
		<g>
			<rect x="90.1" y="116.9" class="st0" width="27.9" height="22"/>
			<path class="st1" d="M118.6,139.4H89.6v-23h28.9V139.4z M90.6,138.4h26.9v-21H90.6V138.4z"/>
		</g>
	</g>
	<g>
		<g>
			<rect x="18" y="144" class="st0" width="27.9" height="22"/>
			<path class="st1" d="M46.5,166.5H17.5v-23h28.9V166.5z M18.5,165.5h26.9v-21H18.5V165.5z"/>
		</g>
		<g>
			<rect x="54.1" y="144" class="st0" width="27.9" height="22"/>
			<path class="st1" d="M82.5,166.5H53.6v-23h28.9V166.5z M54.6,165.5h26.9v-21H54.6V165.5z"/>
		</g>
		<g>
			<rect x="90.1" y="144" class="st0" width="27.9" height="22"/>
			<path class="st1" d="M118.6,166.5H89.6v-23h28.9V166.5z M90.6,165.5h26.9v-21H90.6V165.5z"/>
		</g>
	</g>
	<g>
		<g>
			<rect x="18" y="171.1" class="st0" width="27.9" height="22"/>
			<path class="st1" d="M46.5,193.6H17.5v-23h28.9V193.6z M18.5,192.6h26.9v-21H18.5V192.6z"/>
		</g>
		<g>
			<rect x="54.1" y="171.1" class="st0" width="27.9" height="22"/>
			<path class="st1" d="M82.5,193.6H53.6v-23h28.9V193.6z M54.6,192.6h26.9v-21H54.6V192.6z"/>
		</g>
		<g>
			<rect x="90.1" y="171.1" class="st0" width="27.9" height="22"/>
			<path class="st1" d="M118.6,193.6H89.6v-23h28.9V193.6z M90.6,192.6h26.9v-21H90.6V192.6z"/>
		</g>
	</g>
	<g>
		<g>
			<rect x="18" y="198.2" class="st0" width="27.9" height="22"/>
			<path class="st1" d="M46.5,220.7H17.5v-23h28.9V220.7z M18.5,219.7h26.9v-21H18.5V219.7z"/>
		</g>
		<g>
			<rect x="54.1" y="198.2" class="st0" width="27.9" height="41.6"/>
			<path class="st1" d="M82.5,240.4H53.6v-42.6h28.9V240.4z M54.6,239.4h26.9v-40.6H54.6V239.4z"/>
		</g>
		<g>
			<rect x="90.1" y="198.2" class="st0" width="27.9" height="22"/>
			<path class="st1" d="M118.6,220.7H89.6v-23h28.9V220.7z M90.6,219.7h26.9v-21H90.6V219.7z"/>
		</g>
	</g>
	<g>
		<rect x="67.6" y="198.2" class="st1" width="1" height="42.4"/>
	</g>
	<g>
		<rect x="0.5" y="61.2" class="st0" width="135.1" height="7.1"/>
		<path class="st1" d="M136.1,68.7H0v-8.1h136.1V68.7z M1,67.7h134.1v-6.1H1V67.7z"/>
	</g>
	<g>
		<rect x="47.7" y="41.5" class="st0" width="40.7" height="38.5"/>
		<path class="st1" d="M88.9,80.5H47.2V41h41.7V80.5z M48.2,79.5h39.7V42H48.2V79.5z"/>
	</g>
	<g>
		<g>
			<path class="st0" d="M62.3,47v10.9h11.5V47h4.9v27.1h-4.9V62.2H62.3v11.9h-4.9V47H62.3z"/>
			<path class="st1" d="M79.2,74.6h-5.9V62.7H62.8v11.9h-5.9V46.5h5.9v10.9h10.5V46.5h5.9V74.6z M74.3,73.6h3.9V47.5h-3.9v10.9H61.8
				V47.5h-3.9v26.1h3.9V61.7h12.5V73.6z"/>
		</g>
	</g>
	<g>
		<polygon class="st0" points="24.7,20.1 29.3,29.3 39.6,30.8 32.2,38.1 33.9,48.3 24.7,43.4 15.6,48.3 17.3,38.1 9.9,30.8 
			20.2,29.3 		"/>
		<path class="st1" d="M34.6,49.2L24.7,44l-9.8,5.2l1.9-10.9l-8-7.8l11-1.6l4.9-10l4.9,10l11,1.6l-8,7.8L34.6,49.2z M24.7,42.9
			l8.5,4.5l-1.6-9.5l6.9-6.7L29,29.8l-4.3-8.6l-4.3,8.6L11,31.2l6.9,6.7l-1.6,9.5L24.7,42.9z"/>
	</g>
	<g>
		<polygon class="st0" points="108.5,20.1 113.1,29.3 123.3,30.8 115.9,38.1 117.6,48.3 108.5,43.4 99.3,48.3 101.1,38.1 93.7,30.8 
			103.9,29.3 		"/>
		<path class="st1" d="M118.3,49.2l-9.8-5.2l-9.8,5.2l1.9-10.9l-8-7.8l11-1.6l4.9-10l4.9,10l11,1.6l-8,7.8L118.3,49.2z M94.7,31.2
			l6.9,6.7l-1.6,9.5l8.5-4.5l8.5,4.5l-1.6-9.5l6.9-6.7l-9.5-1.4l-4.3-8.6l-4.3,8.6L94.7,31.2z"/>
	</g>
	<g>
		<polygon class="st0" points="69.2,1.1 73.8,10.4 84,11.9 76.6,19.1 78.4,29.3 69.2,24.5 60,29.3 61.8,19.1 54.4,11.9 64.6,10.4 		
			"/>
		<path class="st1" d="M79,30.3l-9.8-5.2l-9.8,5.2l1.9-10.9l-8-7.8l11-1.6l4.9-10l4.9,10l11,1.6l-8,7.8L79,30.3z M69.2,24l8.5,4.5
			L76.1,19l6.9-6.7l-9.5-1.4l-4.3-8.6L65,10.9l-9.5,1.4l6.9,6.7l-1.6,9.5L69.2,24z"/>
	</g>
</g>
<g id="checklist">
</g>
<g id="calendar">
</g>
<g id="download">
</g>
<g id="tickets">
</g>
<g id="directions">
</g>
<g id="people">
</g>
<g id="train">
</g>
<g id="keepers">
</g>
<g id="lion">
</g>
</svg>
