<?xml version="1.0" encoding="utf-8"?>
<!-- Generator: Adobe Illustrator 22.1.0, SVG Export Plug-In . SVG Version: 6.00 Build 0)  -->
<svg version="1.1" xmlns="http://www.w3.org/2000/svg" xmlns:xlink="http://www.w3.org/1999/xlink" x="0px" y="0px"
	 viewBox="0 0 182.1 241.5" style="enable-background:new 0 0 182.1 241.5;" xml:space="preserve">
<style type="text/css">
	.st0{fill:#FFFFFF;}
	.st1{fill:#99CA3C;}
	.st2{fill:#FFFFFF;stroke:#99CA3C;stroke-miterlimit:10;}
</style>
<g id="keepers">
	<g>
		<g>
			<path class="st0" d="M140.5,241v-78.4c0-38.5-31.5-70-70-70h0c-38.5,0-70,31.5-70,70V241H140.5z"/>
			<path class="st1" d="M141,241.5H0v-78.9C0,123.6,31.6,92,70.5,92s70.5,31.6,70.5,70.5V241.5z M1,240.5h139v-77.9
				c0-38.3-31.2-69.5-69.5-69.5C32.2,93,1,124.2,1,162.5V240.5z"/>
		</g>
		<g>
			<path class="st0" d="M70.6,96.7h73.2c20.8,0,37.9,17,37.9,37.9v0c0,20.8-17,37.9-37.9,37.9h-35.7"/>
			<path class="st1" d="M143.8,172.9h-35.7v-1h35.7c20.6,0,37.4-16.8,37.4-37.4s-16.8-37.4-37.4-37.4H70.6v-1h73.2
				c21.2,0,38.4,17.2,38.4,38.4C182.1,155.7,164.9,172.9,143.8,172.9z"/>
		</g>
		<g>
			<path class="st0" d="M154.1,134.1H90c-10.3,0-18.8,8.4-18.8,18.8v0.8c0,10.3,8.4,18.8,18.8,18.8h49.2"/>
			<path class="st1" d="M139.2,172.9H90c-10.6,0-19.3-8.6-19.3-19.3v-0.8c0-10.6,8.6-19.3,19.3-19.3h64.1v1H90
				c-10.1,0-18.3,8.2-18.3,18.3v0.8c0,10.1,8.2,18.3,18.3,18.3h49.2V172.9z"/>
		</g>
		<g>
			<path class="st0" d="M160.1,67c0,0-1.4,32.9,14.9,63C175,130,188.4,68,160.1,67z"/>
			<path class="st1" d="M175.2,131.4l-0.6-1.2c-16.2-29.9-14.9-62.9-14.9-63.2l0-0.5l0.5,0c5,0.2,9,2.2,12,6.1
				c5.1,6.6,7.2,18.3,6.3,34.7c-0.7,12.2-3,22.6-3,22.7L175.2,131.4z M160.6,67.5c-0.1,4.2-0.1,33.7,14.2,61
				c1.4-7.3,7.3-41.5-3.4-55.3C168.7,69.7,165,67.8,160.6,67.5z"/>
		</g>
		<g>
			<path class="st0" d="M172.8,102c0,21.7-10.3,39.3-22.9,39.3c-12.7,0-22.9-17.6-22.9-39.3c0-16.1,5.7-29.9,13.8-36
				c-1.8-2.9-2.8-6.6-2.8-10.7c0-9.2,5.4-16.6,12-16.6c6.6,0,12,7.4,12,16.6c0,4.1-1.1,7.8-2.8,10.7
				C167.1,72.1,172.8,85.9,172.8,102z"/>
			<path class="st1" d="M149.8,141.8c-12.9,0-23.4-17.8-23.4-39.8c0-15.5,5.3-29.6,13.6-36.1c-1.7-3-2.7-6.8-2.7-10.6
				c0-9.4,5.6-17.1,12.5-17.1c6.9,0,12.5,7.7,12.5,17.1c0,3.8-1,7.6-2.7,10.6c8.3,6.5,13.6,20.6,13.6,36.1
				C173.3,124,162.8,141.8,149.8,141.8z M149.8,39.2c-6.4,0-11.5,7.2-11.5,16.1c0,3.8,1,7.6,2.8,10.5l0.2,0.4l-0.4,0.3
				c-8.2,6.2-13.6,20.1-13.6,35.6c0,21.4,10.1,38.8,22.4,38.8c12.4,0,22.4-17.4,22.4-38.8c0-15.5-5.3-29.4-13.5-35.6l-0.4-0.3
				l0.2-0.4c1.8-2.9,2.8-6.7,2.8-10.5C161.4,46.4,156.2,39.2,149.8,39.2z"/>
		</g>
		<g>
			<path class="st0" d="M141,66.8c0,0,0.1,2.9-0.1,7.7c-0.2,2.9-0.4,6.6-1,10.8c-1.6,12.2-5.3,28.9-13.8,44.7
				C126.1,130,112.7,67.9,141,66.8z"/>
			<path class="st1" d="M125.9,131.4l-0.3-1.3c0-0.1-2.3-10.6-3-22.8c-0.9-16.5,1.2-28.2,6.3-34.8c3-3.9,7.1-5.9,12-6.1l0.5,0l0,0.5
				c0,0,0.1,3-0.1,7.8c-0.2,3.5-0.5,7.2-1,10.8c-1.5,11.5-5.1,28.6-13.9,44.9L125.9,131.4z M140.5,67.3c-4.4,0.3-8.1,2.2-10.8,5.7
				c-10.7,13.8-4.8,48.2-3.4,55.4c8.2-15.7,11.7-32.1,13.1-43.3c0.5-3.6,0.8-7.2,1-10.7C140.6,70.9,140.6,68.4,140.5,67.3z"/>
		</g>
		<g>
			<path class="st0" d="M148.7,65l-2.4-7.5c-0.3-0.9,0.4-1.9,1.4-2.2c0,0,1.4-0.6,2.6-0.5c1.3,0.1,2.3,0.7,2.3,0.7
				c1,0.4,1.6,1.2,1.3,2.1l-2.4,7.5C151,66.4,149.1,66.4,148.7,65z"/>
			<path class="st1" d="M150.1,66.5c-0.9,0-1.6-0.5-1.9-1.4l-2.4-7.5c-0.2-0.5-0.1-1.1,0.2-1.6c0.3-0.6,0.9-1.1,1.5-1.3
				c0,0,1.5-0.6,2.7-0.5c1.4,0.1,2.5,0.7,2.5,0.8c1.2,0.5,1.9,1.5,1.5,2.7l-2.4,7.5C151.7,66,151,66.5,150.1,66.5z M150.1,55.2
				c-1,0-2.2,0.5-2.2,0.5c-0.5,0.1-0.8,0.4-1,0.8c-0.1,0.2-0.2,0.5-0.1,0.9l2.4,7.5c0.2,0.5,0.6,0.7,0.9,0.7s0.8-0.2,0.9-0.7
				l2.4-7.5c0.2-0.7-0.4-1.2-1-1.5c-0.1,0-1-0.6-2.2-0.7C150.2,55.2,150.1,55.2,150.1,55.2z"/>
		</g>
		<g>
			<path class="st0" d="M31.2,105.8c2,5.9,21.5,27.8,21.5,27.8l9.8-15l9.8,5.9l11.7-3.9l4.9-10.8l9.8,5.9l2.9-18.6"/>
			<path class="st1" d="M52.8,134.4l-0.4-0.5c-0.8-0.9-19.7-22-21.6-27.9l0.9-0.3c1.7,5.2,18.1,23.8,21,27.1l9.7-14.9l10,6l11.3-3.8
				l5-11.1l9.6,5.8l2.8-17.9l1,0.2l-3.1,19.3l-9.9-6l-4.8,10.5L72.2,125l-9.6-5.7L52.8,134.4z"/>
		</g>
		<g>
			<line class="st0" x1="62.5" y1="118.6" x2="54.7" y2="112"/>
			
				<rect x="58.1" y="110.2" transform="matrix(0.6402 -0.7682 0.7682 0.6402 -67.4966 86.5055)" class="st1" width="1" height="10.2"/>
		</g>
		<g>
			<line class="st0" x1="88.9" y1="109.8" x2="90.9" y2="103.9"/>
			
				<rect x="86.8" y="106.3" transform="matrix(0.3165 -0.9486 0.9486 0.3165 -39.8633 158.3142)" class="st1" width="6.2" height="1"/>
		</g>
		<g>
			<polyline class="st0" points="72.3,124.4 80.5,129 84.1,120.5 			"/>
			<polygon class="st1" points="80.7,129.7 72.1,124.9 72.5,124 80.2,128.3 83.6,120.3 84.5,120.7 			"/>
		</g>
		<g>
			<rect x="38.3" y="153.3" class="st0" width="21.5" height="34.3"/>
			<path class="st1" d="M60.3,188.1H37.8v-35.3h22.5V188.1z M38.8,187.1h20.5v-33.3H38.8V187.1z"/>
		</g>
		<g>
			<rect x="42.7" y="158.7" class="st0" width="12.7" height="10.3"/>
			<path class="st1" d="M55.9,169.5H42.2v-11.3h13.7V169.5z M43.2,168.5h11.7v-9.3H43.2V168.5z"/>
		</g>
		<g>
			<rect x="42.9" y="183.2" class="st1" width="12.2" height="1"/>
		</g>
		<g>
			<rect x="42.9" y="178.6" class="st1" width="12.2" height="1"/>
		</g>
		<g>
			<rect x="42.9" y="173.7" class="st1" width="12.2" height="1"/>
		</g>
		<g>
			<circle class="st0" cx="61.4" cy="56.4" r="55.9"/>
			<path class="st1" d="M61.4,112.8C30.3,112.8,5,87.5,5,56.4S30.3,0,61.4,0c15.4,0,29.5,5.5,39.9,15.5
				c10.7,10.3,16.5,24.8,16.5,40.9C117.7,87.5,92.4,112.8,61.4,112.8z M61.4,1C30.8,1,6,25.8,6,56.4s24.8,55.4,55.4,55.4
				c30.5,0,55.4-24.8,55.4-55.4C116.7,24.3,93.4,1,61.4,1z"/>
		</g>
		<g>
			<path class="st0" d="M98.6,66.9c0,9.5-7.7,17.2-17.2,17.2c-6.3,0-11.8-3.4-14.8-8.4"/>
			<path class="st1" d="M81.4,84.6c-6.3,0-12-3.2-15.2-8.6l0.9-0.5c3.1,5.1,8.4,8.1,14.4,8.1c9.2,0,16.7-7.5,16.7-16.7h1
				C99.1,76.7,91.1,84.6,81.4,84.6z"/>
		</g>
	</g>
</g>
</svg>
