<?xml version="1.0" encoding="utf-8"?>
<!-- Generator: Adobe Illustrator 22.1.0, SVG Export Plug-In . SVG Version: 6.00 Build 0)  -->
<svg version="1.1" xmlns="http://www.w3.org/2000/svg" xmlns:xlink="http://www.w3.org/1999/xlink" x="0px" y="0px"
	 viewBox="0 0 197.8 240" style="enable-background:new 0 0 197.8 240;" xml:space="preserve">
<style type="text/css">
	.st0{fill:#FFFFFF;}
	.st1{fill:#99CA3C;}
	.st2{fill:#FFFFFF;stroke:#99CA3C;stroke-miterlimit:10;}
</style>
<g id="Layer_1">
</g>
<g id="class">
</g>
<g id="a2z">
</g>
<g id="habitat">
</g>
<g id="email">
</g>
<g id="stroller">
</g>
<g id="camera">
</g>
<g id="eat">
</g>
<g id="discount">
</g>
<g id="arrow">
</g>
<g id="save">
</g>
<g id="social">
</g>
<g id="hotels">
</g>
<g id="checklist">
</g>
<g id="calendar">
</g>
<g id="download">
</g>
<g id="tickets">
</g>
<g id="directions">
</g>
<g id="people">
</g>
<g id="train">
</g>
<g id="keepers">
</g>
<g id="lion">
	<g>
		<path class="st0" d="M197.3,120.2c-0.2,66-44.3,119.4-98.7,119.3c-54.4-0.1-98.3-53.7-98.1-119.7c0-7,0.1-13.8,0.5-20.4
			c1.5,0,3,0.2,4.3,0.5c0-2.7-1.7-5-3.9-7c0.1-1.7,0.3-3.4,0.4-5c2.1,0.1,4.1,0,5.9-0.6c-1-1.6-3.2-3.2-5.4-4.8
			c0.3-3,0.7-5.8,1.2-8.7c1.9-0.4,3.9-0.7,5.8-1.1c-0.5-1.6-2.5-3.3-4.7-4.7c1-4.7,2.1-9.2,3.6-13.5c2.8-2.1,5.7-3.7,8.5-4.5
			c-1.6-1.6-3.6-2.4-5.7-2.9c1.5-3.4,3.1-6.7,4.9-9.8c2.3-0.7,4.7-1.1,7.4-1.1c0.5-2.5,0-5.3-0.9-8.1c1.9-2.3,3.9-4.4,6.1-6.3
			c3.1,1,6.3,1.9,9.3,1.5c-0.1-2.7-0.1-5.6-0.1-8.6c5.9-3.7,12.6-6.8,20.4-9.1c2.8,1.3,5.2,2.8,6.6,4.5c0.5-1.9,0.6-4.2,0.8-6.4
			c1-0.2,2.1-0.4,3.1-0.6c2.9,4.6,5.7,8.7,7.5,14c1.4-2.3,1-10.3,1.8-15.4c2.3-0.3,4.7-0.5,7.2-0.7c1.7,2.8,2.8,6.2,2.7,7.6
			c3-1.8,7.2-4.8,10.6-8.1l0.6,0c1.7,0,3.4,0,5,0.1c0,3.9-0.4,8-0.4,11.7c4.8-3.2,9.9-7.2,15.1-10.5c2.8,0.4,5.5,0.9,8.2,1.4
			c-0.4,1.9-0.7,3.8-0.6,5.9c2.1-1.8,4.9-3.1,7.9-4c4,1.2,7.8,2.5,11.4,4.1c-1.4,1.9-2.9,3.7-4.1,5.7c4.4,0.3,9.1,0,13.7-0.6
			c2.7,1.7,5.3,3.6,7.8,5.5c-1.9,1.6-3.4,3.5-4.4,5.8c3,0.2,6.7-0.1,10.6-0.2c2.1,2.2,4.1,4.5,5.9,6.9c-1.2,1.2-2.2,2.6-2.6,4.4
			c-1,4.5-1.5,2.8,2.5,5.1c2.7,1.6,5.6,2.7,8.5,4c1.1,2.3,2.2,4.7,3.2,7.1c-2,0.9-3.6,2.1-3.9,4.3c1.3,1,3.8,1.7,6.4,2.6
			c1.2,3.6,2.2,7.4,3.1,11.2c-2.8,1.1-5.6,2.3-6.6,3.5c-2.4,3.2-1.6,4.3,0.8,7.1c1.6,1.8,5.3,3.5,8.6,5.6c0.4,2.9,0.7,5.9,1,9
			c-2.5,1-4.5,2.6-3.6,5.3c0.5,1.4,2.1,2.6,4.2,3.5C197.2,110.1,197.3,115.1,197.3,120.2z"/>
		<path class="st1" d="M98.8,240c-0.1,0-0.1,0-0.2,0c-26.4-0.1-51.3-12.6-69.9-35.4C10.1,181.9-0.1,151.8,0,119.8
			c0-7.7,0.2-14.4,0.5-20.4l0-0.5l0.5,0c1.3,0,2.6,0.1,3.7,0.4c-0.2-2-1.4-3.9-3.7-6l-0.2-0.2l0-0.2c0.1-1.7,0.3-3.4,0.4-5l0-0.5
			l0.5,0c1.6,0,3.4,0,5.1-0.4c-0.9-1.2-2.5-2.4-4.2-3.6l-0.9-0.7l0-0.3c0.4-3.3,0.8-6.1,1.2-8.7l0.1-0.3l1.3-0.2
			c1.4-0.3,2.8-0.5,4.3-0.8c-0.6-1.2-2.1-2.5-4.3-3.9l-0.3-0.2l0.1-0.3c1-4.9,2.2-9.4,3.6-13.6l0-0.1l0.1-0.1c2.7-2,5.4-3.5,7.8-4.3
			c-1.5-1.2-3.3-1.8-4.9-2.2l-0.6-0.1l0.2-0.5c1.5-3.6,3.1-6.8,5-9.8l0.1-0.2l0.2-0.1c2.3-0.7,4.7-1.1,7.1-1.1c0.3-1.9,0-4.3-1-7.4
			L21.8,28l0.2-0.2c1.9-2.3,3.9-4.4,6.2-6.4l0.2-0.2l0.3,0.1c2.7,0.9,5.7,1.8,8.7,1.6l0-0.6c-0.1-2.4-0.1-5-0.1-7.6l0-0.3l0.2-0.1
			c6-3.8,12.9-6.9,20.5-9.1l0.2-0.1l0.2,0.1c2.7,1.3,4.8,2.6,6.2,3.9c0.3-1.3,0.4-2.8,0.5-4.4L65,3.3l0.4-0.1c1-0.3,2.1-0.5,3.2-0.7
			l0.3-0.1L70,4.3c2.3,3.7,4.6,7.1,6.2,11.3c0.4-1.7,0.6-4.5,0.7-7.2c0.1-2.4,0.3-4.8,0.6-6.8l0.1-0.4l0.4,0
			c2.5-0.3,4.9-0.5,7.3-0.7l0.3,0l0.2,0.3c1.4,2.3,2.5,5.2,2.7,7C91.2,6,95,3.2,98.2,0.1L98.4,0l0.8,0c1.9,0,3.5,0,5,0.1l0.5,0
			l0,0.5c0,2-0.1,4.1-0.2,6.2c-0.1,1.6-0.2,3.1-0.2,4.6c1.7-1.2,3.4-2.4,5.2-3.7c3-2.1,6-4.4,9.2-6.3l0.2-0.1l0.2,0
			c2.8,0.4,5.6,0.9,8.2,1.4l0.5,0.1l-0.1,0.5c-0.3,1.5-0.6,3.1-0.6,4.8c2-1.5,4.4-2.7,7.3-3.5l0.1,0l0.1,0c3.9,1.1,7.8,2.5,11.4,4.1
			l0.6,0.3l-1,1.3c-1,1.3-2.1,2.7-3,4.1c3.8,0.2,8,0,12.8-0.6l0.2,0l0.1,0.1c2.7,1.7,5.3,3.6,7.8,5.6l0.5,0.4l-0.4,0.4
			c-1.8,1.6-3.1,3.2-4,5c1.8,0.1,3.8,0,5.9-0.1c1.3,0,2.6-0.1,3.9-0.1l0.2,0l0.2,0.2c2.1,2.1,4,4.4,6,6.9l0.3,0.4l-0.3,0.3
			c-1.3,1.2-2.1,2.6-2.4,4.2c-0.2,0.8-0.3,1.3-0.5,1.8c-0.3,1.3-0.3,1.3,0.6,1.7c0.5,0.2,1.2,0.6,2.1,1.1c2.3,1.3,4.7,2.4,7.1,3.4
			l1.5,0.7l0.1,0.2c1.1,2.3,2.2,4.6,3.2,7.2l0.2,0.4l-0.4,0.2c-2.2,1-3.2,2-3.6,3.6c1.2,0.8,3.4,1.5,5.6,2.2l0.7,0.2l0.1,0.2
			c1.2,3.6,2.2,7.4,3.1,11.3l0.1,0.4l-0.4,0.2c-2,0.8-5.4,2.1-6.3,3.3c-2.2,3-1.6,3.7,0.8,6.5c1,1.1,3,2.3,5.2,3.6
			c1.1,0.6,2.2,1.3,3.3,2l0.2,0.1l0,0.2c0.4,2.6,0.7,5.6,1,9l0,0.4l-0.3,0.1c-2.9,1.2-4,2.7-3.3,4.7c0.4,1.2,1.7,2.3,3.9,3.2
			l0.3,0.1l0,0.3c0.2,4.7,0.4,9.7,0.3,15.1c-0.1,32-10.4,62.1-29.1,84.7C150,227.6,125.2,240,98.8,240z M1.5,99.9
			C1.2,105.8,1,112.3,1,119.8c-0.1,31.8,10,61.7,28.5,84.2c18.4,22.5,43,34.9,69.1,35c0.1,0,0.1,0,0.2,0c26.1,0,50.6-12.3,69.1-34.7
			c18.6-22.4,28.8-52.3,28.9-84.1l0.5,0l-0.5,0c0-5.3-0.1-10.1-0.3-14.7c-2.3-1-3.7-2.3-4.2-3.7c-0.6-1.7-0.4-4.1,3.5-5.8
			c-0.3-3.1-0.6-5.9-0.9-8.3c-1-0.6-2-1.2-3.1-1.8c-2.2-1.3-4.3-2.5-5.4-3.8c-2.5-2.9-3.4-4.2-0.9-7.7c0.9-1.3,3.5-2.4,6.4-3.5
			c-0.9-3.7-1.8-7.2-2.9-10.5l-0.2-0.1c-2.6-0.9-4.9-1.6-6.2-2.6l-0.2-0.2l0-0.3c0.4-2.4,2.1-3.6,3.8-4.4c-0.9-2.3-1.9-4.4-2.9-6.5
			l-1.2-0.5c-2.4-1-4.8-2.1-7.2-3.4c-0.9-0.5-1.6-0.8-2-1c-1.6-0.7-1.6-1-1.1-2.9c0.1-0.4,0.3-1,0.4-1.8c0.4-1.6,1.2-3.1,2.4-4.4
			c-1.8-2.3-3.6-4.4-5.5-6.3c-1.2,0-2.5,0.1-3.6,0.1c-2.5,0.1-4.8,0.2-6.8,0l-0.7,0l0.3-0.7c0.9-2,2.2-3.8,4.1-5.6
			c-2.3-1.8-4.7-3.5-7.1-5.1c-5.1,0.6-9.6,0.8-13.7,0.5l-0.9,0l0.5-0.7c1.1-1.7,2.3-3.3,3.6-4.9l0.2-0.3c-3.4-1.5-7-2.7-10.6-3.8
			c-3.1,0.9-5.7,2.2-7.6,3.9l-0.8,0.6l-0.1-1c-0.1-1.9,0.1-3.8,0.5-5.5c-2.4-0.5-4.9-0.9-7.5-1.3c-3.1,1.9-6.1,4.1-9,6.2
			c-2.1,1.5-4,2.9-6,4.2l-0.8,0.5l0-0.9c0-1.8,0.1-3.7,0.2-5.6c0.1-1.9,0.2-3.8,0.2-5.6C102.4,1,100.9,1,99.2,1l-0.4,0
			C95.2,4.3,91,7.3,88.2,9l-0.8,0.5l0.1-1c0.1-1.2-1-4.4-2.5-7c-2.1,0.2-4.3,0.4-6.5,0.6C78.2,4,78,6.3,77.9,8.4
			c-0.2,3.8-0.4,7.3-1.3,8.9l-0.5,0.9l-0.4-1c-1.6-4.7-4-8.4-6.6-12.4l-0.7-1.2C67.6,3.8,66.8,4,66,4.1l0,0.7
			c-0.1,1.9-0.3,3.8-0.7,5.4L65,11.2l-0.6-0.7C63.1,9,61,7.6,58.1,6.2c-7.4,2.2-14,5.2-19.9,8.8c0,2.5,0,4.9,0.1,7.3l0,1.5l-0.4,0.1
			c-3.2,0.4-6.5-0.5-9.3-1.5c-2,1.8-3.9,3.8-5.7,5.9c0.7,2.2,1.4,5.3,0.8,8.1l-0.1,0.4l-0.4,0c-2.4,0-4.7,0.3-7,1
			c-1.7,2.8-3.2,5.7-4.6,9c1.8,0.5,3.8,1.3,5.4,2.9l0.6,0.6l-0.8,0.2c-2.4,0.7-5.3,2.1-8.2,4.3c-1.3,4-2.4,8.3-3.4,13
			c2.6,1.7,4.2,3.3,4.6,4.8l0.2,0.5l-0.5,0.1c-1.6,0.4-3.3,0.7-4.9,1L4,74.3c-0.4,2.4-0.8,5-1.1,8l0.4,0.3c2,1.5,3.9,2.9,4.8,4.4
			l0.3,0.5l-0.6,0.2c-1.8,0.6-3.8,0.6-5.6,0.6c-0.1,1.4-0.3,2.8-0.4,4.3c2.6,2.5,3.8,4.8,3.8,7.2l0,0.7l-0.6-0.2
			C4.1,100.1,2.8,99.9,1.5,99.9z"/>
	</g>
	<g>
		<path class="st0" d="M98.4,147.2c-3.8,0-6.5,0-10.4,0c-1.2-8.9-2.7-18-3.7-27.2c-1.9-17.7-1.7-17.7-19.2-20.3
			c-1.1-0.2-2.3-0.9-3.2-0.6c-1.7,0.5-3.2,1.6-4.8,2.5c1.2,1.5,2.1,3.4,3.7,4.4c1.4,0.9,3.4,0.8,5,1.1c-0.1,9.1,2.8,12,11,10.4
			c1.5,10.9,3.3,21.3,4,31.8c0.3,4.6,2,7.5,5.7,9.7c2.2,1.3,4.7,2.1,6.7,3.5c1.3,1,2.6,2.7,3,4.3c0.8,4.1-0.2,7.3-4.6,9.2
			c-2.8,1.2-5.3,3.2-7.9,4.9c-3.2,2.1-5.8,4.5-10.2,1.7c-4.6-2.9-7.8-5.7-6.9-11.6c0.7-4.7-0.8-8.7-3.3-12.8
			c-7.2-11.8-13.8-23.9-20.9-35.7c-3.3-5.4-3.5-10.2-0.1-15.7c7.6-12.4,14.8-25,22-37.6c3-5.2,6.9-7.8,13.2-7.7
			c7.6,0.2,13.6,0.2,21.2,0.3l-0.4,0c7.6,0,13.6,0,21.2-0.2c6.3-0.1,10.2,2.5,13.2,7.8c7.2,12.7,14.3,25.3,21.9,37.7
			c3.3,5.5,3.1,10.3-0.2,15.7c-7.2,11.8-13.9,23.9-21.1,35.6c-2.5,4.1-4,8.1-3.3,12.8c0.9,5.9-2.4,8.7-7,11.6
			c-4.4,2.7-7.1,0.3-10.2-1.8c-2.6-1.7-5-3.7-7.8-4.9c-4.3-1.9-5.4-5.2-4.5-9.2c0.3-1.6,1.6-3.3,3-4.3c2-1.5,4.6-2.2,6.7-3.5
			c3.7-2.1,5.3-5,5.7-9.6c0.8-10.5,2.7-20.8,4.2-31.8c8.1,1.6,11.1-1.2,11-10.3c1.6-0.3,3.7-0.2,5-1c1.5-1,2.5-2.9,3.7-4.4
			c-1.6-0.9-3.1-1.9-4.8-2.5c-0.9-0.3-2.1,0.5-3.2,0.6c-17.5,2.5-17.3,2.5-19.3,20.2c-1,9.1-2.6,18.2-3.8,27.1c-3.9,0-6.7,0-10.4,0
			L98.4,147.2z"/>
		<path class="st1" d="M119,184.3c-2.2,0-4.1-1.3-5.9-2.5c-0.3-0.2-0.6-0.4-0.9-0.6c-0.7-0.4-1.3-0.9-2-1.4
			c-1.8-1.3-3.7-2.6-5.8-3.5c-4.2-1.8-5.8-5.1-4.8-9.8c0.3-1.6,1.6-3.5,3.2-4.6c1.2-0.9,2.7-1.5,4-2.2c0.9-0.4,1.9-0.9,2.8-1.4
			c3.5-2,5.1-4.7,5.5-9.2c0.6-7.4,1.7-14.7,2.8-22.4c0.5-3.1,0.9-6.3,1.4-9.4l0.1-0.5l0.5,0.1c3.8,0.8,6.3,0.5,7.9-0.8
			c1.7-1.4,2.5-4.3,2.5-9l0-0.4l0.4-0.1c0.5-0.1,1.1-0.1,1.6-0.2c1.2-0.1,2.4-0.2,3.2-0.8c1-0.6,1.7-1.7,2.5-2.8
			c0.2-0.3,0.5-0.7,0.7-1c-0.3-0.2-0.6-0.3-0.9-0.5c-1.1-0.7-2.2-1.3-3.3-1.6c-0.4-0.1-1,0.1-1.6,0.3c-0.4,0.1-0.9,0.3-1.3,0.4
			c-16.9,2.5-16.9,2.5-18.8,19.4l0,0.4c-0.7,6.3-1.7,12.7-2.6,18.8c-0.4,2.8-0.8,5.6-1.2,8.3l-0.1,0.4l-21.3-0.1l-0.1-0.4
			c-0.4-2.8-0.8-5.5-1.2-8.3c-0.9-6.2-1.8-12.5-2.5-18.8l0-0.4c-1.8-17-1.8-17-18.7-19.5c-0.4-0.1-0.9-0.2-1.3-0.4
			c-0.6-0.2-1.2-0.4-1.6-0.3c-1.1,0.4-2.2,1-3.3,1.6c-0.3,0.2-0.6,0.3-0.9,0.5c0.2,0.3,0.5,0.7,0.7,1c0.8,1.1,1.5,2.2,2.5,2.8
			c0.8,0.6,2.1,0.7,3.2,0.8c0.5,0.1,1.1,0.1,1.6,0.2l0.4,0.1l0,0.4c-0.1,4.7,0.7,7.6,2.5,9c1.6,1.3,4.1,1.6,7.9,0.9l0.5-0.1l0.1,0.5
			c0.4,3.2,0.9,6.3,1.3,9.5c1.1,7.7,2.2,14.9,2.7,22.4c0.3,4.5,1.9,7.2,5.4,9.3c0.9,0.5,1.8,1,2.8,1.4c1.4,0.6,2.8,1.3,4,2.2
			c1.5,1.1,2.8,3,3.1,4.6c1,4.7-0.7,8-4.9,9.8c-2,0.9-3.9,2.2-5.8,3.5c-0.7,0.5-1.3,0.9-2,1.4c-0.3,0.2-0.6,0.4-0.9,0.6
			c-2.8,1.9-5.6,3.8-9.9,1.1c-4.3-2.7-8.1-5.7-7.2-12.1c0.6-4-0.3-7.7-3.2-12.5c-3.7-6.1-7.4-12.4-10.9-18.6
			c-3.3-5.7-6.6-11.5-10.1-17.2c-3.4-5.7-3.5-10.7-0.1-16.3c7.4-12.2,14.7-24.7,22-37.6c3.2-5.6,7.4-8.1,13.7-8
			C85.2,61,91.1,61,98.2,61h0c0,0,0,0,0,0l0.4,0c7.1,0,12.9,0,20.7-0.2c6.2-0.1,10.4,2.4,13.6,8c7.3,12.9,14.5,25.5,21.8,37.7
			c3.4,5.5,3.3,10.6-0.2,16.3c-3.5,5.7-6.9,11.5-10.1,17.1c-3.5,6.1-7.2,12.4-11,18.5c-2.9,4.7-3.9,8.4-3.3,12.4
			c1,6.4-2.9,9.4-7.2,12.1C121.5,184,120.2,184.3,119,184.3z M120.2,118.1c-0.4,3-0.9,6-1.3,8.9c-1.2,7.7-2.2,14.9-2.8,22.3
			c-0.4,4.8-2.1,7.8-6,10c-0.9,0.5-1.9,1-2.9,1.4c-1.4,0.6-2.7,1.2-3.8,2.1c-1.3,1-2.5,2.6-2.8,4c-0.9,4.2,0.5,7,4.3,8.7
			c2.1,0.9,4.1,2.3,5.9,3.6c0.7,0.5,1.3,0.9,2,1.4c0.3,0.2,0.6,0.4,0.9,0.6c2.7,1.9,5.1,3.5,8.8,1.2c5-3.1,7.5-5.8,6.8-11.1
			c-0.8-5.4,1.4-9.8,3.4-13.1c3.7-6.1,7.4-12.4,11-18.5c3.3-5.6,6.7-11.5,10.2-17.2c3.3-5.4,3.3-10,0.2-15.2
			c-7.4-12.2-14.6-24.8-21.9-37.7c-3-5.3-6.9-7.6-12.7-7.5c-7.9,0.1-13.8,0.2-21,0.2c-7.2,0-13.1-0.1-20.9-0.3
			c-5.8-0.1-9.7,2.2-12.8,7.5c-7.4,12.9-14.6,25.4-22,37.6c-3.2,5.2-3.2,9.8,0.1,15.2c3.4,5.7,6.8,11.5,10.1,17.2
			c3.5,6.1,7.2,12.4,10.9,18.5c2,3.3,4.2,7.8,3.4,13.1c-0.8,5.3,1.7,8,6.7,11.1c3.7,2.3,6.1,0.7,8.8-1.1c0.3-0.2,0.6-0.4,0.9-0.6
			c0.7-0.4,1.3-0.9,2-1.4c1.9-1.3,3.8-2.6,5.9-3.6c3.8-1.6,5.2-4.4,4.3-8.6c-0.3-1.4-1.4-3-2.8-4c-1.2-0.8-2.5-1.5-3.8-2.1
			c-0.9-0.4-1.9-0.9-2.8-1.4c-3.8-2.2-5.6-5.2-5.9-10.1c-0.5-7.4-1.6-14.6-2.7-22.3c-0.4-3-0.9-5.9-1.3-8.9
			c-3.9,0.7-6.5,0.3-8.2-1.2c-1.9-1.6-2.8-4.5-2.8-9.4c-0.4,0-0.7-0.1-1.1-0.1c-1.3-0.1-2.6-0.3-3.7-0.9c-1.2-0.8-2-2-2.8-3.1
			c-0.3-0.5-0.7-1-1-1.4l-0.4-0.5l0.5-0.3c0.5-0.2,0.9-0.5,1.4-0.8c1.1-0.7,2.3-1.3,3.5-1.7c0.7-0.2,1.5,0,2.2,0.3
			c0.4,0.1,0.8,0.3,1.1,0.3c17.5,2.6,17.7,2.8,19.6,20.4l0,0.4c0.7,6.3,1.6,12.7,2.5,18.8c0.4,2.6,0.8,5.3,1.1,7.9l19.6,0
			c0.4-2.6,0.8-5.3,1.2-7.9c0.9-6.1,1.9-12.5,2.6-18.8l0-0.4c1.9-17.6,2.1-17.7,19.7-20.3c0.4-0.1,0.8-0.2,1.1-0.3
			c0.7-0.3,1.5-0.5,2.2-0.3c1.2,0.4,2.4,1.1,3.5,1.7c0.5,0.3,0.9,0.5,1.4,0.8l0.5,0.3l-0.4,0.5c-0.4,0.4-0.7,0.9-1,1.4
			c-0.8,1.2-1.6,2.4-2.8,3.1c-1.1,0.7-2.4,0.8-3.7,0.9c-0.4,0-0.8,0.1-1.1,0.1c0,4.8-0.9,7.7-2.9,9.4
			C126.6,118.4,124,118.8,120.2,118.1z"/>
	</g>
	<g>
		<g>
			<path class="st0" d="M40.1,85.5c-0.6,0-1.2-0.1-1.8-0.4c-4.1-1.8-10.9-6.9-9.9-14.2c1.1-8.5,5.5-13.7,12.9-15.4
				c7.5-1.8,13.5,4.5,14.2,5.2c1.7,1.8,1.6,4.7-0.3,6.4c-1.8,1.7-4.7,1.6-6.3-0.2c-1-1-3.6-3-5.5-2.6c-3.1,0.7-5.3,2.3-6.1,7.8
				c-0.2,1.7,3,4,4.7,4.8c2.3,1,3.3,3.7,2.2,6C43.5,84.5,41.8,85.5,40.1,85.5z"/>
			<path class="st1" d="M40.1,86c-0.7,0-1.4-0.1-2-0.4c-4.3-1.9-11.2-7.1-10.2-14.7c1.2-8.7,5.6-14,13.3-15.8
				c7.8-1.8,14,4.6,14.7,5.4c1.9,2,1.7,5.2-0.3,7.1c-2,1.9-5.2,1.7-7.1-0.3c-0.9-0.9-3.4-2.8-5.1-2.4c-3,0.7-5,2.2-5.7,7.4
				c-0.2,1.3,2.5,3.4,4.4,4.3c2.5,1.1,3.6,4.1,2.5,6.6C43.9,84.8,42.1,86,40.1,86z M44,55.7c-0.8,0-1.7,0.1-2.6,0.3
				c-7.2,1.7-11.5,6.7-12.6,15c-0.9,7,5.6,11.9,9.6,13.7c0.5,0.2,1.1,0.3,1.6,0.3c1.6,0,3-0.9,3.6-2.4c0.9-2,0-4.4-2-5.3
				c-1.7-0.8-5.3-3.2-5-5.3c0.8-6.1,3.6-7.6,6.4-8.2c2.3-0.5,5.2,1.8,6,2.7c1.5,1.6,4,1.7,5.6,0.2c1.6-1.5,1.7-4,0.2-5.7
				C54.6,60.4,50,55.7,44,55.7z"/>
		</g>
	</g>
	<g>
		<path class="st0" d="M97.5,195.6c-4.7,0-6.8-2.6-12.8-8c4.3-2.8,8.5-5.6,12.9-8.1l1.8,0c4.4,2.5,8.5,5.4,12.8,8.2
			c-5.9,5.4-8.1,8-12.8,8L97.5,195.6z"/>
		<path class="st1" d="M99.6,196.1c-0.1,0-0.1,0-0.2,0l-1.9,0c0,0-0.1,0-0.1,0c-4.2,0-6.5-2.1-10.9-6.2c-0.6-0.6-1.3-1.2-2.1-1.9
			l-0.5-0.4l0.5-0.4c1.2-0.8,2.3-1.5,3.5-2.3c3-2,6.2-4,9.4-5.8l0.1-0.1l2.1,0l0.1,0.1c3.2,1.8,6.3,3.9,9.4,5.9
			c1.2,0.8,2.3,1.5,3.5,2.3l0.5,0.4l-0.5,0.4c-0.8,0.7-1.5,1.3-2.1,1.9C106,194,103.8,196.1,99.6,196.1z M97.5,195.1l1.9,0
			c0,0,0.1,0,0.1,0c3.8,0,5.8-1.9,10.2-5.9c0.5-0.5,1-1,1.6-1.5c-1-0.6-2-1.3-2.9-1.9c-3.1-2.1-6.1-4-9.2-5.8l-1.6,0
			c-3.1,1.8-6.1,3.7-9.2,5.7c-1,0.6-2,1.3-3,1.9c0.6,0.5,1.1,1,1.6,1.5C91.6,193.2,93.6,195.1,97.5,195.1
			C97.5,195.1,97.5,195.1,97.5,195.1L97.5,195.1z"/>
	</g>
	<g>
		<g>
			<path class="st0" d="M156.6,85.8c-1.7,0-3.4-1-4.1-2.7c-1-2.3,0-4.9,2.3-5.9c1.7-0.8,4.9-3,4.7-4.8c-0.7-5.5-2.9-7.1-6-7.9
				c-2.2-0.5-5,1.9-5.5,2.5c-1.7,1.8-4.5,1.9-6.4,0.2c-1.8-1.7-1.9-4.5-0.2-6.4c0.7-0.7,6.7-6.9,14.2-5.1c7.4,1.8,11.8,7,12.9,15.5
				c0.9,7.3-5.8,12.3-10,14.2C157.8,85.7,157.2,85.8,156.6,85.8z"/>
			<path class="st1" d="M156.6,86.3c-2,0-3.8-1.2-4.6-3c-0.5-1.2-0.6-2.6-0.1-3.8c0.5-1.2,1.4-2.2,2.6-2.8c1.9-0.8,4.6-3,4.4-4.2
				c-0.7-5.2-2.7-6.7-5.6-7.4c-1.8-0.4-4.3,1.6-5.1,2.4c-1.9,2-5.1,2.1-7.1,0.3c-1-0.9-1.5-2.1-1.6-3.5c0-1.3,0.4-2.6,1.3-3.6
				c0.7-0.7,6.9-7.1,14.7-5.3c7.7,1.8,12.1,7.2,13.2,15.9c1,7.6-6,12.8-10.3,14.7C158,86.1,157.3,86.3,156.6,86.3z M152.8,64
				c0.3,0,0.5,0,0.7,0.1c2.9,0.7,5.6,2.2,6.4,8.3c0.3,2.1-3.3,4.5-5,5.3c-1,0.4-1.7,1.2-2.1,2.2c-0.4,1-0.4,2.1,0.1,3.1
				c0.6,1.5,2.1,2.4,3.7,2.4c0.6,0,1.1-0.1,1.6-0.3c4-1.8,10.6-6.6,9.7-13.6c-1.1-8.3-5.3-13.3-12.5-15c-7.2-1.7-13.1,4.3-13.8,5
				c-0.7,0.8-1.1,1.8-1.1,2.9c0,1.1,0.5,2.1,1.3,2.8c1.6,1.5,4.2,1.4,5.7-0.2C148.1,66.1,150.6,64,152.8,64z"/>
		</g>
	</g>
</g>
</svg>
