<?xml version="1.0" encoding="utf-8"?>
<!-- Generator: Adobe Illustrator 22.1.0, SVG Export Plug-In . SVG Version: 6.00 Build 0)  -->
<svg version="1.1" xmlns="http://www.w3.org/2000/svg" xmlns:xlink="http://www.w3.org/1999/xlink" x="0px" y="0px"
	 viewBox="0 0 215.4 122" style="enable-background:new 0 0 215.4 122;" xml:space="preserve">
<style type="text/css">
	.st0{fill:#FFFFFF;}
	.st1{fill:#99CA3C;}
	.st2{fill:#FFFFFF;stroke:#99CA3C;stroke-miterlimit:10;}
</style>
<g id="email">
	<g>
		<path class="st0" d="M201,121.5H14.3c-7.6,0-13.8-6.2-13.8-13.8V27.1V14.3c0-7.6,6.2-13.8,13.8-13.8H201c7.6,0,13.8,6.2,13.8,13.8
			v93.4C214.9,115.3,208.6,121.5,201,121.5z"/>
		<path class="st1" d="M201,122H14.3C6.4,122,0,115.6,0,107.7V14.3C0,6.4,6.4,0,14.3,0H201c7.9,0,14.3,6.4,14.3,14.3v93.4
			C215.4,115.6,208.9,122,201,122z M14.3,1C7,1,1,7,1,14.3v93.4C1,115,7,121,14.3,121H201c7.4,0,13.3-6,13.3-13.3V14.3
			C214.4,7,208.4,1,201,1H14.3z"/>
	</g>
	<g>
		<polyline class="st0" points="0.5,15.6 108.4,69.4 215.2,15.6 		"/>
		<polygon class="st1" points="108.4,69.9 108.2,69.8 0.3,16 0.7,15.1 108.4,68.8 215,15.1 215.4,16 		"/>
	</g>
	<g>
		<line class="st0" x1="0.8" y1="111.1" x2="91.1" y2="60.5"/>
		<polygon class="st1" points="1,111.6 0.6,110.7 90.8,60.1 91.3,61 		"/>
	</g>
	<g>
		<line class="st0" x1="214.9" y1="111.1" x2="127.2" y2="60.5"/>
		<rect x="170.5" y="35.2" transform="matrix(0.5 -0.866 0.866 0.5 11.1794 191.0338)" class="st1" width="1" height="101.2"/>
	</g>
</g>
</svg>
