<?xml version="1.0" encoding="utf-8"?>
<!-- Generator: Adobe Illustrator 22.1.0, SVG Export Plug-In . SVG Version: 6.00 Build 0)  -->
<svg version="1.1" xmlns="http://www.w3.org/2000/svg" xmlns:xlink="http://www.w3.org/1999/xlink" x="0px" y="0px"
	 viewBox="0 0 151.7 233.2" style="enable-background:new 0 0 151.7 233.2;" xml:space="preserve">
<style type="text/css">
	.st0{fill:#FFFFFF;}
	.st1{fill:#99CA3C;}
	.st2{fill:#FFFFFF;stroke:#99CA3C;stroke-miterlimit:10;}
</style>
<g id="social">
	<g>
		<path class="st0" d="M108.7,232.5l-97.5-14.2c-6.8-1-11.6-7.4-10.6-14.3L28.7,11.3c1-6.8,7.4-11.6,14.3-10.6l97.5,14.2
			c6.8,1,11.6,7.4,10.6,14.3L123,221.9C122,228.8,115.6,233.5,108.7,232.5z"/>
		<path class="st1" d="M110.5,233.2c-0.6,0-1.3,0-1.9-0.1l-97.5-14.2c-7.1-1-12.1-7.7-11.1-14.8L28.2,11.2c0.5-3.4,2.3-6.5,5.1-8.6
			c2.8-2.1,6.2-3,9.7-2.5l97.5,14.2c3.4,0.5,6.5,2.3,8.6,5.1c2.1,2.8,3,6.2,2.5,9.7L123.5,222c-0.5,3.4-2.3,6.5-5.1,8.6
			C116.1,232.3,113.3,233.2,110.5,233.2z M41.1,1c-2.6,0-5.1,0.8-7.2,2.4c-2.6,1.9-4.3,4.8-4.7,7.9L1.1,204.2
			c-1,6.6,3.6,12.7,10.2,13.7l97.5,14.2c3.2,0.5,6.4-0.3,8.9-2.3c2.6-1.9,4.3-4.7,4.7-7.9L150.5,29c0.5-3.2-0.3-6.4-2.3-8.9
			c-1.9-2.6-4.7-4.3-7.9-4.7L42.9,1.1C42.3,1,41.7,1,41.1,1z"/>
	</g>
	<g>
		<path class="st0" d="M106.2,205.1l-84.8-12.3c-4.3-0.6-7.4-4.7-6.8-9.1L38.4,20.5c0.6-4.3,4.7-7.4,9.1-6.8l84.8,12.3
			c4.3,0.6,7.4,4.7,6.8,9.1l-23.7,163.2C114.7,202.7,110.6,205.7,106.2,205.1z"/>
		<path class="st1" d="M107.4,205.7c-0.4,0-0.8,0-1.2-0.1l-84.8-12.3c-2.2-0.3-4.2-1.5-5.6-3.3c-1.4-1.8-1.9-4.1-1.6-6.3L38,20.4
			c0.7-4.6,5-7.8,9.6-7.2l84.8,12.3c4.6,0.7,7.8,5,7.2,9.6l-23.7,163.2C115.2,202.6,111.5,205.7,107.4,205.7z M106.3,204.6
			c4.1,0.6,7.9-2.2,8.5-6.3l23.7-163.2c0.6-4.1-2.2-7.9-6.3-8.5L47.4,14.3c-4.1-0.6-7.9,2.2-8.5,6.3L15.2,183.8
			c-0.3,2,0.2,3.9,1.4,5.5c1.2,1.6,2.9,2.7,4.9,2.9L106.3,204.6z"/>
	</g>
	<g>
		<line class="st0" x1="70.4" y1="11.1" x2="111.9" y2="17.2"/>
		
			<rect x="90.6" y="-6.8" transform="matrix(0.1439 -0.9896 0.9896 0.1439 64.0094 102.3104)" class="st1" width="1" height="41.9"/>
	</g>
	<g>
		<circle class="st0" cx="62" cy="211.5" r="8.9"/>
		<path class="st1" d="M62,220.9c-0.4,0-0.9,0-1.4-0.1c-5.1-0.7-8.7-5.5-8-10.7c0.7-5.1,5.5-8.7,10.7-8c5.1,0.7,8.7,5.5,8,10.7
			C70.7,217.5,66.6,220.9,62,220.9z M62,203.1c-4.1,0-7.7,3-8.3,7.2c-0.7,4.6,2.5,8.9,7.1,9.5c4.6,0.7,8.9-2.5,9.5-7.1
			c0.7-4.6-2.5-8.9-7.1-9.5C62.8,203.1,62.4,203.1,62,203.1z"/>
	</g>
	<g>
		<path class="st0" d="M106.8,135.9c-1.2,8-8.6,13.6-16.6,12.4c-8-1.2-13.6-8.6-12.4-16.6c0.2-1.4,0.6-2.6,1.1-3.8l-15.1-11.9
			c-2.7,1.5-6,2.2-9.3,1.7c-8-1.2-13.6-8.6-12.4-16.6c1.2-8,8.6-13.6,16.6-12.4c3.2,0.5,6,1.9,8.1,4l17.9-7.1
			c-0.1-1.2-0.1-2.5,0-3.8c1.2-8,8.6-13.6,16.6-12.4c8,1.2,13.6,8.6,12.4,16.6c-1.2,8-8.6,13.6-16.6,12.4c-4-0.6-7.3-2.7-9.6-5.7
			l-16.9,6.7c0.5,1.9,0.7,3.9,0.4,5.9c-0.3,1.9-0.9,3.7-1.8,5.2l14.5,11.4c3-2.1,6.8-3.2,10.7-2.6
			C102.4,120.5,107.9,127.9,106.8,135.9z"/>
		<path class="st1" d="M92.3,149c-0.7,0-1.5-0.1-2.2-0.2c-8.3-1.2-14-8.9-12.8-17.2c0.2-1.2,0.5-2.5,1-3.6l-14.6-11.5
			c-2.9,1.5-6.1,2.1-9.3,1.6c-4-0.6-7.6-2.7-10-5.9c-2.4-3.2-3.4-7.2-2.9-11.3c1.2-8.3,8.9-14,17.2-12.8c3.1,0.4,5.9,1.8,8.2,3.9
			l17.3-6.9c-0.1-1.2-0.1-2.4,0.1-3.6c0.6-4,2.7-7.5,5.9-10c3.2-2.4,7.2-3.4,11.3-2.9c4,0.6,7.6,2.7,10,5.9
			c2.4,3.2,3.4,7.2,2.8,11.3c-0.6,4-2.7,7.6-5.9,10s-7.2,3.4-11.3,2.8c-3.8-0.6-7.3-2.5-9.7-5.6l-16.1,6.4c0.4,1.9,0.5,3.8,0.3,5.7
			c-0.3,1.8-0.8,3.5-1.7,5l13.8,10.9c3.1-2.2,6.9-3,10.7-2.5c4,0.6,7.6,2.7,10,5.9c2.4,3.2,3.4,7.2,2.9,11.3
			C106.2,143.5,99.7,149,92.3,149z M63.8,115.3l15.7,12.4l-0.2,0.4c-0.5,1.2-0.9,2.4-1.1,3.7c-1.1,7.7,4.3,14.9,12,16.1
			c7.7,1.1,14.9-4.3,16.1-12l0,0c0.5-3.7-0.4-7.5-2.7-10.5c-2.3-3-5.6-5-9.3-5.5c-3.7-0.5-7.3,0.4-10.3,2.5l-0.3,0.2l-15.1-11.9
			l0.2-0.4c0.9-1.5,1.5-3.2,1.8-5c0.3-1.9,0.2-3.9-0.3-5.7L70.1,99l17.6-7l0.2,0.3c2.3,3,5.5,4.9,9.3,5.5c3.8,0.5,7.5-0.4,10.5-2.7
			s5-5.6,5.5-9.3c0.5-3.7-0.4-7.5-2.7-10.5c-2.3-3-5.6-5-9.3-5.5c-3.7-0.5-7.5,0.4-10.5,2.7c-3,2.3-5,5.6-5.5,9.3
			c-0.2,1.2-0.2,2.5,0,3.7l0,0.4l-18.6,7.4L66.4,93c-2.2-2.1-4.9-3.4-7.8-3.9c-7.7-1.1-14.9,4.3-16.1,12c-0.5,3.7,0.4,7.5,2.7,10.5
			c2.3,3,5.6,5,9.3,5.5c3.1,0.5,6.2-0.1,9-1.7L63.8,115.3z"/>
	</g>
</g>
</svg>
