<?xml version="1.0" encoding="utf-8"?>
<!-- Generator: Adobe Illustrator 22.1.0, SVG Export Plug-In . SVG Version: 6.00 Build 0)  -->
<svg version="1.1" xmlns="http://www.w3.org/2000/svg" xmlns:xlink="http://www.w3.org/1999/xlink" x="0px" y="0px"
	 viewBox="0 0 232 205.6" style="enable-background:new 0 0 232 205.6;" xml:space="preserve">
<style type="text/css">
	.st0{fill:#FFFFFF;}
	.st1{fill:#99CA3C;}
	.st2{fill:#FFFFFF;stroke:#99CA3C;stroke-miterlimit:10;}
</style>
<g id="save">
	<g>
		<path class="st0" d="M231.5,94v18.3c0,25.7-15.7,47.8-37.9,57.5c0,0.2,0.1,0.3,0.1,0.5l2.9,16.3c1.4,7.7-3.8,15.1-11.5,16.5
			l-10.5,1.8c-7.7,1.4-15.1-3.8-16.5-11.5l-2.9-16.3c-0.1-0.7-0.2-1.5-0.2-2.2h-41.8c0,0.7-0.1,1.5-0.2,2.2l-2.9,16.3
			c-1.4,7.7-8.8,12.9-16.5,11.5L83.2,203c-7.7-1.4-12.9-8.8-11.5-16.5l2.5-14.2c-23.5-6.5-41.9-25.7-47.2-49.7H10.9
			c-5.7,0-10.4-4.7-10.4-10.4V91.6c0-5.7,4.7-10.4,10.4-10.4h16.6C33.6,58,51.9,39.6,75.1,33.6V0.7c0,0,22.5,6.1,25.7,30.8H169
			C203.4,31.5,231.5,59.6,231.5,94z"/>
		<path class="st1" d="M172,205.6c-3,0-5.9-0.9-8.4-2.7c-3.2-2.3-5.4-5.6-6.1-9.5l-2.9-16.3c-0.1-0.6-0.2-1.2-0.2-1.8h-40.8
			c0,0.6-0.1,1.2-0.2,1.8l-2.9,16.3c-0.7,3.9-2.8,7.2-6.1,9.5c-3.2,2.3-7.1,3.1-11,2.4l-10.5-1.8c-8-1.4-13.3-9.1-11.9-17l2.4-13.7
			c-23.3-6.6-41.7-26-47-49.6H10.9c-6,0-10.9-4.9-10.9-10.9V91.6c0-6,4.9-10.9,10.9-10.9h16.3c6.2-23.2,24.3-41.3,47.5-47.5V0
			l0.6,0.2c0.2,0.1,22.6,6.4,26,30.8H169c34.8,0,63,28.3,63,63v18.3c0,25-14.8,47.6-37.8,57.8l0,0.1l2.9,16.3
			c0.7,3.9-0.2,7.8-2.4,11c-2.3,3.2-5.6,5.4-9.5,6.1l-10.5,1.8C173.8,205.5,172.9,205.6,172,205.6z M112.7,174.3h42.7l0,0.5
			c0,0.7,0.1,1.4,0.2,2.2l2.9,16.3c1.3,7.4,8.4,12.4,15.9,11.1l10.5-1.8c7.4-1.3,12.4-8.4,11.1-15.9l-3.1-17.2l0.4-0.2
			c22.9-9.9,37.6-32.2,37.6-57V94c0-34.2-27.8-62-62-62h-68.6l-0.1-0.4C97.5,9.8,79.3,2.6,75.6,1.3V34l-0.4,0.1
			C52.1,40.1,34,58.2,28,81.3l-0.1,0.4h-17c-5.4,0-9.9,4.4-9.9,9.9v20.8c0,5.4,4.4,9.9,9.9,9.9h16.5l0.1,0.4
			c5.2,23.5,23.6,42.9,46.8,49.3l0.4,0.1l-2.6,14.6c-1.3,7.4,3.7,14.6,11.1,15.9l10.5,1.8c7.4,1.3,14.6-3.7,15.9-11.1l2.9-16.3
			c0.1-0.7,0.2-1.4,0.2-2.2L112.7,174.3z"/>
	</g>
	<g>
		<circle class="st0" cx="65.7" cy="76.5" r="10.7"/>
		<path class="st1" d="M65.7,87.6c-6.2,0-11.2-5-11.2-11.2c0-6.2,5-11.2,11.2-11.2c6.2,0,11.2,5,11.2,11.2
			C76.8,82.6,71.8,87.6,65.7,87.6z M65.7,66.3c-5.6,0-10.2,4.6-10.2,10.2c0,5.6,4.6,10.2,10.2,10.2c5.6,0,10.2-4.6,10.2-10.2
			C75.8,70.9,71.3,66.3,65.7,66.3z"/>
	</g>
	<g>
		<rect x="115.4" y="40.9" class="st0" width="50.9" height="12.5"/>
		<path class="st1" d="M166.8,53.9h-51.9V40.4h51.9V53.9z M115.9,52.9h49.9V41.4h-49.9V52.9z"/>
	</g>
	<g>
		<circle class="st0" cx="150.2" cy="27.7" r="20.1"/>
		<path class="st1" d="M150.2,48.4c-11.4,0-20.6-9.3-20.6-20.6c0-11.4,9.3-20.6,20.6-20.6s20.6,9.3,20.6,20.6
			C170.8,39.1,161.5,48.4,150.2,48.4z M150.2,8.1c-10.8,0-19.6,8.8-19.6,19.6c0,10.8,8.8,19.6,19.6,19.6s19.6-8.8,19.6-19.6
			C169.8,16.9,161,8.1,150.2,8.1z"/>
	</g>
</g>
</svg>
