<?xml version="1.0" encoding="utf-8"?>
<!-- Generator: Adobe Illustrator 22.1.0, SVG Export Plug-In . SVG Version: 6.00 Build 0)  -->
<svg version="1.1" xmlns="http://www.w3.org/2000/svg" xmlns:xlink="http://www.w3.org/1999/xlink" x="0px" y="0px"
	 viewBox="0 0 190.9 234" style="enable-background:new 0 0 190.9 234;" xml:space="preserve">
<style type="text/css">
	.st0{fill:#FFFFFF;}
	.st1{fill:#99CA3C;}
	.st2{fill:#FFFFFF;stroke:#99CA3C;stroke-miterlimit:10;}
</style>
<g id="Layer_1">
</g>
<g id="class">
</g>
<g id="a2z">
</g>
<g id="habitat">
</g>
<g id="email">
</g>
<g id="stroller">
	<g>
		<path class="st2" d="M161.2,175c-0.7,0-1.5,0-2.2,0.1L133.7,108c0-9.2-0.2-17.8-0.3-24.3c-0.6-29.2-2-57.3-2.2-60.7l0.2-0.2
			l0.2-0.4c2-3.4,5.2-5.9,9.1-6.9c3.9-1,7.9-0.5,11.3,1.5c3.4,2,5.9,5.2,6.9,9.1c1,3.9,0.5,7.9-1.5,11.3c-2,3.4-0.8,7.9,2.6,9.8
			c3.4,2,7.9,0.8,9.8-2.6c3.9-6.8,4.9-14.7,2.9-22.2c-2-7.6-6.9-13.9-13.6-17.8c-6.8-3.9-14.7-4.9-22.2-2.9
			c-7.5,2-13.8,6.8-17.7,13.4L28.6,152.3c-1.2,1.8-7.4,12.1-2.8,26.7c-8.7,5.1-14.5,14.5-14.5,25.3c0,16.1,13.1,29.3,29.3,29.3
			c16.1,0,29.3-13.1,29.3-29.3c0-16.1-13.1-29.3-29.3-29.3c-0.3,0-0.6,0-0.8,0c-0.9-2.7-1.3-5.4-1.1-7.9c0.3-3.7,1.6-6.1,1.9-6.6
			l8.4-12.8l47.7,17.5c3.4,1.5,8.4,2.8,13.6,2.8c6.9,0,14.3-2.4,18.7-10c1.5-2.5,2.5-7.3,3.3-13.2l13.1,34.9
			c-8,5.2-13.4,14.3-13.4,24.5c0,16.1,13.1,29.3,29.3,29.3c16.1,0,29.3-13.1,29.3-29.3C190.4,188.1,177.3,175,161.2,175z
			 M40.5,189.4c2.1,0,4.2,0.5,6,1.3c5.2,2.3,8.8,7.5,8.8,13.6c0,8.2-6.7,14.8-14.8,14.8c-8.2,0-14.8-6.7-14.8-14.8
			c0-5.2,2.7-9.7,6.7-12.4C34.6,190.3,37.4,189.4,40.5,189.4z M116.4,150.8c-3.3,5.7-14.2,1.2-14.2,1.2L57,135.4l60.7-92
			C120.4,104,119.3,145,116.4,150.8z M161.2,219.1c-8.2,0-14.8-6.7-14.8-14.8c0-8.2,6.7-14.8,14.8-14.8s14.8,6.7,14.8,14.8
			C176,212.4,169.4,219.1,161.2,219.1z"/>
	</g>
	<g>
		<path class="st0" d="M58.6,108.2c0,0-3.9-2.4-7.1-4c-3.2-1.7-12.6-4.4-18.2,3.5L2.3,154c-3.3,4.9-1.9,11.5,2.9,14.7l0,0
			c4.9,3.3,11.5,1.9,14.7-2.9l5.5-8.2"/>
		<path class="st1" d="M11.1,171c-2.2,0-4.3-0.6-6.1-1.9c-2.5-1.6-4.1-4.2-4.7-7.1c-0.6-2.9,0-5.9,1.7-8.3l31.1-46.3
			c5.7-8.2,15.6-5.4,18.9-3.7c3.2,1.7,7.1,4,7.1,4.1l-0.5,0.9c0,0-3.9-2.4-7.1-4c-3.1-1.6-12.2-4.2-17.6,3.4L2.7,154.3
			c-1.5,2.2-2,4.9-1.5,7.6c0.5,2.7,2,4.9,4.3,6.4c2.2,1.5,4.9,2,7.6,1.5c2.7-0.5,4.9-2,6.4-4.3l5.5-8.2l0.8,0.6l-5.5,8.2
			c-1.6,2.5-4.2,4.1-7.1,4.7C12.5,170.9,11.8,171,11.1,171z"/>
	</g>
	<g>
		<path class="st0" d="M85.6,64.9C77.1,61.9,71,53.7,71,44.2c0-12.2,9.9-22.1,22.1-22.1c6.3,0,12.3,2.8,16.4,7"/>
		<path class="st1" d="M85.4,65.4c-8.9-3.2-14.9-11.8-14.9-21.2c0-12.5,10.1-22.6,22.6-22.6c6.2,0,12.5,2.7,16.7,7.2l-0.7,0.7
			c-4.1-4.3-10.1-6.9-16-6.9c-11.9,0-21.6,9.7-21.6,21.6c0,9.1,5.7,17.2,14.2,20.3L85.4,65.4z"/>
	</g>
</g>
<g id="camera">
</g>
<g id="eat">
</g>
<g id="discount">
</g>
<g id="arrow">
</g>
<g id="save">
</g>
<g id="social">
</g>
<g id="hotels">
</g>
<g id="checklist">
</g>
<g id="calendar">
</g>
<g id="download">
</g>
<g id="tickets">
</g>
<g id="directions">
</g>
<g id="people">
</g>
<g id="train">
</g>
<g id="keepers">
</g>
<g id="lion">
</g>
</svg>
