<?xml version="1.0" encoding="utf-8"?>
<!-- Generator: Adobe Illustrator 22.1.0, SVG Export Plug-In . SVG Version: 6.00 Build 0)  -->
<svg version="1.1" xmlns="http://www.w3.org/2000/svg" xmlns:xlink="http://www.w3.org/1999/xlink" x="0px" y="0px"
	 viewBox="0 0 246 205.6" style="enable-background:new 0 0 246 205.6;" xml:space="preserve">
<style type="text/css">
	.st0{fill:#FFFFFF;}
	.st1{fill:#99CA3C;}
	.st2{fill:#FFFFFF;stroke:#99CA3C;stroke-miterlimit:10;}
</style>
<g id="tickets">
	<g>
		<g>
			<path class="st0" d="M214,147.1c-3.3,12,3.5,24.4,15.3,28l-4.5,16.1c-2.8,10-13.2,16-23.3,13.2L32.3,157.5
				c-10-2.8-15.9-13.2-13.2-23.3l4.5-16.1c12.1,3.1,24.4-4,27.8-16.1C54.7,90,47.7,77.6,35.8,74L39,62.3c2.8-10,13.2-16,23.3-13.2
				l169.4,46.8c10,2.8,16,13.2,13.2,23.3l-3.3,11.8C229.6,128,217.3,135.1,214,147.1z"/>
			<path class="st1" d="M206.7,205.6c-1.7,0-3.5-0.2-5.2-0.7L32.2,158c-5-1.4-9.1-4.6-11.7-9.1c-2.6-4.5-3.2-9.8-1.8-14.7l4.6-16.6
				l0.5,0.1c11.7,3,23.9-4,27.2-15.7s-3.6-24-15.2-27.4l-0.5-0.1l3.4-12.2c1.4-5,4.6-9.1,9.1-11.7c4.5-2.6,9.8-3.2,14.7-1.8
				l169.4,46.8c5,1.4,9.1,4.6,11.7,9.1c2.6,4.5,3.2,9.8,1.8,14.7l-3.4,12.2l-0.5-0.1c-11.8-2.9-23.7,4-26.9,15.8
				c-3.3,11.8,3.3,23.8,15,27.4l0.5,0.1l-4.6,16.6c-1.4,5-4.6,9.1-9.1,11.7C213.3,204.7,210,205.6,206.7,205.6z M23.9,118.8
				l-4.3,15.6c-2.7,9.8,3,19.9,12.8,22.6l169.4,46.8c4.7,1.3,9.7,0.7,14-1.8c4.3-2.4,7.4-6.4,8.7-11.1l4.3-15.6
				c-11.9-3.9-18.6-16.3-15.2-28.5l0.5,0.1l-0.5-0.1c3.4-12.1,15.5-19.4,27.7-16.6l3.1-11.3c1.3-4.7,0.7-9.7-1.7-14
				c-2.4-4.3-6.4-7.4-11.1-8.7L62.1,49.6c-4.7-1.3-9.7-0.7-14,1.7c-4.3,2.4-7.4,6.4-8.7,11.1l-3.1,11.3
				c11.9,3.8,18.8,16.5,15.4,28.5C48.5,114.3,36,121.6,23.9,118.8z"/>
		</g>
		<g>
			<path class="st0" d="M200.9,144.6c-4.1,14.8,2,30.1,14.1,38.2l-0.9,3.1c-1.5,5.4-7.2,8.6-12.6,7.1L37.6,147.8
				c-5.4-1.5-8.6-7.2-7.1-12.6l0.9-3.1c14.6-0.8,27.7-10.7,31.9-25.6c4.1-14.9-2-30.2-14.2-38.3l0.3-0.9c1.5-5.4,7.2-8.6,12.6-7.1
				l163.9,45.3c5.4,1.5,8.6,7.2,7.1,12.6l-0.3,1C218,119.8,205,129.8,200.9,144.6z"/>
			<path class="st1" d="M204.2,194c-1,0-1.9-0.1-2.9-0.4L37.5,148.3c-5.7-1.6-9.1-7.5-7.5-13.2l0.9-3.4l0.4,0
				c14.8-0.8,27.4-10.9,31.4-25.2c4-14.3-1.7-29.5-14-37.8l-0.3-0.2l0.4-1.3c0.8-2.8,2.6-5,5.1-6.5c2.5-1.4,5.4-1.8,8.1-1
				l163.9,45.3c5.7,1.6,9.1,7.5,7.5,13.2l-0.4,1.3l-0.4,0c-14.8,0.8-27.3,11-31.3,25.2l-0.5-0.1l0.5,0.1
				c-3.9,14.3,1.6,29.4,13.9,37.7l0.3,0.2l-1,3.5c-0.8,2.8-2.6,5-5.1,6.5C207.9,193.5,206,194,204.2,194z M31.7,132.6l-0.8,2.7
				c-0.7,2.5-0.4,5.1,0.9,7.4c1.3,2.3,3.4,3.9,5.9,4.6l163.9,45.3c2.5,0.7,5.1,0.4,7.4-0.9c2.3-1.3,3.9-3.4,4.6-5.9l0.8-2.8
				c-12.4-8.6-18-24-14-38.6c4-14.6,16.8-24.9,31.8-25.9l0.2-0.6c1.4-5.2-1.6-10.5-6.8-12L61.7,60.6c-2.5-0.7-5.1-0.4-7.4,0.9
				c-2.3,1.3-3.9,3.4-4.6,5.9L49.6,68c12.5,8.6,18.1,24.1,14.1,38.7C59.6,121.3,46.8,131.7,31.7,132.6z"/>
		</g>
		<g>
			<line class="st0" x1="187.7" y1="84.8" x2="158.3" y2="191.2"/>
			
				<rect x="117.8" y="137.5" transform="matrix(0.2666 -0.9638 0.9638 0.2666 -6.0849 267.9546)" class="st1" width="110.4" height="1"/>
		</g>
		<g>
			<line class="st0" x1="167.4" y1="97.8" x2="147.7" y2="169"/>
			
				<rect x="120.7" y="132.9" transform="matrix(0.2666 -0.9638 0.9638 0.2666 -13.0276 249.6737)" class="st1" width="73.8" height="1"/>
		</g>
		<g>
			<line class="st0" x1="158" y1="95.3" x2="138.4" y2="166.4"/>
			
				<rect x="111.3" y="130.3" transform="matrix(0.2666 -0.9638 0.9638 0.2666 -17.3939 238.7649)" class="st1" width="73.8" height="1"/>
		</g>
		<g>
			<line class="st0" x1="148.7" y1="92.7" x2="129" y2="163.8"/>
			
				<rect x="101.9" y="127.7" transform="matrix(0.2666 -0.9638 0.9638 0.2666 -21.7598 227.856)" class="st1" width="73.8" height="1"/>
		</g>
		<g>
			<line class="st0" x1="139.3" y1="90.1" x2="119.7" y2="161.2"/>
			
				<rect x="92.6" y="125.1" transform="matrix(0.2666 -0.9638 0.9638 0.2666 -26.1257 216.9472)" class="st1" width="73.8" height="1"/>
		</g>
		<g>
			<line class="st0" x1="130" y1="87.5" x2="110.3" y2="158.6"/>
			
				<rect x="83.2" y="122.6" transform="matrix(0.2666 -0.9638 0.9638 0.2666 -30.4921 206.0383)" class="st1" width="73.8" height="1"/>
		</g>
		<g>
			<line class="st0" x1="120.6" y1="84.9" x2="101" y2="156"/>
			
				<rect x="73.9" y="120" transform="matrix(0.2666 -0.9638 0.9638 0.2666 -34.8584 195.1295)" class="st1" width="73.8" height="1"/>
		</g>
		<g>
			<line class="st0" x1="111.3" y1="82.3" x2="91.6" y2="153.4"/>
			
				<rect x="64.5" y="117.4" transform="matrix(0.2666 -0.9638 0.9638 0.2666 -39.2243 184.2207)" class="st1" width="73.8" height="1"/>
		</g>
		<g>
			<line class="st0" x1="101.9" y1="79.7" x2="82.3" y2="150.9"/>
			
				<rect x="55.2" y="114.8" transform="matrix(0.2666 -0.9638 0.9638 0.2666 -43.5902 173.3118)" class="st1" width="73.8" height="1"/>
		</g>
		<g>
			<line class="st0" x1="92.6" y1="77.2" x2="72.9" y2="148.3"/>
			
				<rect x="45.8" y="112.2" transform="matrix(0.2666 -0.9638 0.9638 0.2666 -47.9565 162.403)" class="st1" width="73.8" height="1"/>
		</g>
	</g>
	<g>
		<g>
			<g>
				<path class="st0" d="M195.2,54.3c2.9,12.1,14.8,19.7,26.9,17.1l3.9,16.3c2.4,10.1-3.9,20.4-14,22.8l-171,40.6
					c-10.1,2.4-20.4-3.9-22.8-14l-3.9-16.2c12.1-3.1,19.5-15.3,16.6-27.5C28.1,81.2,16,73.6,3.8,76.3L1,64.4
					C-1.4,54.3,4.9,44,15,41.6L186,1c10.1-2.4,20.4,3.9,22.8,14l2.8,11.9C199.6,30.1,192.3,42.3,195.2,54.3z"/>
				<path class="st1" d="M36.7,152.1c-8.8,0-16.8-6-18.9-14.9l-4-16.7l0.5-0.1c11.7-3,19-15.1,16.2-26.9
					C27.7,81.7,15.8,74.2,3.9,76.8l-0.5,0.1L0.5,64.5c-2.5-10.4,4-20.9,14.4-23.4l171-40.6c5-1.2,10.2-0.4,14.6,2.4
					c4.4,2.7,7.5,7,8.7,12l2.9,12.4l-0.5,0.1c-11.8,3.2-18.8,14.9-16,26.8c2.8,11.9,14.4,19.2,26.4,16.8l0.5-0.1l4,16.7
					c1.2,5,0.4,10.2-2.4,14.7c-2.7,4.4-7,7.5-12,8.7l-171,40.6C39.7,152,38.2,152.1,36.7,152.1z M15,121.2l3.7,15.8
					c2.3,9.9,12.3,16,22.2,13.7l171-40.6c4.8-1.1,8.8-4.1,11.4-8.3s3.4-9.1,2.3-13.9l-3.8-15.8c-12.3,2.3-24.1-5.3-27.1-17.6
					S198.9,30,211,26.6l-2.7-11.4c-1.1-4.8-4.1-8.8-8.3-11.4c-4.2-2.6-9.1-3.4-13.9-2.3l-171,40.6c-9.9,2.3-16,12.3-13.6,22.2
					l2.7,11.4c12.2-2.4,24.4,5.4,27.3,17.6C34.4,105.4,27,117.8,15,121.2z"/>
			</g>
			<g>
				<path class="st0" d="M182.5,58.5c3.6,15,16.2,25.4,30.8,26.7l0.7,3.2c1.3,5.5-2.1,11-7.6,12.3L41,140c-5.5,1.3-11-2.1-12.3-7.6
					l-0.7-3.1c12.4-7.7,19.1-22.8,15.6-37.8c-3.6-15-16.3-25.5-30.9-26.7l-0.2-1c-1.3-5.5,2.1-11,7.6-12.3l165.4-39.3
					c5.5-1.3,11,2.1,12.3,7.6l0.2,1C185.6,28.5,179,43.5,182.5,58.5z"/>
				<path class="st1" d="M38.7,140.8c-4.9,0-9.3-3.3-10.4-8.3l-0.8-3.5l0.3-0.2c12.6-7.8,18.8-22.8,15.3-37.2
					c-3.4-14.5-15.7-25.1-30.5-26.4l-0.4,0l-0.3-1.3c-1.4-5.8,2.2-11.6,8-12.9l165.4-39.3c5.8-1.4,11.6,2.2,12.9,8l0.3,1.3l-0.3,0.2
					C185.7,29,179.6,44,183,58.4l0,0c3.4,14.4,15.6,25,30.3,26.3l0.4,0l0.8,3.5c0.7,2.8,0.2,5.7-1.3,8.1c-1.5,2.4-3.9,4.2-6.6,4.8
					L41.1,140.5C40.3,140.7,39.5,140.8,38.7,140.8z M28.5,129.5l0.7,2.8c1.2,5.2,6.5,8.5,11.7,7.2l165.4-39.3c2.5-0.6,4.7-2.2,6-4.4
					c1.4-2.2,1.8-4.8,1.2-7.3l-0.7-2.8c-15-1.5-27.4-12.4-30.8-27.1c-3.5-14.7,2.7-29.9,15.4-38.1l-0.2-0.6
					c-1.2-5.2-6.5-8.5-11.7-7.2L20.1,52c-5.2,1.2-8.5,6.5-7.2,11.7l0.1,0.6c15.1,1.5,27.5,12.3,31,27.1
					C47.5,106.2,41.3,121.4,28.5,129.5z"/>
			</g>
			<g>
				<line class="st0" x1="130.6" y1="33.7" x2="147.7" y2="105.5"/>
				
					<rect x="138.6" y="32.7" transform="matrix(0.9729 -0.2312 0.2312 0.9729 -12.3183 34.0575)" class="st1" width="1" height="73.8"/>
			</g>
			<g>
				<line class="st0" x1="121.2" y1="35.9" x2="138.2" y2="107.7"/>
				
					<rect x="129.2" y="34.9" transform="matrix(0.9729 -0.2312 0.2312 0.9729 -13.0927 31.9356)" class="st1" width="1" height="73.8"/>
			</g>
			<g>
				<line class="st0" x1="111.7" y1="38.2" x2="128.8" y2="110"/>
				
					<rect x="119.8" y="37.2" transform="matrix(0.9729 -0.2312 0.2312 0.9729 -13.8672 29.8139)" class="st1" width="1" height="73.8"/>
			</g>
			<g>
				<line class="st0" x1="102.3" y1="40.4" x2="119.4" y2="112.2"/>
				
					<rect x="110.3" y="39.4" transform="matrix(0.9729 -0.2312 0.2312 0.9729 -14.6416 27.6923)" class="st1" width="1" height="73.8"/>
			</g>
			<g>
				<line class="st0" x1="92.9" y1="42.7" x2="109.9" y2="114.4"/>
				
					<rect x="100.9" y="41.7" transform="matrix(0.9729 -0.2312 0.2312 0.9729 -15.416 25.5706)" class="st1" width="1" height="73.8"/>
			</g>
			<g>
				<line class="st0" x1="142.1" y1="12.4" x2="167.7" y2="119.9"/>
				
					<rect x="154.4" y="10.9" transform="matrix(0.9729 -0.2312 0.2312 0.9729 -11.0922 37.6106)" class="st1" width="1" height="110.4"/>
			</g>
		</g>
		<g>
			<line class="st0" x1="83.4" y1="45.8" x2="100.5" y2="117.5"/>
			
				<rect x="91.4" y="44.8" transform="matrix(0.9729 -0.2312 0.2312 0.9729 -16.3879 23.4721)" class="st1" width="1" height="73.8"/>
		</g>
		<g>
			<line class="st0" x1="74" y1="48" x2="91" y2="119.8"/>
			<rect x="82" y="47" transform="matrix(0.9729 -0.2312 0.2312 0.9729 -17.1624 21.3504)" class="st1" width="1" height="73.8"/>
		</g>
		<g>
			<line class="st0" x1="64.5" y1="50.2" x2="81.6" y2="122"/>
			
				<rect x="72.6" y="49.2" transform="matrix(0.9729 -0.2312 0.2312 0.9729 -17.9368 19.2288)" class="st1" width="1" height="73.8"/>
		</g>
		<g>
			<line class="st0" x1="55.1" y1="52.5" x2="72.2" y2="124.3"/>
			
				<rect x="63.1" y="51.5" transform="matrix(0.9729 -0.2312 0.2312 0.9729 -18.7113 17.1071)" class="st1" width="1" height="73.8"/>
		</g>
	</g>
</g>
</svg>
