<?xml version="1.0" encoding="utf-8"?>
<!-- Generator: Adobe Illustrator 22.1.0, SVG Export Plug-In . SVG Version: 6.00 Build 0)  -->
<svg version="1.1" xmlns="http://www.w3.org/2000/svg" xmlns:xlink="http://www.w3.org/1999/xlink" x="0px" y="0px"
	 viewBox="0 0 231.1 148.7" style="enable-background:new 0 0 231.1 148.7;" xml:space="preserve">
<style type="text/css">
	.st0{fill:#FFFFFF;}
	.st1{fill:#99CA3C;}
	.st2{fill:#FFFFFF;stroke:#99CA3C;stroke-miterlimit:10;}
</style>
<g id="Layer_1">
</g>
<g id="class">
</g>
<g id="a2z">
</g>
<g id="habitat">
</g>
<g id="email">
</g>
<g id="stroller">
</g>
<g id="camera">
</g>
<g id="eat">
</g>
<g id="discount">
</g>
<g id="arrow">
</g>
<g id="save">
</g>
<g id="social">
</g>
<g id="hotels">
</g>
<g id="checklist">
</g>
<g id="calendar">
</g>
<g id="download">
</g>
<g id="tickets">
</g>
<g id="directions">
</g>
<g id="people">
</g>
<g id="train">
	<g>
		<g>
			<circle class="st0" cx="122" cy="128.1" r="18.1"/>
			<path class="st1" d="M122,146.7c-10.2,0-18.6-8.3-18.6-18.6s8.3-18.6,18.6-18.6c10.2,0,18.6,8.3,18.6,18.6S132.2,146.7,122,146.7
				z M122,110.6c-9.7,0-17.6,7.9-17.6,17.6s7.9,17.6,17.6,17.6c9.7,0,17.6-7.9,17.6-17.6S131.7,110.6,122,110.6z"/>
		</g>
		<g>
			<circle class="st0" cx="122" cy="128.1" r="13.2"/>
			<path class="st1" d="M122,141.9c-7.6,0-13.7-6.2-13.7-13.7s6.2-13.7,13.7-13.7s13.7,6.2,13.7,13.7S129.5,141.9,122,141.9z
				 M122,115.4c-7,0-12.7,5.7-12.7,12.7s5.7,12.7,12.7,12.7s12.7-5.7,12.7-12.7S129,115.4,122,115.4z"/>
		</g>
		<g>
			<circle class="st0" cx="160.4" cy="128.1" r="18.1"/>
			<path class="st1" d="M160.4,146.7c-10.2,0-18.6-8.3-18.6-18.6s8.3-18.6,18.6-18.6c10.2,0,18.6,8.3,18.6,18.6
				S170.7,146.7,160.4,146.7z M160.4,110.6c-9.7,0-17.6,7.9-17.6,17.6s7.9,17.6,17.6,17.6c9.7,0,17.6-7.9,17.6-17.6
				S170.1,110.6,160.4,110.6z"/>
		</g>
		<g>
			<circle class="st0" cx="160.4" cy="128.1" r="13.2"/>
			<path class="st1" d="M160.4,141.9c-7.6,0-13.7-6.2-13.7-13.7s6.2-13.7,13.7-13.7s13.7,6.2,13.7,13.7S168,141.9,160.4,141.9z
				 M160.4,115.4c-7,0-12.7,5.7-12.7,12.7s5.7,12.7,12.7,12.7s12.7-5.7,12.7-12.7S167.4,115.4,160.4,115.4z"/>
		</g>
		<g>
			<path class="st0" d="M198.2,80.2c0,12-7.5,31.3-12.8,31.3H73.2c-0.7,0.2-1.5,0.3-2.2,0.3H21.5c-2.5,0-4.5-2-4.5-4.5V7.1
				c0-2.5,2-4.5,4.5-4.5h54.4c2.5,0,4.5,2,4.5,4.5v42.6h104.9C190.6,49.7,198.2,68.2,198.2,80.2z"/>
			<path class="st1" d="M70.9,112.3H21.5c-2.8,0-5-2.2-5-5V7.1c0-2.8,2.2-5,5-5h54.4c2.8,0,5,2.2,5,5v42.1h104.4
				c5.9,0,13.3,19.2,13.3,31c0,14-8.3,31.8-13.3,31.8H73.2C72.5,112.2,71.7,112.3,70.9,112.3z M21.5,3.1c-2.2,0-4,1.8-4,4v100.2
				c0,2.2,1.8,4,4,4h49.4c0.7,0,1.4-0.1,2.1-0.2l0.1,0h112.2c4.8,0,12.3-18.7,12.3-30.8c0-11.8-7.5-30-12.3-30H79.9V7.1
				c0-2.2-1.8-4-4-4H21.5z"/>
		</g>
		<g>
			<rect x="0.5" y="0.5" class="st0" width="89.4" height="6.4"/>
			<path class="st1" d="M90.4,7.4H0V0h90.4V7.4z M1,6.4h88.4V1H1V6.4z"/>
		</g>
		<g>
			<rect x="26.4" y="14.7" class="st0" width="47.6" height="49.2"/>
			<path class="st1" d="M74.5,64.4H25.9V14.2h48.6V64.4z M26.9,63.4h46.6V15.2H26.9V63.4z"/>
		</g>
		<g>
			<path class="st0" d="M95.7,105.1h-0.5c-1.6,0-3-1.3-3-3V49c0-1.6,1.3-3,3-3h0.5c1.6,0,3,1.3,3,3v53.2
				C98.6,103.8,97.3,105.1,95.7,105.1z"/>
			<path class="st1" d="M95.7,105.6h-0.5c-1.9,0-3.5-1.6-3.5-3.5V49c0-1.9,1.6-3.5,3.5-3.5h0.5c1.9,0,3.5,1.6,3.5,3.5v53.2
				C99.1,104.1,97.6,105.6,95.7,105.6z M95.2,46.5c-1.4,0-2.5,1.1-2.5,2.5v53.2c0,1.4,1.1,2.5,2.5,2.5h0.5c1.4,0,2.5-1.1,2.5-2.5V49
				c0-1.4-1.1-2.5-2.5-2.5H95.2z"/>
		</g>
		<g>
			<path class="st0" d="M136.9,105.1h-0.5c-1.6,0-3-1.3-3-3V49c0-1.6,1.3-3,3-3h0.5c1.6,0,3,1.3,3,3v53.2
				C139.9,103.8,138.5,105.1,136.9,105.1z"/>
			<path class="st1" d="M136.9,105.6h-0.5c-1.9,0-3.5-1.6-3.5-3.5V49c0-1.9,1.6-3.5,3.5-3.5h0.5c1.9,0,3.5,1.6,3.5,3.5v53.2
				C140.4,104.1,138.8,105.6,136.9,105.6z M136.4,46.5c-1.4,0-2.5,1.1-2.5,2.5v53.2c0,1.4,1.1,2.5,2.5,2.5h0.5
				c1.4,0,2.5-1.1,2.5-2.5V49c0-1.4-1.1-2.5-2.5-2.5H136.4z"/>
		</g>
		<g>
			<path class="st0" d="M178.1,105.1h-0.5c-1.6,0-3-1.3-3-3V49c0-1.6,1.3-3,3-3h0.5c1.6,0,3,1.3,3,3v53.2
				C181.1,103.8,179.7,105.1,178.1,105.1z"/>
			<path class="st1" d="M178.1,105.6h-0.5c-1.9,0-3.5-1.6-3.5-3.5V49c0-1.9,1.6-3.5,3.5-3.5h0.5c1.9,0,3.5,1.6,3.5,3.5v53.2
				C181.6,104.1,180,105.6,178.1,105.6z M177.6,46.5c-1.4,0-2.5,1.1-2.5,2.5v53.2c0,1.4,1.1,2.5,2.5,2.5h0.5c1.4,0,2.5-1.1,2.5-2.5
				V49c0-1.4-1.1-2.5-2.5-2.5H177.6z"/>
		</g>
		<g>
			<rect x="86" y="102.5" class="st0" width="109.7" height="9.2"/>
			<path class="st1" d="M196.2,112.2H85.5V102h110.7V112.2z M86.5,111.2h108.7V103H86.5V111.2z"/>
		</g>
		<g>
			<circle class="st0" cx="52.9" cy="112.3" r="35.9"/>
			<path class="st1" d="M52.9,148.7c-20.1,0-36.4-16.3-36.4-36.4s16.3-36.4,36.4-36.4c20.1,0,36.4,16.3,36.4,36.4
				S72.9,148.7,52.9,148.7z M52.9,76.9c-19.5,0-35.4,15.9-35.4,35.4s15.9,35.4,35.4,35.4s35.4-15.9,35.4-35.4S72.4,76.9,52.9,76.9z"
				/>
		</g>
		<g>
			<circle class="st0" cx="52.9" cy="112.3" r="28.8"/>
			<path class="st1" d="M52.9,141.6c-16.2,0-29.3-13.2-29.3-29.3S36.7,83,52.9,83s29.3,13.2,29.3,29.3S69,141.6,52.9,141.6z
				 M52.9,84c-15.6,0-28.3,12.7-28.3,28.3s12.7,28.3,28.3,28.3s28.3-12.7,28.3-28.3S68.5,84,52.9,84z"/>
		</g>
		<g>
			<polygon class="st0" points="229.8,143 182.7,143 182.7,111.5 195,111.5 			"/>
			<path class="st1" d="M231.1,143.5h-48.9V111h13l0.1,0.1L231.1,143.5z M183.2,142.5h45.3L194.8,112h-11.6V142.5z"/>
		</g>
		<g>
			<rect x="153.2" y="24.6" class="st0" width="15" height="25.2"/>
			<path class="st1" d="M168.7,50.2h-16V24.1h16V50.2z M153.7,49.2h14V25.1h-14V49.2z"/>
		</g>
		<g>
			<polygon class="st0" points="170.9,24.9 151.1,24.9 148.7,22.7 148.7,18.8 173.3,18.8 173.3,22.7 			"/>
			<path class="st1" d="M171.1,25.4h-20.2l-2.7-2.6v-4.6h25.6v4.6L171.1,25.4z M151.3,24.4h19.4l2.1-2v-3.2h-23.6v3.2L151.3,24.4z"
				/>
		</g>
	</g>
</g>
<g id="keepers">
</g>
<g id="lion">
</g>
</svg>
