<?xml version="1.0" encoding="utf-8"?>
<!-- Generator: Adobe Illustrator 22.1.0, SVG Export Plug-In . SVG Version: 6.00 Build 0)  -->
<svg version="1.1" xmlns="http://www.w3.org/2000/svg" xmlns:xlink="http://www.w3.org/1999/xlink" x="0px" y="0px"
	 viewBox="0 0 242.4 242.5" style="enable-background:new 0 0 242.4 242.5;" xml:space="preserve">
<style type="text/css">
	.st0{fill:#FFFFFF;}
	.st1{fill:#99CA3C;}
	.st2{fill:#FFFFFF;stroke:#99CA3C;stroke-miterlimit:10;}
</style>
<g id="directions">
	<g>
		<path class="st0" d="M239.4,127.5L127.5,239.4c-3.4,3.4-9.1,3.4-12.5,0L3.1,127.5c-3.4-3.4-3.4-9.1,0-12.5L115,3.1
			c3.4-3.4,9.1-3.4,12.5,0L239.4,115C242.8,118.4,242.8,124,239.4,127.5z"/>
		<path class="st1" d="M121.2,242.5c-2.4,0-4.8-0.9-6.6-2.7L2.7,127.8c-3.6-3.6-3.6-9.6,0-13.2L114.6,2.7c3.6-3.6,9.6-3.6,13.2,0
			l111.9,111.9c3.6,3.6,3.6,9.6,0,13.2L127.8,239.7C126,241.5,123.6,242.5,121.2,242.5z M121.2,1c-2.1,0-4.3,0.8-5.9,2.4L3.4,115.3
			c-3.3,3.3-3.3,8.6,0,11.8L115.3,239c3.3,3.3,8.6,3.3,11.8,0L239,127.1c3.3-3.3,3.3-8.6,0-11.8L127.1,3.4
			C125.5,1.8,123.4,1,121.2,1z"/>
	</g>
	<g>
		<path class="st0" d="M226.7,125.3L125.3,226.7c-2.2,2.2-5.9,2.2-8.1,0L15.8,125.3c-2.2-2.2-2.2-5.9,0-8.1L117.2,15.8
			c2.2-2.2,5.9-2.2,8.1,0l101.4,101.4C228.9,119.4,228.9,123.1,226.7,125.3z"/>
		<path class="st1" d="M121.2,228.9c-1.6,0-3.2-0.6-4.4-1.8L15.4,125.6c-1.2-1.2-1.8-2.7-1.8-4.4s0.6-3.2,1.8-4.4L116.8,15.4
			c2.4-2.4,6.4-2.4,8.8,0L227,116.8c1.2,1.2,1.8,2.7,1.8,4.4s-0.6,3.2-1.8,4.4L125.6,227C124.4,228.2,122.8,228.9,121.2,228.9z
			 M121.2,14.6c-1.4,0-2.7,0.5-3.7,1.5L16.1,117.5c-1,1-1.5,2.3-1.5,3.7s0.5,2.7,1.5,3.7l101.4,101.4c1,1,2.3,1.5,3.7,1.5
			c1.4,0,2.7-0.5,3.7-1.5l101.4-101.4c1-1,1.5-2.3,1.5-3.7s-0.5-2.7-1.5-3.7L124.9,16.1C124,15.1,122.6,14.6,121.2,14.6z"/>
	</g>
	<g>
		<path class="st0" d="M131.7,131.2v-15.5h-17.1c-1.5,0-2.7,1.2-2.7,2.7v55.5c0,1.5-1.2,2.7-2.7,2.7H88.3c-1.5,0-2.7-1.2-2.7-2.7
			V92.2c0-1.5,1.2-2.7,2.7-2.7h43.3V73c0-2.2,2.5-3.5,4.3-2.2l39.1,29.1c1.4,1.1,1.4,3.2,0,4.3l-39.1,29.1
			C134.2,134.7,131.7,133.4,131.7,131.2z"/>
		<path class="st1" d="M109.2,177H88.3c-1.8,0-3.2-1.4-3.2-3.2V92.2c0-1.8,1.4-3.2,3.2-3.2h42.8V73c0-1.2,0.7-2.3,1.8-2.8
			c1.1-0.5,2.4-0.4,3.3,0.3l39.1,29.1c0.8,0.6,1.3,1.5,1.3,2.6c0,1-0.5,1.9-1.3,2.6l-39.1,29.1c-1,0.7-2.2,0.8-3.3,0.3
			c-1.1-0.5-1.8-1.6-1.8-2.8v-15h-16.6c-1.2,0-2.2,1-2.2,2.2v55.5C112.4,175.6,111,177,109.2,177z M88.3,90c-1.2,0-2.2,1-2.2,2.2
			v81.7c0,1.2,1,2.2,2.2,2.2h20.9c1.2,0,2.2-1,2.2-2.2v-55.5c0-1.8,1.4-3.2,3.2-3.2h17.6v16c0,0.8,0.5,1.6,1.2,2
			c0.8,0.4,1.6,0.3,2.3-0.2l39.1-29.1c0.6-0.4,0.9-1.1,0.9-1.8c0-0.7-0.3-1.3-0.9-1.8l-39.1-29.1c-0.7-0.5-1.5-0.6-2.3-0.2
			c-0.8,0.4-1.2,1.1-1.2,2v17H88.3z"/>
	</g>
</g>
</svg>
